# Created by Kenney (www.kenney.nl)

mtllib boat-speed-g.mtl

g boat-speed-g

v 0.1780892 0 0.5022007 1 1 1
v 0.2968153 0.2 1.212646 1 1 1
v 0.40698 0 0.1390725 1 1 1
v 0.6783 0.2 0.6074325 1 1 1
v 4.754693E-13 0.2 1.376933 1 1 1
v 6.856349E-13 0.6 1.906132 1 1 1
v 0.3905465 0.6 1.689966 1 1 1
v 0.8925 0.6 0.8936325 1 1 1
v -0.3905465 0.6 1.689966 1 1 1
v -0.2968153 0.2 1.212646 1 1 1
v -0.8925 0.6 0.8936325 1 1 1
v -0.6783 0.2 0.6074325 1 1 1
v 2.228616E-13 0 0.6007725 1 1 1
v -0.40698 0 0.1390725 1 1 1
v -0.1780892 0 0.5022007 1 1 1
v 0.8925 0.6 -1.763867 1 1 1
v 0.6783 0.2 -1.663867 1 1 1
v -0.8925 0.6 -1.763867 1 1 1
v -0.6783 0.2 -1.663867 1 1 1
v -0.40698 0 -1.463868 1 1 1
v 0.40698 0 -1.463868 1 1 1
v 0.3511187 0.8 -1.706132 1 1 1
v 0.3511187 0.9732051 -1.806132 1 1 1
v 0.3511187 0.9 -1.532927 1 1 1
v 0.3511187 1.073205 -1.632927 1 1 1
v 0.3511187 1.14641 -1.906132 1 1 1
v 0.3511187 1.24641 -1.732927 1 1 1
v -0.3488815 1.14641 -1.906132 1 1 1
v -0.3488815 1.24641 -1.732927 1 1 1
v -0.3488815 1.073205 -1.632927 1 1 1
v -0.3488815 0.9732051 -1.806132 1 1 1
v -0.3488815 0.8 -1.706132 1 1 1
v -0.3488815 0.9 -1.532927 1 1 1
v 0.5511187 0.8 -1.706132 1 1 1
v 0.5511187 0.9 -1.532927 1 1 1
v 0.5511187 0.9732051 -1.806132 1 1 1
v 0.5511187 1.073205 -1.632927 1 1 1
v 0.4925401 1.09568 -1.876843 1 1 1
v 0.4925401 1.19568 -1.703638 1 1 1
v -0.5488815 0.8 -1.706132 1 1 1
v -0.5488815 0.9732051 -1.806132 1 1 1
v -0.5488815 0.9 -1.532927 1 1 1
v -0.5488815 1.073205 -1.632927 1 1 1
v -0.4903028 1.09568 -1.876843 1 1 1
v -0.4903028 1.19568 -1.703638 1 1 1
v 6.171851E-13 0.8 1.795882 1 1 1
v -0.3710192 0.8 1.590525 1 1 1
v 0.3710192 0.8 1.590525 1 1 1
v 0.847875 0.8 0.8340075 1 1 1
v -0.847875 0.8 0.8340075 1 1 1
v 0.847875 0.8 -1.763867 1 1 1
v 0.2411625 0.9 1.109444 1 1 1
v 0.5511187 0.9 0.6177075 1 1 1
v 4.82234E-13 0.9 1.242926 1 1 1
v -0.5511187 0.9 0.6177075 1 1 1
v -0.2411625 0.9 1.109444 1 1 1
v -0.847875 0.8 -1.763867 1 1 1
v 0.5511187 0.9 -1.763867 1 1 1
v -0.5511187 0.9 -1.763867 1 1 1
v 0.647875 0.8 -0.96493 1 1 1
v 0.647875 0.9 -0.86493 1 1 1
v 0.647875 0.8 -0.46493 1 1 1
v 0.647875 0.9 -0.56493 1 1 1
v 0.847875 0.9 -0.56493 1 1 1
v 0.847875 0.9 -0.86493 1 1 1
v 0.847875 0.8 -0.96493 1 1 1
v 0.847875 0.8 -0.46493 1 1 1
v -0.847875 0.8 -0.96493 1 1 1
v -0.847875 0.9 -0.86493 1 1 1
v -0.847875 0.8 -0.46493 1 1 1
v -0.847875 0.9 -0.56493 1 1 1
v -0.647875 0.9 -0.56493 1 1 1
v -0.647875 0.9 -0.86493 1 1 1
v -0.647875 0.8 -0.96493 1 1 1
v -0.647875 0.8 -0.46493 1 1 1
v 0.3306713 1.3 -1.177503 1 1 1
v 0.3306713 1.3 -0.5219162 1 1 1
v -0.3306713 1.3 -1.177503 1 1 1
v -0.3306713 1.3 -0.5219162 1 1 1
v -0.5511187 0.9 -1.377503 1 1 1
v -0.5511187 0.9 0.4780838 1 1 1
v 0.5511187 0.9 -1.377503 1 1 1
v 0.5511187 0.9 0.4780838 1 1 1

vn 0.2619643 -0.9395021 0.2207043
vn 0.1920218 -0.952574 0.2360727
vn 0.5180839 -0.8529251 0.06409276
vn 0.3934299 -0.9055408 0.1587726
vn 2.164373E-13 -0.7977512 0.6029866
vn 0.5323393 -0.697377 0.4798751
vn 0.4407001 -0.7287337 0.5241475
vn 0.7544408 -0.597847 0.2709209
vn 0.8169599 -0.5534499 0.1620794
vn -0.4407001 -0.7287337 0.5241475
vn -0.5323393 -0.697377 0.4798751
vn -0.7544408 -0.597847 0.2709209
vn -0.8169599 -0.5534499 0.1620794
vn 8.956604E-14 -0.9683677 0.2495279
vn -0.3934299 -0.9055408 0.1587726
vn -0.1920218 -0.952574 0.2360727
vn -0.5180839 -0.8529251 0.06409276
vn -0.2619643 -0.9395021 0.2207043
vn 0.8815585 -0.4720746 -3.164284E-13
vn -0.8815585 -0.4720746 3.164284E-13
vn -0.5933529 -0.8049424 2.129793E-13
vn 0.5933529 -0.8049424 -2.129793E-13
vn -3.482249E-13 -0.2425356 -0.9701425
vn -2.538103E-13 -0.7071068 -0.7071068
vn 0 -1 0
vn -1 -6.776264E-21 5.421011E-20
vn 0.1950904 0.8493849 -0.4903927
vn -0.1950904 0.8493849 -0.4903927
vn 0 -0.8660254 0.5000001
vn 1 6.776264E-21 -5.421011E-20
vn 0.9807855 0.1689532 -0.09754518
vn 0.7071069 0.6123724 -0.3535534
vn -0.9807855 0.1689532 -0.09754518
vn -0.7071069 0.6123724 -0.3535534
vn -5.421011E-20 -0.5000001 -0.8660256
vn 5.421011E-20 0.5000001 0.8660256
vn 3.143447E-13 0.4827589 0.8757533
vn -0.6051339 0.401033 0.6877394
vn -0.6617706 0.3845893 0.6435454
vn 0.6051339 0.401033 0.6877394
vn 0.6617706 0.3845893 0.6435454
vn 0.9091833 0.2915056 0.2973385
vn 0.93326 0.2765666 0.2292091
vn -0.9091833 0.2915056 0.2973385
vn -0.93326 0.2765666 0.2292091
vn 0.9760001 0.21777 -3.503275E-13
vn 0.1772926 0.9720045 0.1541899
vn 0.2808217 0.9580277 0.05763825
vn 0.1379751 0.9764712 0.1657312
vn 0.2595052 0.9616719 0.08856864
vn 6.387713E-14 0.9840379 0.1779595
vn -0.2595052 0.9616719 0.08856864
vn -0.2808217 0.9580277 0.05763825
vn -0.1379751 0.9764712 0.1657312
vn -0.1772926 0.9720045 0.1541899
vn -0.9760001 0.21777 3.503275E-13
vn 0.3193336 0.9476424 -1.146223E-13
vn -3.58942E-13 0 -1
vn -0.3193336 0.9476424 1.146223E-13
vn -1 0 0
vn 0 0.9238795 0.3826834
vn 0 0.9238795 -0.3826834
vn 1 0 0
vn 0 0.7071068 0.7071068
vn 0 0.7071068 -0.7071068
vn 0 1 0
vn -0.8758019 0.4826708 0
vn 0 0.4472136 -0.8944272
vn 0.8758019 0.4826708 0
vn 0 0.9284768 0.3713907

vt 0.46875 0.025
vt 0.46875 0.06944445
vt 0.46875 0.1583333
vt 0.46875 0.125
vt 0.46875 0.225
vt 0.46875 0.1957107
vt 0.84375 0.4083334
vt 0.84375 0.4527778
vt 0.84375 0.475
vt 0.84375 0.275
vt 0.71875 0.225
vt 0.71875 0.025
vt 0.09375 0.025
vt 0.09375 0.225

usemtl colormap

f 3/1/3 2/2/2 1/1/1
f 2/2/2 3/1/3 4/2/4
f 2/2/6 6/3/5 5/2/5
f 6/3/5 2/2/6 7/3/7
f 2/2/6 8/3/8 7/3/7
f 8/3/8 2/2/6 4/2/9
f 10/2/11 6/3/5 9/3/10
f 6/3/5 10/2/11 5/2/5
f 11/3/12 10/2/11 9/3/10
f 10/2/11 11/3/12 12/2/13
f 13/1/14 2/2/2 5/2/14
f 2/2/2 13/1/14 1/1/1
f 14/1/17 10/2/16 12/2/15
f 10/2/16 14/1/17 15/1/18
f 15/1/18 5/2/14 10/2/16
f 5/2/14 15/1/18 13/1/14
f 4/2/9 16/3/19 8/3/8
f 16/3/19 4/2/9 17/2/19
f 18/3/20 12/2/13 11/3/12
f 12/2/13 18/3/20 19/2/20
f 20/1/21 12/2/15 19/2/21
f 12/2/15 20/1/21 14/1/17
f 21/1/22 4/2/4 3/1/3
f 4/2/4 21/1/22 17/2/22
f 18/3/23 17/2/23 19/2/23
f 17/2/23 18/3/23 16/3/23
f 17/2/24 20/1/24 19/2/24
f 20/1/24 17/2/24 21/1/24
f 20/1/25 15/1/25 14/1/25
f 15/1/25 20/1/25 21/1/25
f 15/1/25 21/1/25 13/1/25
f 13/1/25 21/1/25 1/1/25
f 1/1/25 21/1/25 3/1/25
f 24/1/26 23/4/26 22/1/26
f 23/4/26 24/1/26 25/4/26
f 28/5/28 27/5/27 26/5/27
f 27/5/27 28/5/28 29/5/28
f 30/4/29 23/4/29 25/4/29
f 23/4/29 30/4/29 31/4/29
f 31/4/30 33/1/30 32/1/30
f 33/1/30 31/4/30 30/4/30
f 36/4/31 35/1/30 34/1/30
f 35/1/30 36/4/31 37/4/31
f 26/5/27 39/6/32 38/6/32
f 39/6/32 26/5/27 27/5/27
f 39/6/32 36/4/31 38/6/32
f 36/4/31 39/6/32 37/4/31
f 42/1/26 41/4/33 40/1/26
f 41/4/33 42/1/26 43/4/33
f 41/4/33 45/6/34 44/6/34
f 45/6/34 41/4/33 43/4/33
f 44/6/34 29/5/28 28/5/28
f 29/5/28 44/6/34 45/6/34
f 41/4/35 32/1/35 40/1/35
f 32/1/35 41/4/35 31/4/35
f 31/4/35 41/4/35 44/6/35
f 31/4/35 44/6/35 23/4/35
f 23/4/35 44/6/35 36/4/35
f 34/1/35 23/4/35 36/4/35
f 23/4/35 34/1/35 22/1/35
f 36/4/35 44/6/35 38/6/35
f 38/6/35 44/6/35 28/5/35
f 38/6/35 28/5/35 26/5/35
f 37/4/36 24/1/36 35/1/36
f 24/1/36 37/4/36 25/4/36
f 25/4/36 37/4/36 39/6/36
f 25/4/36 39/6/36 30/4/36
f 30/4/36 39/6/36 43/4/36
f 42/1/36 30/4/36 43/4/36
f 30/4/36 42/1/36 33/1/36
f 43/4/36 39/6/36 45/6/36
f 45/6/36 39/6/36 27/5/36
f 45/6/36 27/5/36 29/5/36
f 46/8/37 9/7/38 6/7/37
f 9/7/38 46/8/37 47/8/39
f 8/7/42 48/8/41 7/7/40
f 48/8/41 8/7/42 49/8/43
f 47/8/39 11/7/44 9/7/38
f 11/7/44 47/8/39 50/8/45
f 48/8/41 6/7/37 7/7/40
f 6/7/37 48/8/41 46/8/37
f 16/7/46 49/8/43 8/7/42
f 49/8/43 16/7/46 51/8/46
f 48/8/49 53/9/48 52/9/47
f 53/9/48 48/8/49 49/8/50
f 48/8/49 54/9/51 46/8/51
f 54/9/51 48/8/49 52/9/47
f 47/8/54 55/9/53 50/8/52
f 55/9/53 47/8/54 56/9/55
f 46/8/51 56/9/55 47/8/54
f 56/9/55 46/8/51 54/9/51
f 50/8/45 18/7/56 11/7/44
f 18/7/56 50/8/45 57/8/56
f 49/8/50 58/9/57 53/9/48
f 58/9/57 49/8/50 51/8/57
f 57/8/58 16/7/58 18/7/58
f 16/7/58 57/8/58 51/8/58
f 51/8/58 57/8/58 59/9/58
f 51/8/58 59/9/58 58/9/58
f 55/9/53 57/8/59 50/8/52
f 57/8/59 55/9/53 59/9/59
f 62/10/60 61/9/60 60/10/60
f 61/9/60 62/10/60 63/9/60
f 65/9/62 63/9/61 64/9/61
f 63/9/61 65/9/62 61/9/62
f 65/9/63 67/10/63 66/10/63
f 67/10/63 65/9/63 64/9/63
f 63/9/61 67/10/64 64/9/61
f 67/10/64 63/9/61 62/10/64
f 60/10/65 65/9/62 66/10/65
f 65/9/62 60/10/65 61/9/62
f 70/10/60 69/9/60 68/10/60
f 69/9/60 70/10/60 71/9/60
f 73/9/62 71/9/61 72/9/61
f 71/9/61 73/9/62 69/9/62
f 73/9/63 75/10/63 74/10/63
f 75/10/63 73/9/63 72/9/63
f 71/9/61 75/10/64 72/9/61
f 75/10/64 71/9/61 70/10/64
f 68/10/65 73/9/62 74/10/65
f 73/9/62 68/10/65 69/9/62
f 56/11/66 59/11/66 55/11/66
f 59/11/66 56/11/66 58/11/66
f 58/11/66 56/11/66 54/11/66
f 58/11/66 54/11/66 52/11/66
f 58/11/66 52/11/66 53/11/66
f 78/11/66 77/11/66 76/11/66
f 77/11/66 78/11/66 79/11/66
f 81/12/67 78/11/67 80/12/67
f 78/11/67 81/12/67 79/11/67
f 78/11/68 82/12/68 80/12/68
f 82/12/68 78/11/68 76/11/68
f 76/11/69 83/12/69 82/12/69
f 83/12/69 76/11/69 77/11/69
f 77/14/70 81/13/70 83/13/70
f 81/13/70 77/14/70 79/14/70

g boat-speed-g




usemtl colormap

f 3/1/3 2/2/2 1/1/1
f 2/2/2 3/1/3 4/2/4
f 2/2/6 6/3/5 5/2/5
f 6/3/5 2/2/6 7/3/7
f 2/2/6 8/3/8 7/3/7
f 8/3/8 2/2/6 4/2/9
f 10/2/11 6/3/5 9/3/10
f 6/3/5 10/2/11 5/2/5
f 11/3/12 10/2/11 9/3/10
f 10/2/11 11/3/12 12/2/13
f 13/1/14 2/2/2 5/2/14
f 2/2/2 13/1/14 1/1/1
f 14/1/17 10/2/16 12/2/15
f 10/2/16 14/1/17 15/1/18
f 15/1/18 5/2/14 10/2/16
f 5/2/14 15/1/18 13/1/14
f 4/2/9 16/3/19 8/3/8
f 16/3/19 4/2/9 17/2/19
f 18/3/20 12/2/13 11/3/12
f 12/2/13 18/3/20 19/2/20
f 20/1/21 12/2/15 19/2/21
f 12/2/15 20/1/21 14/1/17
f 21/1/22 4/2/4 3/1/3
f 4/2/4 21/1/22 17/2/22
f 18/3/23 17/2/23 19/2/23
f 17/2/23 18/3/23 16/3/23
f 17/2/24 20/1/24 19/2/24
f 20/1/24 17/2/24 21/1/24
f 20/1/25 15/1/25 14/1/25
f 15/1/25 20/1/25 21/1/25
f 15/1/25 21/1/25 13/1/25
f 13/1/25 21/1/25 1/1/25
f 1/1/25 21/1/25 3/1/25
f 24/1/26 23/4/26 22/1/26
f 23/4/26 24/1/26 25/4/26
f 28/5/28 27/5/27 26/5/27
f 27/5/27 28/5/28 29/5/28
f 30/4/29 23/4/29 25/4/29
f 23/4/29 30/4/29 31/4/29
f 31/4/30 33/1/30 32/1/30
f 33/1/30 31/4/30 30/4/30
f 36/4/31 35/1/30 34/1/30
f 35/1/30 36/4/31 37/4/31
f 26/5/27 39/6/32 38/6/32
f 39/6/32 26/5/27 27/5/27
f 39/6/32 36/4/31 38/6/32
f 36/4/31 39/6/32 37/4/31
f 42/1/26 41/4/33 40/1/26
f 41/4/33 42/1/26 43/4/33
f 41/4/33 45/6/34 44/6/34
f 45/6/34 41/4/33 43/4/33
f 44/6/34 29/5/28 28/5/28
f 29/5/28 44/6/34 45/6/34
f 41/4/35 32/1/35 40/1/35
f 32/1/35 41/4/35 31/4/35
f 31/4/35 41/4/35 44/6/35
f 31/4/35 44/6/35 23/4/35
f 23/4/35 44/6/35 36/4/35
f 34/1/35 23/4/35 36/4/35
f 23/4/35 34/1/35 22/1/35
f 36/4/35 44/6/35 38/6/35
f 38/6/35 44/6/35 28/5/35
f 38/6/35 28/5/35 26/5/35
f 37/4/36 24/1/36 35/1/36
f 24/1/36 37/4/36 25/4/36
f 25/4/36 37/4/36 39/6/36
f 25/4/36 39/6/36 30/4/36
f 30/4/36 39/6/36 43/4/36
f 42/1/36 30/4/36 43/4/36
f 30/4/36 42/1/36 33/1/36
f 43/4/36 39/6/36 45/6/36
f 45/6/36 39/6/36 27/5/36
f 45/6/36 27/5/36 29/5/36
f 46/8/37 9/7/38 6/7/37
f 9/7/38 46/8/37 47/8/39
f 8/7/42 48/8/41 7/7/40
f 48/8/41 8/7/42 49/8/43
f 47/8/39 11/7/44 9/7/38
f 11/7/44 47/8/39 50/8/45
f 48/8/41 6/7/37 7/7/40
f 6/7/37 48/8/41 46/8/37
f 16/7/46 49/8/43 8/7/42
f 49/8/43 16/7/46 51/8/46
f 48/8/49 53/9/48 52/9/47
f 53/9/48 48/8/49 49/8/50
f 48/8/49 54/9/51 46/8/51
f 54/9/51 48/8/49 52/9/47
f 47/8/54 55/9/53 50/8/52
f 55/9/53 47/8/54 56/9/55
f 46/8/51 56/9/55 47/8/54
f 56/9/55 46/8/51 54/9/51
f 50/8/45 18/7/56 11/7/44
f 18/7/56 50/8/45 57/8/56
f 49/8/50 58/9/57 53/9/48
f 58/9/57 49/8/50 51/8/57
f 57/8/58 16/7/58 18/7/58
f 16/7/58 57/8/58 51/8/58
f 51/8/58 57/8/58 59/9/58
f 51/8/58 59/9/58 58/9/58
f 55/9/53 57/8/59 50/8/52
f 57/8/59 55/9/53 59/9/59
f 62/10/60 61/9/60 60/10/60
f 61/9/60 62/10/60 63/9/60
f 65/9/62 63/9/61 64/9/61
f 63/9/61 65/9/62 61/9/62
f 65/9/63 67/10/63 66/10/63
f 67/10/63 65/9/63 64/9/63
f 63/9/61 67/10/64 64/9/61
f 67/10/64 63/9/61 62/10/64
f 60/10/65 65/9/62 66/10/65
f 65/9/62 60/10/65 61/9/62
f 70/10/60 69/9/60 68/10/60
f 69/9/60 70/10/60 71/9/60
f 73/9/62 71/9/61 72/9/61
f 71/9/61 73/9/62 69/9/62
f 73/9/63 75/10/63 74/10/63
f 75/10/63 73/9/63 72/9/63
f 71/9/61 75/10/64 72/9/61
f 75/10/64 71/9/61 70/10/64
f 68/10/65 73/9/62 74/10/65
f 73/9/62 68/10/65 69/9/62
f 56/11/66 59/11/66 55/11/66
f 59/11/66 56/11/66 58/11/66
f 58/11/66 56/11/66 54/11/66
f 58/11/66 54/11/66 52/11/66
f 58/11/66 52/11/66 53/11/66
f 78/11/66 77/11/66 76/11/66
f 77/11/66 78/11/66 79/11/66
f 81/12/67 78/11/67 80/12/67
f 78/11/67 81/12/67 79/11/67
f 78/11/68 82/12/68 80/12/68
f 82/12/68 78/11/68 76/11/68
f 76/11/69 83/12/69 82/12/69
f 83/12/69 76/11/69 77/11/69
f 77/14/70 81/13/70 83/13/70
f 81/13/70 77/14/70 79/14/70

