# Created by Kenney (www.kenney.nl)

mtllib boat-row-large.mtl

g boat-row-large

v -0.474 0.64 -0.9460732 1 1 1
v -0.474 0.56 -0.7060733 1 1 1
v -0.714 0.64 -0.9460732 1 1 1
v -0.714 0.56 -0.7060733 1 1 1
v 0.474 0.24 0.5620669 1 1 1
v 0.474 0.4 0.5620669 1 1 1
v -0.474 0.24 0.5620669 1 1 1
v -0.474 0.4 0.5620669 1 1 1
v 0.714 0.64 -0.9460732 1 1 1
v 0.714 0.56 -0.7060733 1 1 1
v 0.474 0.64 -0.9460732 1 1 1
v 0.474 0.56 -0.7060733 1 1 1
v -0.474 0.56 0.3220668 1 1 1
v -0.714 0.56 0.3220668 1 1 1
v 0.714 0.64 0.6245621 1 1 1
v 0.3906 0.64 1.203431 1 1 1
v 0.714 0.64 0.5620669 1 1 1
v 0.474 0.64 0.5620669 1 1 1
v 0.2136806 0.64 1.028025 1 1 1
v 5.760853E-13 0.64 1.426073 1 1 1
v 4.764615E-13 0.64 1.149823 1 1 1
v -0.3906 0.64 1.203431 1 1 1
v -0.2136806 0.64 1.028025 1 1 1
v -0.474 0.64 0.5620669 1 1 1
v -0.714 0.64 0.6245621 1 1 1
v -0.714 0.64 0.5620669 1 1 1
v 0.2136806 0.4 1.028025 1 1 1
v 4.764615E-13 0.4 1.149823 1 1 1
v -0.2136806 0.4 1.028025 1 1 1
v 0.714 0.64 -1.186073 1 1 1
v 0.474 0.64 -1.426073 1 1 1
v 0.474 0.64 -1.186073 1 1 1
v -0.474 0.64 -1.426073 1 1 1
v -0.474 0.64 -1.186073 1 1 1
v -0.714 0.64 -1.186073 1 1 1
v 0.714 0.56 0.3220668 1 1 1
v 0.474 0.56 0.3220668 1 1 1
v 0.474 0.4 -0.8420733 1 1 1
v -0.474 0.4 -0.8420733 1 1 1
v 0.474 0.4 -1.186073 1 1 1
v -0.474 0.4 -1.186073 1 1 1
v 0.474 0.24 -0.8420733 1 1 1
v -0.474 0.24 -0.8420733 1 1 1
v -0.474 0.24 -1.186073 1 1 1
v 0.474 0.24 -1.186073 1 1 1
v 0.474 0.4 0.02592672 1 1 1
v -0.474 0.4 0.02592672 1 1 1
v 0.474 0.4 -0.3180733 1 1 1
v -0.474 0.4 -0.3180733 1 1 1
v 0.474 0.24 0.02592672 1 1 1
v -0.474 0.24 0.02592672 1 1 1
v -0.474 0.24 -0.3180733 1 1 1
v 0.474 0.24 -0.3180733 1 1 1
v 0.474 0.24 -1.186073 1 1 1
v -0.474 0.24 -1.186073 1 1 1
v -0.714 0.32 0.6245621 1 1 1
v -0.714 0.32 -1.186073 1 1 1
v -0.474 0.32 -1.426073 1 1 1
v -0.3906 0.32 1.203431 1 1 1
v 5.760853E-13 0.32 1.426073 1 1 1
v 0.474 0.32 -1.426073 1 1 1
v 0.3906 0.32 1.203431 1 1 1
v 0.714 0.32 -1.186073 1 1 1
v 0.714 0.32 0.6245621 1 1 1
v 0.544 -6.76792E-17 0.3816861 1 1 1
v 0.544 0 -1.130365 1 1 1
v 0.2976 0 0.8227293 1 1 1
v -0.544 0 -1.130365 1 1 1
v 3.5879E-13 0 0.9923613 1 1 1
v -0.2976 0 0.8227293 1 1 1
v -0.544 0 0.3816861 1 1 1

vn 0 0.9486833 0.3162278
vn 0 0.9870875 0.1601822
vn 0 0 -1
vn 0 0.9870875 -0.1601822
vn 0 1 0
vn 0 0.9486833 -0.3162278
vn 0 0 1
vn -1 0 0
vn -0.9598181 0 -0.2806227
vn -0.9858948 0 -0.1673664
vn -0.710137 0 -0.7040635
vn 0.710137 0 -0.7040635
vn 0.9858948 0 -0.1673664
vn 0.9598181 0 -0.2806227
vn 1 0 0
vn -0.9238795 0 -0.3826834
vn -0.9677289 0 0.2519935
vn -0.3826834 0 -0.9238795
vn -0.710137 0 0.7040635
vn 0.3826834 0 -0.9238795
vn 0.9238795 0 -0.3826834
vn 0.710137 0 0.7040635
vn 0.9677289 0 0.2519935
vn 0 -1 0
vn 0.8094154 -0.4871015 -0.3279922
vn 0.6120104 -0.6376897 -0.4677553
vn 0.7622637 -0.5962039 0.2519822
vn 0.236386 -0.6310511 -0.7388479
vn -0.236386 -0.6310511 -0.7388479
vn 0.8253304 -0.5464342 0.142265
vn -0.6120104 -0.6376897 -0.4677553
vn -0.8094154 -0.4871015 -0.3279922
vn 0.5473134 -0.7017112 0.4561244
vn 0.4525258 -0.7340013 0.5064211
vn 0 -0.8046811 0.5937072
vn -0.4525258 -0.7340013 0.5064211
vn -0.5473134 -0.7017112 0.4561244
vn -0.7622637 -0.5962039 0.2519822
vn -0.8253304 -0.5464342 0.142265

vt 0.84375 0.225
vt 0.84375 0.2
vt 0.84375 0.1
vt 0.84375 0.15
vt 0.84375 0.125
vt 0.71875 0.1
vt 0.71875 0.225
vt 0.71875 0.2
vt 0.71875 0.15
vt 0.71875 0.125
vt 0.71875 0.025

usemtl colormap

f 3/1/1 2/2/2 1/1/1
f 2/2/2 3/1/1 4/2/2
f 7/3/3 6/4/3 5/3/3
f 6/4/3 7/3/3 8/4/3
f 11/1/1 10/2/2 9/1/1
f 10/2/2 11/1/1 12/2/2
f 2/2/2 14/2/4 13/2/4
f 14/2/4 2/2/2 4/2/2
f 17/1/5 16/1/5 15/1/5
f 16/1/5 17/1/5 18/1/5
f 16/1/5 18/1/5 19/1/5
f 16/1/5 19/1/5 20/1/5
f 20/1/5 19/1/5 21/1/5
f 20/1/5 21/1/5 22/1/5
f 22/1/5 21/1/5 23/1/5
f 22/1/5 23/1/5 24/1/5
f 22/1/5 24/1/5 25/1/5
f 25/1/5 24/1/5 26/1/5
f 8/4/5 27/4/5 6/4/5
f 27/4/5 8/4/5 28/4/5
f 28/4/5 8/4/5 29/4/5
f 30/1/5 11/1/5 9/1/5
f 11/1/5 30/1/5 31/1/5
f 11/1/5 31/1/5 32/1/5
f 32/1/5 31/1/5 33/1/5
f 32/1/5 33/1/5 34/1/5
f 34/1/5 33/1/5 35/1/5
f 34/1/5 35/1/5 3/1/5
f 3/1/5 1/1/5 34/1/5
f 10/2/2 37/2/4 36/2/4
f 37/2/4 10/2/2 12/2/2
f 13/2/4 26/1/6 24/1/6
f 26/1/6 13/2/4 14/2/4
f 36/2/4 18/1/6 17/1/6
f 18/1/6 36/2/4 37/2/4
f 40/1/5 39/1/5 38/1/5
f 39/1/5 40/1/5 41/1/5
f 38/1/7 43/5/7 42/5/7
f 43/5/7 38/1/7 39/1/7
f 41/1/3 45/5/3 44/5/3
f 45/5/3 41/1/3 40/1/3
f 48/1/5 47/1/5 46/1/5
f 47/1/5 48/1/5 49/1/5
f 46/1/7 51/5/7 50/5/7
f 51/5/7 46/1/7 47/1/7
f 49/1/3 53/5/3 52/5/3
f 53/5/3 49/1/3 48/1/3
f 54/6/5 7/6/5 5/6/5
f 7/6/5 54/6/5 55/6/5
f 5/6/8 32/7/8 54/6/8
f 32/7/8 5/6/8 12/8/8
f 32/7/8 12/8/8 11/7/8
f 12/8/8 5/6/8 37/8/8
f 37/8/8 5/6/8 18/7/9
f 18/7/9 5/6/8 6/9/10
f 27/9/11 18/7/9 6/9/10
f 18/7/9 27/9/11 19/7/11
f 27/9/11 21/7/3 19/7/11
f 21/7/3 27/9/11 28/9/3
f 28/9/3 23/7/12 21/7/3
f 23/7/12 28/9/3 29/9/12
f 8/9/13 23/7/12 29/9/12
f 23/7/12 8/9/13 24/7/14
f 7/6/15 24/7/14 8/9/13
f 7/6/15 13/8/15 24/7/14
f 7/6/15 2/8/15 13/8/15
f 55/6/15 2/8/15 7/6/15
f 55/6/15 1/7/15 2/8/15
f 1/7/15 55/6/15 34/7/15
f 32/7/7 55/6/7 54/6/7
f 55/6/7 32/7/7 34/7/7
f 35/7/16 4/8/8 3/7/8
f 35/7/16 56/10/17 4/8/8
f 4/8/8 56/10/17 14/8/8
f 14/8/8 56/10/17 26/7/8
f 26/7/8 56/10/17 25/7/17
f 56/10/17 35/7/16 57/10/16
f 35/7/16 58/10/18 57/10/16
f 58/10/18 35/7/16 33/7/18
f 59/10/19 25/7/17 56/10/17
f 25/7/17 59/10/19 22/7/19
f 59/10/19 20/7/7 22/7/19
f 20/7/7 59/10/19 60/10/7
f 33/7/18 61/10/20 58/10/18
f 61/10/20 33/7/18 31/7/20
f 30/7/21 61/10/20 31/7/20
f 60/10/7 16/7/22 20/7/7
f 16/7/22 60/10/7 62/10/22
f 61/10/20 30/7/21 63/10/21
f 9/7/15 63/10/21 30/7/21
f 63/10/21 9/7/15 10/8/15
f 64/10/23 16/7/22 62/10/22
f 63/10/21 10/8/15 64/10/23
f 16/7/22 64/10/23 15/7/23
f 64/10/23 10/8/15 36/8/15
f 64/10/23 17/7/15 15/7/23
f 64/10/23 36/8/15 17/7/15
f 67/11/24 66/11/24 65/11/24
f 66/11/24 67/11/24 68/11/24
f 68/11/24 67/11/24 69/11/24
f 68/11/24 69/11/24 70/11/24
f 68/11/24 70/11/24 71/11/24
f 64/10/27 66/11/26 63/10/25
f 66/11/26 61/10/28 63/10/25
f 66/11/26 58/10/29 61/10/28
f 66/11/26 64/10/27 65/11/30
f 58/10/29 66/11/26 68/11/31
f 68/11/31 57/10/32 58/10/29
f 64/10/27 67/11/33 65/11/30
f 67/11/33 64/10/27 62/10/34
f 60/10/35 67/11/33 62/10/34
f 67/11/33 60/10/35 69/11/35
f 59/10/36 69/11/35 60/10/35
f 69/11/35 59/10/36 70/11/37
f 68/11/31 56/10/38 57/10/32
f 56/10/38 70/11/37 59/10/36
f 56/10/38 68/11/31 71/11/39
f 70/11/37 56/10/38 71/11/39

g boat-row-large




usemtl colormap

f 3/1/1 2/2/2 1/1/1
f 2/2/2 3/1/1 4/2/2
f 7/3/3 6/4/3 5/3/3
f 6/4/3 7/3/3 8/4/3
f 11/1/1 10/2/2 9/1/1
f 10/2/2 11/1/1 12/2/2
f 2/2/2 14/2/4 13/2/4
f 14/2/4 2/2/2 4/2/2
f 17/1/5 16/1/5 15/1/5
f 16/1/5 17/1/5 18/1/5
f 16/1/5 18/1/5 19/1/5
f 16/1/5 19/1/5 20/1/5
f 20/1/5 19/1/5 21/1/5
f 20/1/5 21/1/5 22/1/5
f 22/1/5 21/1/5 23/1/5
f 22/1/5 23/1/5 24/1/5
f 22/1/5 24/1/5 25/1/5
f 25/1/5 24/1/5 26/1/5
f 8/4/5 27/4/5 6/4/5
f 27/4/5 8/4/5 28/4/5
f 28/4/5 8/4/5 29/4/5
f 30/1/5 11/1/5 9/1/5
f 11/1/5 30/1/5 31/1/5
f 11/1/5 31/1/5 32/1/5
f 32/1/5 31/1/5 33/1/5
f 32/1/5 33/1/5 34/1/5
f 34/1/5 33/1/5 35/1/5
f 34/1/5 35/1/5 3/1/5
f 3/1/5 1/1/5 34/1/5
f 10/2/2 37/2/4 36/2/4
f 37/2/4 10/2/2 12/2/2
f 13/2/4 26/1/6 24/1/6
f 26/1/6 13/2/4 14/2/4
f 36/2/4 18/1/6 17/1/6
f 18/1/6 36/2/4 37/2/4
f 40/1/5 39/1/5 38/1/5
f 39/1/5 40/1/5 41/1/5
f 38/1/7 43/5/7 42/5/7
f 43/5/7 38/1/7 39/1/7
f 41/1/3 45/5/3 44/5/3
f 45/5/3 41/1/3 40/1/3
f 48/1/5 47/1/5 46/1/5
f 47/1/5 48/1/5 49/1/5
f 46/1/7 51/5/7 50/5/7
f 51/5/7 46/1/7 47/1/7
f 49/1/3 53/5/3 52/5/3
f 53/5/3 49/1/3 48/1/3
f 54/6/5 7/6/5 5/6/5
f 7/6/5 54/6/5 55/6/5
f 5/6/8 32/7/8 54/6/8
f 32/7/8 5/6/8 12/8/8
f 32/7/8 12/8/8 11/7/8
f 12/8/8 5/6/8 37/8/8
f 37/8/8 5/6/8 18/7/9
f 18/7/9 5/6/8 6/9/10
f 27/9/11 18/7/9 6/9/10
f 18/7/9 27/9/11 19/7/11
f 27/9/11 21/7/3 19/7/11
f 21/7/3 27/9/11 28/9/3
f 28/9/3 23/7/12 21/7/3
f 23/7/12 28/9/3 29/9/12
f 8/9/13 23/7/12 29/9/12
f 23/7/12 8/9/13 24/7/14
f 7/6/15 24/7/14 8/9/13
f 7/6/15 13/8/15 24/7/14
f 7/6/15 2/8/15 13/8/15
f 55/6/15 2/8/15 7/6/15
f 55/6/15 1/7/15 2/8/15
f 1/7/15 55/6/15 34/7/15
f 32/7/7 55/6/7 54/6/7
f 55/6/7 32/7/7 34/7/7
f 35/7/16 4/8/8 3/7/8
f 35/7/16 56/10/17 4/8/8
f 4/8/8 56/10/17 14/8/8
f 14/8/8 56/10/17 26/7/8
f 26/7/8 56/10/17 25/7/17
f 56/10/17 35/7/16 57/10/16
f 35/7/16 58/10/18 57/10/16
f 58/10/18 35/7/16 33/7/18
f 59/10/19 25/7/17 56/10/17
f 25/7/17 59/10/19 22/7/19
f 59/10/19 20/7/7 22/7/19
f 20/7/7 59/10/19 60/10/7
f 33/7/18 61/10/20 58/10/18
f 61/10/20 33/7/18 31/7/20
f 30/7/21 61/10/20 31/7/20
f 60/10/7 16/7/22 20/7/7
f 16/7/22 60/10/7 62/10/22
f 61/10/20 30/7/21 63/10/21
f 9/7/15 63/10/21 30/7/21
f 63/10/21 9/7/15 10/8/15
f 64/10/23 16/7/22 62/10/22
f 63/10/21 10/8/15 64/10/23
f 16/7/22 64/10/23 15/7/23
f 64/10/23 10/8/15 36/8/15
f 64/10/23 17/7/15 15/7/23
f 64/10/23 36/8/15 17/7/15
f 67/11/24 66/11/24 65/11/24
f 66/11/24 67/11/24 68/11/24
f 68/11/24 67/11/24 69/11/24
f 68/11/24 69/11/24 70/11/24
f 68/11/24 70/11/24 71/11/24
f 64/10/27 66/11/26 63/10/25
f 66/11/26 61/10/28 63/10/25
f 66/11/26 58/10/29 61/10/28
f 66/11/26 64/10/27 65/11/30
f 58/10/29 66/11/26 68/11/31
f 68/11/31 57/10/32 58/10/29
f 64/10/27 67/11/33 65/11/30
f 67/11/33 64/10/27 62/10/34
f 60/10/35 67/11/33 62/10/34
f 67/11/33 60/10/35 69/11/35
f 59/10/36 69/11/35 60/10/35
f 69/11/35 59/10/36 70/11/37
f 68/11/31 56/10/38 57/10/32
f 56/10/38 70/11/37 59/10/36
f 56/10/38 68/11/31 71/11/39
f 70/11/37 56/10/38 71/11/39

g paddles

v -1.147995 0.3951472 -0.4953914 1 1 1
v -1.147995 0.3951472 -0.3353915 1 1 1
v -1.204563 0.3385786 -0.5665914 1 1 1
v -1.204563 0.3385786 -0.2641914 1 1 1
v -1.374269 0.168873 -0.5665914 1 1 1
v -1.374269 0.168873 -0.2641914 1 1 1
v -1.091426 0.2254416 -0.5665914 1 1 1
v -1.034858 0.2820101 -0.4953914 1 1 1
v -1.261132 0.05573593 -0.5665914 1 1 1
v -1.091426 0.2254416 -0.2641914 1 1 1
v -1.034858 0.2820101 -0.3353915 1 1 1
v -0.5823094 0.8476955 -0.4953914 1 1 1
v -0.5257408 0.791127 -0.4953914 1 1 1
v -0.5823094 0.8476955 -0.3353915 1 1 1
v -0.5257408 0.791127 -0.3353915 1 1 1
v -1.261132 0.05573593 -0.2641914 1 1 1
v 1.147995 0.3951472 -0.4953914 1 1 1
v 1.147995 0.3951472 -0.3353915 1 1 1
v 0.5823094 0.8476955 -0.4953914 1 1 1
v 0.5823094 0.8476955 -0.3353915 1 1 1
v 0.5257408 0.791127 -0.4953914 1 1 1
v 0.5257408 0.791127 -0.3353915 1 1 1
v 1.261132 0.05573593 -0.5665914 1 1 1
v 1.374269 0.168873 -0.5665914 1 1 1
v 1.091426 0.2254416 -0.5665914 1 1 1
v 1.204563 0.3385786 -0.5665914 1 1 1
v 1.374269 0.168873 -0.2641914 1 1 1
v 1.204563 0.3385786 -0.2641914 1 1 1
v 1.261132 0.05573593 -0.2641914 1 1 1
v 1.091426 0.2254416 -0.2641914 1 1 1
v 1.034858 0.2820101 -0.3353915 1 1 1
v 1.034858 0.2820101 -0.4953914 1 1 1

vn -0.6746426 0.7381445 0
vn -0.7071068 0.7071068 0
vn 0.251497 0.251497 -0.9346114
vn 0.2606539 0.2606539 -0.9295801
vn 0.251497 0.251497 0.9346114
vn 0.2606539 0.2606539 0.9295801
vn 0.7071068 0.7071068 0
vn -0.6246951 0.7808689 0
vn -0.7071068 -0.7071068 0
vn 0.7071068 -0.7071068 0
vn 0.6746426 0.7381445 0
vn 0.6246951 0.7808689 0
vn -0.251497 0.251497 -0.9346114
vn -0.251497 0.251497 0.9346114
vn -0.2606539 0.2606539 0.9295801
vn -0.2606539 0.2606539 -0.9295801

vt 0.84375 0.1107143
vt 0.84375 0.09642857
vt 0.84375 0.05357143
vt 0.84375 0.06785714
vt 0.84375 0.08214286
vt 0.84375 0.025
vt 0.84375 0.2107143

usemtl colormap

f 74/13/41 73/12/40 72/12/40
f 73/12/40 74/13/41 75/13/41
f 75/13/41 74/13/41 76/14/41
f 75/13/41 76/14/41 77/14/41
f 74/13/42 79/16/42 78/15/42
f 79/16/42 74/13/42 72/12/43
f 76/14/3 78/15/42 80/17/3
f 78/15/42 76/14/3 74/13/42
f 82/16/44 75/13/44 81/15/44
f 75/13/44 82/16/44 73/12/45
f 85/1/46 84/18/46 83/1/46
f 84/18/46 85/1/46 86/18/46
f 72/12/40 85/1/47 83/1/47
f 85/1/47 72/12/40 73/12/40
f 87/17/48 76/14/48 80/17/48
f 76/14/48 87/17/48 77/14/48
f 81/15/44 77/14/7 87/17/7
f 77/14/7 81/15/44 75/13/44
f 72/12/43 84/18/3 79/16/42
f 84/18/3 72/12/43 83/1/3
f 86/18/7 73/12/45 82/16/44
f 73/12/45 86/18/7 85/1/7
f 82/16/49 84/18/49 86/18/49
f 84/18/49 82/16/49 79/16/49
f 79/16/49 82/16/49 81/15/49
f 79/16/49 81/15/49 78/15/49
f 78/15/49 81/15/49 87/17/49
f 78/15/49 87/17/49 80/17/49
f 90/1/51 89/12/50 88/12/50
f 89/12/50 90/1/51 91/1/51
f 93/18/41 90/1/41 92/18/41
f 90/1/41 93/18/41 91/1/41
f 96/15/52 95/14/3 94/17/3
f 95/14/3 96/15/52 97/13/52
f 97/13/46 98/14/46 95/14/46
f 98/14/46 97/13/46 99/13/46
f 99/13/46 97/13/46 88/12/50
f 99/13/46 88/12/50 89/12/50
f 101/15/48 94/17/48 100/17/48
f 94/17/48 101/15/48 96/15/48
f 96/15/48 101/15/48 102/16/48
f 96/15/48 102/16/48 103/16/48
f 103/16/48 102/16/48 93/18/48
f 103/16/48 93/18/48 92/18/48
f 99/13/53 102/16/53 101/15/53
f 102/16/53 99/13/53 89/12/54
f 103/16/52 97/13/52 96/15/52
f 97/13/52 103/16/52 88/12/55
f 92/18/3 88/12/55 103/16/52
f 88/12/55 92/18/3 90/1/3
f 89/12/54 93/18/7 102/16/53
f 93/18/7 89/12/54 91/1/7
f 98/14/7 101/15/53 100/17/7
f 101/15/53 98/14/7 99/13/53
f 98/14/49 94/17/49 95/14/49
f 94/17/49 98/14/49 100/17/49

