# Created by Kenney (www.kenney.nl)

mtllib boat-speed-a.mtl

g boat-speed-a

v 1.283277E-13 0 0.37964 1 1 1
v 4.170309E-13 0.2 1.1558 1 1 1
v 0.1780892 0 0.2810682 1 1 1
v 0.2968153 0.2 0.9915137 1 1 1
v -0.6783 0.2 0.3863 1 1 1
v -0.2968153 0.2 0.9915137 1 1 1
v -0.40698 0 -0.08205999 1 1 1
v -0.1780892 0 0.2810682 1 1 1
v 0.5511187 0.9 -1.235 1 1 1
v 0.4011188 0.9 -1.235 1 1 1
v 0.5511187 1.5 -1.435 1 1 1
v 0.4011188 1.35 -1.385 1 1 1
v -0.4011188 1.35 -1.385 1 1 1
v -0.5511187 1.5 -1.435 1 1 1
v -0.5511187 0.9 -1.235 1 1 1
v -0.4011188 0.9 -1.235 1 1 1
v 0.5511187 0.9 -1.485 1 1 1
v 0.5511187 1.5 -1.685 1 1 1
v -0.3905465 0.6 1.468834 1 1 1
v -0.8925 0.6 0.6725 1 1 1
v -0.4011188 0.9 -1.485 1 1 1
v -0.4011188 1.35 -1.635 1 1 1
v 6.012078E-13 0.6 1.685 1 1 1
v 0.40698 0 -0.08205999 1 1 1
v 0.6783 0.2 0.3863 1 1 1
v -0.5511187 0.9 -1.485 1 1 1
v -0.5511187 1.5 -1.685 1 1 1
v 0.4011188 1.35 -1.635 1 1 1
v 0.4011188 0.9 -1.485 1 1 1
v 0.40698 0 -1.285 1 1 1
v 0.6783 0.2 -1.381409 1 1 1
v -0.40698 0 -1.285 1 1 1
v -0.6783 0.2 -1.381409 1 1 1
v 0.3905465 0.6 1.468834 1 1 1
v -0.8925 0.6 -1.485 1 1 1
v 0.8925 0.6 -1.485 1 1 1
v 0.8925 0.6 0.6725 1 1 1
v -0.5511187 0.9 0.396575 1 1 1
v -0.5511187 0.9 -0.8330075 1 1 1
v -0.413339 1.199503 0.1770305 1 1 1
v -0.413339 1.199503 -0.5830075 1 1 1
v 0.5511187 0.9 0.396575 1 1 1
v 0.413339 1.199503 0.1770305 1 1 1
v 0.5511187 0.9 -0.8330075 1 1 1
v 0.413339 1.199503 -0.5830075 1 1 1
v -0.2 1.249503 -0.002988487 1 1 1
v -0.2 1.199503 -0.002988487 1 1 1
v -0.2 1.299503 -0.4029885 1 1 1
v -0.2 1.199503 -0.4029885 1 1 1
v 0.2 1.199503 -0.002988487 1 1 1
v 0.2 1.249503 -0.002988487 1 1 1
v 0.2 1.199503 -0.4029885 1 1 1
v 0.2 1.299503 -0.4029885 1 1 1
v 0.3710192 0.8 1.369392 1 1 1
v 0.847875 0.8 0.612875 1 1 1
v 5.710193E-13 0.8 1.57475 1 1 1
v 0.2411625 0.9 0.8883111 1 1 1
v -0.847875 0.8 -1.485 1 1 1
v -0.847875 0.8 0.612875 1 1 1
v 0.847875 0.8 -1.485 1 1 1
v -0.3710192 0.8 1.369392 1 1 1
v 3.754277E-13 0.9 1.021794 1 1 1
v -0.2411625 0.9 0.8883111 1 1 1
v 0.647875 0.8 0.112875 1 1 1
v 0.647875 0.9 0.212875 1 1 1
v 0.647875 0.8 0.612875 1 1 1
v 0.647875 0.9 0.512875 1 1 1
v 0.847875 0.9 0.212875 1 1 1
v 0.847875 0.9 0.512875 1 1 1
v 0.847875 0.8 0.112875 1 1 1
v -0.847875 0.8 0.112875 1 1 1
v -0.847875 0.9 0.212875 1 1 1
v -0.847875 0.9 0.512875 1 1 1
v -0.647875 0.9 0.212875 1 1 1
v -0.647875 0.9 0.512875 1 1 1
v -0.647875 0.8 0.112875 1 1 1
v -0.647875 0.8 0.612875 1 1 1
v -0.3 0.9 -1.033007 1 1 1
v -0.3 1.1 -0.9330075 1 1 1
v -0.3 0.9 -0.5330074 1 1 1
v -0.3 1.1 -0.6330074 1 1 1
v 0.3 1.1 -0.9330075 1 1 1
v 0.3 1.1 -0.6330074 1 1 1
v 0.3 0.9 -1.033007 1 1 1
v 0.3 0.9 -0.5330074 1 1 1
v 0.1808718 1.199503 0.5458325 1 1 1
v 0.5511187 0.9 0.396575 1 1 1
v 0.413339 1.199503 0.1770304 1 1 1
v -0.1808718 1.199503 0.5458325 1 1 1
v 3.757886E-13 0.9 1.021794 1 1 1
v 2.275252E-13 1.199503 0.6459445 1 1 1
v -0.5511187 0.9 0.396575 1 1 1
v -0.413339 1.199503 0.1770304 1 1 1

vn 8.956604E-14 -0.9683677 0.2495279
vn 0.2619643 -0.9395021 0.2207043
vn 0.1920218 -0.952574 0.2360727
vn -0.3934299 -0.9055408 0.1587726
vn -0.1920218 -0.952574 0.2360727
vn -0.5180839 -0.8529251 0.06409276
vn -0.2619643 -0.9395021 0.2207043
vn 3.405223E-13 0.3162278 0.9486833
vn 1 0 -3.58942E-13
vn 0.7694848 0.6386652 -2.762004E-13
vn 0.6223858 0.7827106 -2.234004E-13
vn -0.4407001 -0.7287337 0.5241475
vn -0.5323393 -0.697377 0.4798751
vn -0.7544408 -0.597847 0.2709209
vn -0.8169599 -0.5534499 0.1620794
vn 2.164373E-13 -0.7977512 0.6029866
vn 0.5180839 -0.8529251 0.06409276
vn 0.3934299 -0.9055408 0.1587726
vn -3.405223E-13 -0.3162278 -0.9486833
vn -1 0 3.58942E-13
vn -0.7694848 0.6386652 2.762004E-13
vn -0.6223858 0.7827106 2.234004E-13
vn 0.5933529 -0.8049424 -2.129793E-13
vn -3.233361E-13 -0.4342277 -0.9008032
vn -0.5933529 -0.8049424 2.129793E-13
vn 0.4407001 -0.7287337 0.5241475
vn 0.5323393 -0.697377 0.4798751
vn 0 -1 0
vn -3.474785E-13 -0.2507066 -0.9680631
vn 0.7544408 -0.597847 0.2709209
vn 0.8169599 -0.5534499 0.1620794
vn -0.9084806 0.4179268 3.260919E-13
vn -0.8815585 -0.4720746 3.164284E-13
vn 0.8815585 -0.4720746 -3.164284E-13
vn 0.9084806 0.4179268 -3.260919E-13
vn -2.755593E-13 0.6408112 -0.7676985
vn 0 1 0
vn 3.58942E-13 0 1
vn 2.69091E-13 0.6618025 0.7496782
vn -3.58942E-13 0 -1
vn 4.452128E-14 0.9922779 0.1240347
vn 0.6051339 0.401033 0.6877394
vn 0.6617706 0.3845893 0.6435454
vn 0.9091833 0.2915056 0.2973385
vn 0.93326 0.2765666 0.2292091
vn 3.143447E-13 0.4827589 0.8757533
vn 0.1772926 0.9720045 0.1541899
vn 0.2808217 0.9580277 0.05763825
vn 0.1379751 0.9764712 0.1657312
vn 0.2595052 0.9616719 0.08856864
vn -0.3193336 0.9476424 1.146223E-13
vn -0.2595052 0.9616719 0.08856864
vn -0.2808217 0.9580277 0.05763825
vn 0.3193336 0.9476424 -1.146223E-13
vn -0.6051339 0.401033 0.6877394
vn -0.6617706 0.3845893 0.6435454
vn -0.9091833 0.2915056 0.2973385
vn -0.93326 0.2765666 0.2292091
vn -0.9760001 0.21777 3.503275E-13
vn 6.387713E-14 0.9840379 0.1779595
vn -0.1379751 0.9764712 0.1657312
vn -0.1772926 0.9720045 0.1541899
vn 0.9760001 0.21777 -3.503275E-13
vn -1 0 0
vn 0 0.9238795 -0.3826834
vn 0 0.9238795 0.3826834
vn 1 0 0
vn 0 0.7071068 0.7071068
vn 0 0.7071068 -0.7071068
vn 0 0.8506508 -0.5257311
vn 0 0.8506508 0.5257311
vn 0 0.4472136 0.8944272
vn 0 0.4472136 -0.8944272
vn 0.4533432 0.7089819 0.5402079
vn 0.5482756 0.6749784 0.4937592
vn 0.6670303 0.6150551 0.4204496
vn -0.4533432 0.7089819 0.5402079
vn -0.5482756 0.6749784 0.4937592
vn 2.23693E-13 0.7820618 0.6232009
vn -0.6670303 0.6150551 0.4204496

vt 0.46875 0.025
vt 0.46875 0.05166667
vt 0.46875 0.145
vt 0.46875 0.225
vt 0.46875 0.205
vt 0.46875 0.105
vt 0.46875 0.1849337
vt 0.46875 0.125
vt 0.84375 0.355
vt 0.84375 0.3816667
vt 0.84375 0.395
vt 0.71875 0.025
vt 0.71875 0.225
vt 0.09375 0.025
vt 0.09375 0.225

usemtl colormap

f 3/1/2 2/2/1 1/1/1
f 2/2/1 3/1/2 4/2/3
f 7/1/6 6/2/5 5/2/4
f 6/2/5 7/1/6 8/1/7
f 8/1/7 2/2/1 6/2/5
f 2/2/1 8/1/7 1/1/1
f 11/4/8 10/3/8 9/3/8
f 10/3/8 11/4/8 12/5/8
f 12/5/8 11/4/8 13/5/8
f 14/4/8 13/5/8 11/4/8
f 15/3/8 13/5/8 14/4/8
f 13/5/8 15/3/8 16/3/8
f 17/3/9 11/4/10 9/3/9
f 11/4/10 17/3/9 18/4/11
f 20/6/14 6/2/13 19/6/12
f 6/2/13 20/6/14 5/2/15
f 21/3/9 13/5/9 16/3/9
f 13/5/9 21/3/9 22/5/9
f 6/2/13 23/6/16 19/6/12
f 23/6/16 6/2/13 2/2/16
f 24/1/17 4/2/3 3/1/2
f 4/2/3 24/1/17 25/2/18
f 27/4/19 21/3/19 26/3/19
f 21/3/19 27/4/19 22/5/19
f 22/5/19 27/4/19 28/5/19
f 18/4/19 28/5/19 27/4/19
f 17/3/19 28/5/19 18/4/19
f 28/5/19 17/3/19 29/3/19
f 14/4/21 26/3/20 15/3/20
f 26/3/20 14/4/21 27/4/22
f 31/2/23 24/1/17 30/1/23
f 24/1/17 31/2/23 25/2/18
f 12/5/20 29/3/20 10/3/20
f 29/3/20 12/5/20 28/5/20
f 33/2/24 30/1/24 32/1/24
f 30/1/24 33/2/24 31/2/24
f 32/1/25 5/2/4 33/2/25
f 5/2/4 32/1/25 7/1/6
f 2/2/16 34/6/26 23/6/16
f 34/6/26 2/2/16 4/2/27
f 30/1/28 7/1/28 32/1/28
f 7/1/28 30/1/28 8/1/28
f 8/1/28 30/1/28 1/1/28
f 1/1/28 30/1/28 3/1/28
f 3/1/28 30/1/28 24/1/28
f 28/5/28 13/5/28 22/5/28
f 13/5/28 28/5/28 12/5/28
f 35/6/29 31/2/29 33/2/29
f 31/2/29 35/6/29 36/6/29
f 4/2/27 37/6/30 34/6/26
f 37/6/30 4/2/27 25/2/31
f 40/7/32 39/3/32 38/3/32
f 39/3/32 40/7/32 41/7/32
f 35/6/33 5/2/15 20/6/14
f 5/2/15 35/6/33 33/2/33
f 11/4/10 27/4/22 14/4/21
f 27/4/22 11/4/10 18/4/11
f 25/2/31 36/6/34 37/6/30
f 36/6/34 25/2/31 31/2/34
f 44/3/35 43/7/35 42/3/35
f 43/7/35 44/3/35 45/7/35
f 41/7/36 44/3/36 39/3/36
f 44/3/36 41/7/36 45/7/36
f 40/7/37 45/7/37 41/7/37
f 45/7/37 40/7/37 43/7/37
f 48/4/20 47/1/20 46/8/20
f 47/1/20 48/4/20 49/1/20
f 51/8/39 47/1/38 50/1/38
f 47/1/38 51/8/39 46/8/39
f 52/1/9 51/8/9 50/1/9
f 51/8/9 52/1/9 53/4/9
f 48/4/40 52/1/40 49/1/40
f 52/1/40 48/4/40 53/4/40
f 46/8/39 53/4/41 48/4/41
f 53/4/41 46/8/39 51/8/39
f 37/9/44 54/10/43 34/9/42
f 54/10/43 37/9/44 55/10/45
f 54/10/43 23/9/46 34/9/42
f 23/9/46 54/10/43 56/10/46
f 54/10/49 42/11/48 57/11/47
f 42/11/48 54/10/49 55/10/50
f 59/10/52 26/11/51 58/10/51
f 26/11/51 59/10/52 38/11/53
f 26/11/51 38/11/53 39/11/51
f 26/11/51 39/11/51 15/11/51
f 55/10/50 44/11/54 42/11/48
f 44/11/54 55/10/50 9/11/54
f 9/11/54 55/10/50 60/10/54
f 60/10/54 17/11/54 9/11/54
f 56/10/46 19/9/55 23/9/46
f 19/9/55 56/10/46 61/10/56
f 61/10/56 20/9/57 19/9/55
f 20/9/57 61/10/56 59/10/58
f 59/10/58 35/9/59 20/9/57
f 35/9/59 59/10/58 58/10/59
f 54/10/49 62/11/60 56/10/60
f 62/11/60 54/10/49 57/11/47
f 44/11/37 15/11/37 39/11/37
f 15/11/37 44/11/37 16/11/37
f 16/11/37 44/11/37 10/11/37
f 10/11/37 44/11/37 9/11/37
f 16/11/37 10/11/37 29/11/37
f 29/11/37 21/11/37 16/11/37
f 58/10/40 36/9/40 35/9/40
f 36/9/40 58/10/40 60/10/40
f 60/10/40 58/10/40 26/11/40
f 60/10/40 26/11/40 17/11/40
f 17/11/40 26/11/40 21/11/40
f 17/11/40 21/11/40 29/11/40
f 56/10/60 63/11/62 61/10/61
f 63/11/62 56/10/60 62/11/60
f 61/10/61 38/11/53 59/10/52
f 38/11/53 61/10/61 63/11/62
f 36/9/63 55/10/45 37/9/44
f 55/10/45 36/9/63 60/10/63
f 66/12/64 65/13/64 64/12/64
f 65/13/64 66/12/64 67/13/64
f 65/13/65 69/13/66 68/13/65
f 69/13/66 65/13/65 67/13/66
f 68/13/67 55/12/67 70/12/67
f 55/12/67 68/13/67 69/13/67
f 67/13/66 55/12/68 69/13/66
f 55/12/68 67/13/66 66/12/68
f 64/12/69 68/13/65 70/12/69
f 68/13/65 64/12/69 65/13/65
f 59/12/64 72/13/64 71/12/64
f 72/13/64 59/12/64 73/13/64
f 72/13/65 75/13/66 74/13/65
f 75/13/66 72/13/65 73/13/66
f 74/13/67 77/12/67 76/12/67
f 77/12/67 74/13/67 75/13/67
f 73/13/66 77/12/68 75/13/66
f 77/12/68 73/13/66 59/12/68
f 71/12/69 74/13/65 76/12/69
f 74/13/65 71/12/69 72/13/65
f 80/12/64 79/13/64 78/12/64
f 79/13/64 80/12/64 81/13/64
f 79/13/70 83/13/71 82/13/70
f 83/13/71 79/13/70 81/13/71
f 82/13/67 85/12/67 84/12/67
f 85/12/67 82/13/67 83/13/67
f 83/13/71 80/12/72 85/12/72
f 80/12/72 83/13/71 81/13/71
f 79/13/70 84/12/73 78/12/73
f 84/12/73 79/13/70 82/13/70
f 87/14/76 86/15/75 57/14/74
f 86/15/75 87/14/76 88/15/76
f 90/14/79 89/15/78 63/14/77
f 89/15/78 90/14/79 91/15/79
f 89/15/78 92/14/80 63/14/77
f 92/14/80 89/15/78 93/15/80
f 89/15/37 88/15/37 93/15/37
f 88/15/37 89/15/37 91/15/37
f 88/15/37 91/15/37 86/15/37
f 90/14/79 86/15/75 91/15/79
f 86/15/75 90/14/79 57/14/74

g boat-speed-a




usemtl colormap

f 3/1/2 2/2/1 1/1/1
f 2/2/1 3/1/2 4/2/3
f 7/1/6 6/2/5 5/2/4
f 6/2/5 7/1/6 8/1/7
f 8/1/7 2/2/1 6/2/5
f 2/2/1 8/1/7 1/1/1
f 11/4/8 10/3/8 9/3/8
f 10/3/8 11/4/8 12/5/8
f 12/5/8 11/4/8 13/5/8
f 14/4/8 13/5/8 11/4/8
f 15/3/8 13/5/8 14/4/8
f 13/5/8 15/3/8 16/3/8
f 17/3/9 11/4/10 9/3/9
f 11/4/10 17/3/9 18/4/11
f 20/6/14 6/2/13 19/6/12
f 6/2/13 20/6/14 5/2/15
f 21/3/9 13/5/9 16/3/9
f 13/5/9 21/3/9 22/5/9
f 6/2/13 23/6/16 19/6/12
f 23/6/16 6/2/13 2/2/16
f 24/1/17 4/2/3 3/1/2
f 4/2/3 24/1/17 25/2/18
f 27/4/19 21/3/19 26/3/19
f 21/3/19 27/4/19 22/5/19
f 22/5/19 27/4/19 28/5/19
f 18/4/19 28/5/19 27/4/19
f 17/3/19 28/5/19 18/4/19
f 28/5/19 17/3/19 29/3/19
f 14/4/21 26/3/20 15/3/20
f 26/3/20 14/4/21 27/4/22
f 31/2/23 24/1/17 30/1/23
f 24/1/17 31/2/23 25/2/18
f 12/5/20 29/3/20 10/3/20
f 29/3/20 12/5/20 28/5/20
f 33/2/24 30/1/24 32/1/24
f 30/1/24 33/2/24 31/2/24
f 32/1/25 5/2/4 33/2/25
f 5/2/4 32/1/25 7/1/6
f 2/2/16 34/6/26 23/6/16
f 34/6/26 2/2/16 4/2/27
f 30/1/28 7/1/28 32/1/28
f 7/1/28 30/1/28 8/1/28
f 8/1/28 30/1/28 1/1/28
f 1/1/28 30/1/28 3/1/28
f 3/1/28 30/1/28 24/1/28
f 28/5/28 13/5/28 22/5/28
f 13/5/28 28/5/28 12/5/28
f 35/6/29 31/2/29 33/2/29
f 31/2/29 35/6/29 36/6/29
f 4/2/27 37/6/30 34/6/26
f 37/6/30 4/2/27 25/2/31
f 40/7/32 39/3/32 38/3/32
f 39/3/32 40/7/32 41/7/32
f 35/6/33 5/2/15 20/6/14
f 5/2/15 35/6/33 33/2/33
f 11/4/10 27/4/22 14/4/21
f 27/4/22 11/4/10 18/4/11
f 25/2/31 36/6/34 37/6/30
f 36/6/34 25/2/31 31/2/34
f 44/3/35 43/7/35 42/3/35
f 43/7/35 44/3/35 45/7/35
f 41/7/36 44/3/36 39/3/36
f 44/3/36 41/7/36 45/7/36
f 40/7/37 45/7/37 41/7/37
f 45/7/37 40/7/37 43/7/37
f 48/4/20 47/1/20 46/8/20
f 47/1/20 48/4/20 49/1/20
f 51/8/39 47/1/38 50/1/38
f 47/1/38 51/8/39 46/8/39
f 52/1/9 51/8/9 50/1/9
f 51/8/9 52/1/9 53/4/9
f 48/4/40 52/1/40 49/1/40
f 52/1/40 48/4/40 53/4/40
f 46/8/39 53/4/41 48/4/41
f 53/4/41 46/8/39 51/8/39
f 37/9/44 54/10/43 34/9/42
f 54/10/43 37/9/44 55/10/45
f 54/10/43 23/9/46 34/9/42
f 23/9/46 54/10/43 56/10/46
f 54/10/49 42/11/48 57/11/47
f 42/11/48 54/10/49 55/10/50
f 59/10/52 26/11/51 58/10/51
f 26/11/51 59/10/52 38/11/53
f 26/11/51 38/11/53 39/11/51
f 26/11/51 39/11/51 15/11/51
f 55/10/50 44/11/54 42/11/48
f 44/11/54 55/10/50 9/11/54
f 9/11/54 55/10/50 60/10/54
f 60/10/54 17/11/54 9/11/54
f 56/10/46 19/9/55 23/9/46
f 19/9/55 56/10/46 61/10/56
f 61/10/56 20/9/57 19/9/55
f 20/9/57 61/10/56 59/10/58
f 59/10/58 35/9/59 20/9/57
f 35/9/59 59/10/58 58/10/59
f 54/10/49 62/11/60 56/10/60
f 62/11/60 54/10/49 57/11/47
f 44/11/37 15/11/37 39/11/37
f 15/11/37 44/11/37 16/11/37
f 16/11/37 44/11/37 10/11/37
f 10/11/37 44/11/37 9/11/37
f 16/11/37 10/11/37 29/11/37
f 29/11/37 21/11/37 16/11/37
f 58/10/40 36/9/40 35/9/40
f 36/9/40 58/10/40 60/10/40
f 60/10/40 58/10/40 26/11/40
f 60/10/40 26/11/40 17/11/40
f 17/11/40 26/11/40 21/11/40
f 17/11/40 21/11/40 29/11/40
f 56/10/60 63/11/62 61/10/61
f 63/11/62 56/10/60 62/11/60
f 61/10/61 38/11/53 59/10/52
f 38/11/53 61/10/61 63/11/62
f 36/9/63 55/10/45 37/9/44
f 55/10/45 36/9/63 60/10/63
f 66/12/64 65/13/64 64/12/64
f 65/13/64 66/12/64 67/13/64
f 65/13/65 69/13/66 68/13/65
f 69/13/66 65/13/65 67/13/66
f 68/13/67 55/12/67 70/12/67
f 55/12/67 68/13/67 69/13/67
f 67/13/66 55/12/68 69/13/66
f 55/12/68 67/13/66 66/12/68
f 64/12/69 68/13/65 70/12/69
f 68/13/65 64/12/69 65/13/65
f 59/12/64 72/13/64 71/12/64
f 72/13/64 59/12/64 73/13/64
f 72/13/65 75/13/66 74/13/65
f 75/13/66 72/13/65 73/13/66
f 74/13/67 77/12/67 76/12/67
f 77/12/67 74/13/67 75/13/67
f 73/13/66 77/12/68 75/13/66
f 77/12/68 73/13/66 59/12/68
f 71/12/69 74/13/65 76/12/69
f 74/13/65 71/12/69 72/13/65
f 80/12/64 79/13/64 78/12/64
f 79/13/64 80/12/64 81/13/64
f 79/13/70 83/13/71 82/13/70
f 83/13/71 79/13/70 81/13/71
f 82/13/67 85/12/67 84/12/67
f 85/12/67 82/13/67 83/13/67
f 83/13/71 80/12/72 85/12/72
f 80/12/72 83/13/71 81/13/71
f 79/13/70 84/12/73 78/12/73
f 84/12/73 79/13/70 82/13/70
f 87/14/76 86/15/75 57/14/74
f 86/15/75 87/14/76 88/15/76
f 90/14/79 89/15/78 63/14/77
f 89/15/78 90/14/79 91/15/79
f 89/15/78 92/14/80 63/14/77
f 92/14/80 89/15/78 93/15/80
f 89/15/37 88/15/37 93/15/37
f 88/15/37 89/15/37 91/15/37
f 88/15/37 91/15/37 86/15/37
f 90/14/79 86/15/75 91/15/79
f 86/15/75 90/14/79 57/14/74

