# Created by Kenney (www.kenney.nl)

mtllib boat-speed-d.mtl

g boat-speed-d

v -0.408 8.915822E-17 -1.735 1 1 1
v 0.408 8.915822E-17 -1.735 1 1 1
v -0.68 0.3 -1.935 1 1 1
v 0.68 0.3 -1.935 1 1 1
v 0.4925 0.5 -1.535 1 1 1
v -0.4925 0.5 -1.535 1 1 1
v 0.4925 0.8 -1.535 1 1 1
v -0.4925 0.8 -1.535 1 1 1
v -0.372 0.3 1.485 1 1 1
v -0.68 0.3 1.225 1 1 1
v -0.48825 0.7 1.80375 1 1 1
v -0.8925 0.7 1.4625 1 1 1
v 0.372 0.3 1.485 1 1 1
v 0.2232 9.023893E-17 1.021 1 1 1
v 7.247991E-13 0.3 1.585 1 1 1
v 5.45765E-13 9.023893E-17 1.081 1 1 1
v -0.2232 9.023893E-17 1.021 1 1 1
v -0.408 9.023893E-17 0.865 1 1 1
v 0.8925 0.7 -1.935 1 1 1
v 0.8925 0.7 1.4625 1 1 1
v 0.68 0.3 1.225 1 1 1
v 0.408 0 0.865 1 1 1
v -0.8925 0.7 -1.935 1 1 1
v 8.518555E-13 0.7 1.935 1 1 1
v 0.48825 0.7 1.80375 1 1 1
v 0.8925 0.7 -1.149674 1 1 1
v 0.8925 0.7 -0.6304014 1 1 1
v 0.946 0.7 -1.149674 1 1 1
v 0.946 0.7 -0.6304014 1 1 1
v 0.6925 1 -1.149674 1 1 1
v 0.8925 1 -1.149674 1 1 1
v 0.6925 1.05 -1.149674 1 1 1
v 0.9727499 1.075 -1.149674 1 1 1
v 0.7424999 1.1 -1.149674 1 1 1
v 0.8925 1.1 -1.149674 1 1 1
v 0.9995 1 -1.149674 1 1 1
v 0.9995 0.7535 -1.149674 1 1 1
v 0.6925 1.05 -0.6304014 1 1 1
v 0.6925 1 -0.6304014 1 1 1
v 0.9995 0.7535 -0.6304014 1 1 1
v 0.8925 1 -0.6304014 1 1 1
v 0.9995 1 -0.6304014 1 1 1
v 0.9727499 1.075 -0.6304014 1 1 1
v 0.7424999 1.1 -0.6304014 1 1 1
v 0.8925 1.1 -0.6304014 1 1 1
v -0.8925 0.7 -0.6304014 1 1 1
v -0.8925 0.7 -1.149674 1 1 1
v -0.946 0.7 -0.6304014 1 1 1
v -0.946 0.7 -1.149674 1 1 1
v -0.6925 1 -0.6304014 1 1 1
v -0.8925 1 -0.6304014 1 1 1
v -0.6925 1.05 -0.6304014 1 1 1
v -0.9727499 1.075 -0.6304014 1 1 1
v -0.7424999 1.1 -0.6304014 1 1 1
v -0.8925 1.1 -0.6304014 1 1 1
v -0.9995 1 -0.6304014 1 1 1
v -0.9995 0.7535 -0.6304014 1 1 1
v -0.6925 1.05 -1.149674 1 1 1
v -0.6925 1 -1.149674 1 1 1
v -0.9995 0.7535 -1.149674 1 1 1
v -0.8925 1 -1.149674 1 1 1
v -0.9995 1 -1.149674 1 1 1
v -0.9727499 1.075 -1.149674 1 1 1
v -0.7424999 1.1 -1.149674 1 1 1
v -0.8925 1.1 -1.149674 1 1 1
v -0.4 0.8 1.0279 1 1 1
v -0.4 0.9 0.9278997 1 1 1
v -0.2 0.8 1.0279 1 1 1
v -0.2 0.9 0.9278997 1 1 1
v -0.4 0.9 0.3278998 1 1 1
v -0.2 0.9 0.3278998 1 1 1
v -0.4 0.8 0.2278997 1 1 1
v -0.2 0.8 0.2278997 1 1 1
v 0.2 0.8 1.0279 1 1 1
v 0.2 0.9 0.9278997 1 1 1
v 0.4 0.8 1.0279 1 1 1
v 0.4 0.9 0.9278997 1 1 1
v 0.2 0.9 0.3278998 1 1 1
v 0.4 0.9 0.3278998 1 1 1
v 0.2 0.8 0.2278997 1 1 1
v 0.4 0.8 0.2278997 1 1 1
v -0.2925 0.8 -1.935 1 1 1
v -0.8925 1 -1.935 1 1 1
v -0.2925 0.9 -1.935 1 1 1
v -0.4925 1 -1.935 1 1 1
v 0.2925 0.8 -1.935 1 1 1
v 0.8925 1 -1.935 1 1 1
v 0.2925 0.9 -1.935 1 1 1
v 0.4925 1 -1.935 1 1 1
v -0.6925 0.8 1.369599 1 1 1
v -0.3932931 0.8 1.622176 1 1 1
v -0.6925 1 1.369599 1 1 1
v -0.3932931 1 1.622176 1 1 1
v 7.767767E-13 0.8 1.7279 1 1 1
v 7.767767E-13 1 1.7279 1 1 1
v 0.3932931 0.8 1.622176 1 1 1
v 0.3932931 1 1.622176 1 1 1
v 0.6925 0.8 1.369599 1 1 1
v 0.6925 1 1.369599 1 1 1
v -0.2925 0.8 -1.735 1 1 1
v -0.6925 0.8 -1.735 1 1 1
v -0.2925 0.9 -1.735 1 1 1
v -0.6925 1 -1.735 1 1 1
v -0.4925 1 -1.735 1 1 1
v 0.6925 0.8 -1.735 1 1 1
v 0.2925 0.8 -1.735 1 1 1
v 0.6925 1 -1.735 1 1 1
v 0.2925 0.9 -1.735 1 1 1
v 0.4925 1 -1.735 1 1 1
v 0.48825 1 1.80375 1 1 1
v 8.518555E-13 1 1.935 1 1 1
v 0.8925 1 1.4625 1 1 1
v -0.48825 1 1.80375 1 1 1
v -0.8925 1 1.4625 1 1 1
v 0.519375 1.2 -0.6291515 1 1 1
v 0.519375 1.2 -0.4075264 1 1 1
v -0.519375 1.2 -0.6291515 1 1 1
v 0.3325622 1.2 -0.1949916 1 1 1
v 1.259447E-13 1.2 -0.1120265 1 1 1
v -0.3325622 1.2 -0.1949916 1 1 1
v -0.519375 1.2 -0.4075264 1 1 1
v 0.4925 0.5 -0.6291515 1 1 1
v -0.4925 0.5 -0.6291515 1 1 1
v -0.4925 0.8 -0.6291515 1 1 1
v 0.4925 0.8 -0.6291515 1 1 1
v 0.4925 1 -1.535 1 1 1
v 0.4925 1 -1.435 1 1 1
v 0.4925 0.7 -1.335 1 1 1
v 0.4925 0.5 -1.035 1 1 1
v 0.4925 0.7 -1.135 1 1 1
v 0.4925 0.6 -1.035 1 1 1
v -0.4925 0.5 -1.035 1 1 1
v -0.4925 0.6 -1.035 1 1 1
v -0.4925 1 -1.435 1 1 1
v -0.4925 0.7 -1.335 1 1 1
v -0.4925 1 -1.535 1 1 1
v -0.4925 0.7 -1.135 1 1 1
v -0.6925 0.8 -0.3336515 1 1 1
v -0.4434164 0.8 -0.05027163 1 1 1
v 0.6925 0.8 -0.3336515 1 1 1
v 0.4434164 0.8 -0.05027163 1 1 1
v 1.259447E-13 0.8 0.06034854 1 1 1
v -0.6925 0.8 -0.6291515 1 1 1
v 0.6925 0.8 -0.6291515 1 1 1

vn 0 -0.5547002 -0.8320503
vn 0 0 1
vn -0.3641753 -0.6428444 0.6738898
vn -0.7693149 -0.5745607 0.2793468
vn -0.3473968 -0.6440643 0.6815398
vn -0.7069383 -0.5989277 0.3761966
vn 0.2369471 -0.8487344 0.4727642
vn 0.257795 -0.8469771 0.4649423
vn 0 -0.8592929 0.5114838
vn -0.257795 -0.8469771 0.4649423
vn -0.6143689 -0.7689929 0.1766376
vn -0.2369471 -0.8487344 0.4727642
vn -0.5096893 -0.8100352 0.2899308
vn 0.8831158 -0.4691553 0
vn 0.7069383 -0.5989277 0.3761966
vn 0.7693149 -0.5745607 0.2793468
vn 0 -1 0
vn 0.5096893 -0.8100352 0.2899308
vn 0.6143689 -0.7689929 0.1766376
vn -0.7408333 -0.6716889 0
vn -0.8831158 -0.4691553 0
vn 0 -0.6585046 0.7525768
vn 0.7408333 -0.6716889 0
vn 0.3641753 -0.6428444 0.6738898
vn 0.3473968 -0.6440643 0.6815398
vn 0.3826834 -0.9238795 -3.591747E-13
vn -9.385687E-13 0 -1
vn -0.9238795 0.3826834 8.671244E-13
vn -1 0 9.385687E-13
vn 9.385687E-13 0 1
vn -0.3826834 0.9238795 3.591747E-13
vn 0.1504257 0.9886213 -1.411848E-13
vn 0.6926064 0.7213157 -6.500587E-13
vn 0.9853638 0.1704642 -9.248316E-13
vn 0.9238795 -0.3826834 -8.671244E-13
vn -0.3826834 -0.9238795 0
vn 0.9238795 0.3826834 0
vn 1 0 0
vn 0 0 -1
vn 0.3826834 0.9238795 0
vn -0.1504257 0.9886213 0
vn -0.6926064 0.7213157 0
vn -0.9853638 0.1704642 0
vn -0.9238795 -0.3826834 0
vn -2.538103E-13 0.7071068 0.7071068
vn -1.373612E-13 0.9238795 0.3826834
vn 1.373612E-13 0.9238795 -0.3826834
vn 2.538103E-13 0.7071068 -0.7071068
vn 1 0 3.58942E-13
vn -1 0 -3.58942E-13
vn 0.6450521 0 -0.7641386
vn 0.4634196 0 -0.886139
vn -0.4634196 0 -0.886139
vn -0.6450521 0 -0.7641386
vn 0.8506508 0.5257311 0
vn 0.4472136 0.8944272 0
vn -0.8506508 0.5257311 0
vn -1 0 0
vn -0.4472136 0.8944272 0
vn 0.4634196 0 0.886139
vn 0.9069322 0 0.4212766
vn -0.4634196 0 0.886139
vn -0.9069322 0 0.4212766
vn 0 1 0
vn 0 0.3826834 0.9238795
vn 0 0.9238795 0.3826834
vn 0 0.8112422 0.5847103
vn 0 0.3162278 0.9486833
vn -0.6857044 0.4080957 0.6027167
vn -0.441932 0.4109645 0.7973734
vn -0.4618392 0.4121465 0.7853914
vn 0.6857044 0.4080957 0.6027167
vn 0.4618392 0.4121465 0.7853914
vn 0.441932 0.4109645 0.7973734
vn 0 0.3957542 0.9183564
vn -0.9177299 0.3972049 0
vn 0.9177299 0.3972049 0

vt 0.71875 0.025
vt 0.71875 0.085
vt 0.71875 0.125
vt 0.71875 0.185
vt 0.71875 0.165
vt 0.71875 0.175
vt 0.71875 0.2
vt 0.71875 0.2125
vt 0.71875 0.225
vt 0.71875 0.05175
vt 0.46875 0.335
vt 0.46875 0.415
vt 0.46875 0.435
vt 0.46875 0.475
vt 0.46875 0.455
vt 0.46875 0.125
vt 0.46875 0.185
vt 0.46875 0.225
vt 0.46875 0.025
vt 0.46875 0.105
vt 0.46875 0.065
vt 0.84375 0.185
vt 0.09375 0.025
vt 0.09375 0.225

usemtl colormap

f 3/2/1 2/1/1 1/1/1
f 2/1/1 3/2/1 4/2/1
f 7/4/2 6/3/2 5/3/2
f 6/3/2 7/4/2 8/4/2
f 11/5/5 10/2/4 9/2/3
f 10/2/4 11/5/5 12/5/6
f 15/2/9 14/1/8 13/2/7
f 14/1/8 15/2/9 16/1/9
f 9/2/12 18/1/11 17/1/10
f 18/1/11 9/2/12 10/2/13
f 20/5/15 4/2/14 19/5/14
f 4/2/14 20/5/15 21/2/16
f 14/1/17 2/1/17 22/1/17
f 2/1/17 14/1/17 1/1/17
f 1/1/17 14/1/17 16/1/17
f 1/1/17 16/1/17 17/1/17
f 1/1/17 17/1/17 18/1/17
f 13/2/7 22/1/19 21/2/18
f 22/1/19 13/2/7 14/1/8
f 1/1/20 10/2/13 3/2/20
f 10/2/13 1/1/20 18/1/11
f 9/2/12 16/1/9 15/2/9
f 16/1/9 9/2/12 17/1/10
f 10/2/4 23/5/21 3/2/21
f 23/5/21 10/2/4 12/5/6
f 24/5/22 9/2/3 15/2/22
f 9/2/3 24/5/22 11/5/5
f 21/2/18 2/1/23 4/2/23
f 2/1/23 21/2/18 22/1/19
f 25/5/25 15/2/22 13/2/24
f 15/2/22 25/5/25 24/5/22
f 25/5/25 21/2/16 20/5/15
f 21/2/16 25/5/25 13/2/24
f 28/1/26 27/1/17 26/1/17
f 27/1/17 28/1/26 29/1/26
f 32/7/27 31/6/27 30/6/27
f 33/8/27 31/6/27 32/7/27
f 33/8/27 32/7/27 34/9/27
f 33/8/27 34/9/27 35/9/27
f 36/6/27 31/6/27 33/8/27
f 37/10/27 31/6/27 36/6/27
f 37/10/27 26/1/27 31/6/27
f 26/1/27 37/10/27 28/1/27
f 32/7/28 39/6/29 38/7/28
f 39/6/29 32/7/28 30/6/29
f 40/10/30 27/1/30 29/1/30
f 27/1/30 40/10/30 41/6/30
f 41/6/30 40/10/30 42/6/30
f 41/6/30 42/6/30 43/8/30
f 41/6/30 43/8/30 39/6/30
f 39/6/30 43/8/30 38/7/30
f 38/7/30 43/8/30 44/9/30
f 44/9/30 43/8/30 45/9/30
f 44/9/31 32/7/28 38/7/28
f 32/7/28 44/9/31 34/9/31
f 45/9/32 34/9/31 44/9/31
f 34/9/31 45/9/32 35/9/32
f 43/8/33 35/9/32 45/9/32
f 35/9/32 43/8/33 33/8/33
f 36/6/34 43/8/33 42/6/34
f 43/8/33 36/6/34 33/8/33
f 37/10/35 42/6/34 40/10/35
f 42/6/34 37/10/35 36/6/34
f 28/1/26 40/10/35 29/1/26
f 40/10/35 28/1/26 37/10/35
f 48/1/36 47/1/17 46/1/17
f 47/1/17 48/1/36 49/1/36
f 52/7/2 51/6/2 50/6/2
f 53/8/2 51/6/2 52/7/2
f 53/8/2 52/7/2 54/9/2
f 53/8/2 54/9/2 55/9/2
f 56/6/2 51/6/2 53/8/2
f 57/10/2 51/6/2 56/6/2
f 57/10/2 46/1/2 51/6/2
f 46/1/2 57/10/2 48/1/2
f 52/7/37 59/6/38 58/7/37
f 59/6/38 52/7/37 50/6/38
f 60/10/39 47/1/39 49/1/39
f 47/1/39 60/10/39 61/6/39
f 61/6/39 60/10/39 62/6/39
f 61/6/39 62/6/39 63/8/39
f 61/6/39 63/8/39 59/6/39
f 59/6/39 63/8/39 58/7/39
f 58/7/39 63/8/39 64/9/39
f 64/9/39 63/8/39 65/9/39
f 64/9/40 52/7/37 58/7/37
f 52/7/37 64/9/40 54/9/40
f 65/9/41 54/9/40 64/9/40
f 54/9/40 65/9/41 55/9/41
f 63/8/42 55/9/41 65/9/41
f 55/9/41 63/8/42 53/8/42
f 56/6/43 63/8/42 62/6/43
f 63/8/42 56/6/43 53/8/42
f 57/10/44 62/6/43 60/10/44
f 62/6/43 57/10/44 56/6/43
f 48/1/36 60/10/44 49/1/36
f 60/10/44 48/1/36 57/10/44
f 68/1/45 67/9/46 66/1/45
f 67/9/46 68/1/45 69/9/46
f 67/9/46 71/9/47 70/9/47
f 71/9/47 67/9/46 69/9/46
f 71/9/47 72/1/48 70/9/47
f 72/1/48 71/9/47 73/1/48
f 73/1/49 69/9/49 68/1/49
f 69/9/49 73/1/49 71/9/49
f 67/9/50 72/1/50 66/1/50
f 72/1/50 67/9/50 70/9/50
f 76/1/45 75/9/46 74/1/45
f 75/9/46 76/1/45 77/9/46
f 75/9/46 79/9/47 78/9/47
f 79/9/47 75/9/46 77/9/46
f 79/9/47 80/1/48 78/9/47
f 80/1/48 79/9/47 81/1/48
f 81/1/49 77/9/49 76/1/49
f 77/9/49 81/1/49 79/9/49
f 75/9/50 80/1/50 74/1/50
f 80/1/50 75/9/50 78/9/50
f 23/12/39 4/11/39 3/11/39
f 4/11/39 23/12/39 19/12/39
f 19/12/39 23/12/39 82/13/39
f 82/13/39 23/12/39 83/14/39
f 82/13/39 83/14/39 84/15/39
f 84/15/39 83/14/39 85/14/39
f 86/13/39 19/12/39 82/13/39
f 19/12/39 86/13/39 87/14/39
f 87/14/39 86/13/39 88/15/39
f 87/14/39 88/15/39 89/14/39
f 92/14/51 91/13/52 90/13/51
f 91/13/52 92/14/51 93/14/52
f 93/14/52 94/13/39 91/13/52
f 94/13/39 93/14/52 95/14/39
f 95/14/39 96/13/53 94/13/39
f 96/13/53 95/14/39 97/14/53
f 96/13/53 99/14/54 98/13/54
f 99/14/54 96/13/53 97/14/53
f 102/15/2 101/13/2 100/13/2
f 101/13/2 102/15/2 103/14/2
f 103/14/2 102/15/2 104/14/2
f 107/14/2 106/13/2 105/13/2
f 106/13/2 107/14/2 108/15/2
f 108/15/2 107/14/2 109/14/2
f 84/15/55 104/14/56 102/15/55
f 104/14/56 84/15/55 85/14/56
f 102/15/55 82/13/38 84/15/55
f 82/13/38 102/15/55 100/13/38
f 86/13/58 108/15/57 88/15/57
f 108/15/57 86/13/58 106/13/58
f 89/14/59 108/15/57 109/14/59
f 108/15/57 89/14/59 88/15/57
f 110/14/60 24/12/2 25/12/60
f 24/12/2 110/14/60 111/14/2
f 112/14/61 25/12/60 20/12/61
f 25/12/60 112/14/61 110/14/60
f 111/14/2 11/12/62 24/12/2
f 11/12/62 111/14/2 113/14/62
f 98/13/58 107/14/58 105/13/58
f 107/14/58 98/13/58 99/14/58
f 92/14/38 101/13/38 103/14/38
f 101/13/38 92/14/38 90/13/38
f 112/14/61 19/12/38 87/14/38
f 19/12/38 112/14/61 20/12/61
f 113/14/62 12/12/63 11/12/62
f 12/12/63 113/14/62 114/14/63
f 12/12/63 83/14/58 23/12/58
f 83/14/58 12/12/63 114/14/63
f 107/14/64 89/14/64 109/14/64
f 107/14/64 87/14/64 89/14/64
f 87/14/64 107/14/64 99/14/64
f 99/14/64 112/14/64 87/14/64
f 112/14/64 99/14/64 110/14/64
f 110/14/64 99/14/64 97/14/64
f 110/14/64 97/14/64 111/14/64
f 111/14/64 97/14/64 95/14/64
f 111/14/64 95/14/64 113/14/64
f 113/14/64 95/14/64 93/14/64
f 113/14/64 93/14/64 92/14/64
f 113/14/64 92/14/64 114/14/64
f 114/14/64 92/14/64 103/14/64
f 103/14/64 83/14/64 114/14/64
f 103/14/64 85/14/64 83/14/64
f 85/14/64 103/14/64 104/14/64
f 117/14/64 116/14/64 115/14/64
f 116/14/64 117/14/64 118/14/64
f 118/14/64 117/14/64 119/14/64
f 119/14/64 117/14/64 120/14/64
f 120/14/64 117/14/64 121/14/64
f 5/16/64 123/16/64 122/16/64
f 123/16/64 5/16/64 6/16/64
f 124/17/38 6/16/38 8/17/38
f 6/16/38 124/17/38 123/16/38
f 124/17/39 122/16/39 123/16/39
f 122/16/39 124/17/39 125/17/39
f 122/16/58 7/17/58 5/16/58
f 7/17/58 122/16/58 125/17/58
f 127/18/38 5/19/38 126/18/38
f 5/19/38 127/18/38 128/20/38
f 5/19/38 128/20/38 129/19/38
f 129/19/38 128/20/38 130/20/38
f 129/19/38 130/20/38 131/21/38
f 131/21/65 132/19/2 129/19/2
f 132/19/2 131/21/65 133/21/65
f 136/18/58 135/20/58 134/18/58
f 6/19/58 135/20/58 136/18/58
f 135/20/58 6/19/58 132/19/58
f 135/20/58 132/19/58 137/20/58
f 137/20/58 132/19/58 133/21/58
f 135/20/64 130/20/66 128/20/64
f 130/20/66 135/20/64 137/20/66
f 136/18/64 127/18/67 126/18/64
f 127/18/67 136/18/64 134/18/67
f 127/18/67 135/20/68 128/20/68
f 135/20/68 127/18/67 134/18/67
f 137/20/66 131/21/65 130/20/66
f 131/21/65 137/20/66 133/21/65
f 136/18/39 5/19/39 6/19/39
f 5/19/39 136/18/39 126/18/39
f 13/2/17 4/2/17 21/2/17
f 4/2/17 13/2/17 3/2/17
f 3/2/17 13/2/17 15/2/17
f 3/2/17 15/2/17 9/2/17
f 3/2/17 9/2/17 10/2/17
f 82/22/64 100/22/64 86/22/64
f 8/22/64 86/22/64 100/22/64
f 8/22/64 100/22/64 101/22/64
f 8/22/64 106/22/64 86/22/64
f 7/22/64 106/22/64 8/22/64
f 8/22/64 101/22/64 124/22/64
f 7/22/64 105/22/64 106/22/64
f 124/22/64 101/22/64 90/22/64
f 91/22/64 124/22/64 90/22/64
f 94/22/64 124/22/64 91/22/64
f 96/22/64 124/22/64 94/22/64
f 105/22/64 7/22/64 125/22/64
f 96/22/64 125/22/64 124/22/64
f 96/22/64 105/22/64 125/22/64
f 105/22/64 96/22/64 98/22/64
f 139/23/70 121/24/69 138/23/69
f 139/23/70 120/24/71 121/24/69
f 118/24/73 140/23/72 116/24/72
f 141/23/74 140/23/72 118/24/73
f 119/24/75 139/23/70 142/23/75
f 120/24/71 139/23/70 119/24/75
f 118/24/73 142/23/75 141/23/74
f 119/24/75 142/23/75 118/24/73
f 117/24/39 144/23/39 143/23/39
f 144/23/39 117/24/39 115/24/39
f 138/23/76 117/24/76 143/23/76
f 117/24/76 138/23/76 121/24/76
f 116/24/77 144/23/77 115/24/77
f 144/23/77 116/24/77 140/23/77

g boat-speed-d




usemtl colormap

f 3/2/1 2/1/1 1/1/1
f 2/1/1 3/2/1 4/2/1
f 7/4/2 6/3/2 5/3/2
f 6/3/2 7/4/2 8/4/2
f 11/5/5 10/2/4 9/2/3
f 10/2/4 11/5/5 12/5/6
f 15/2/9 14/1/8 13/2/7
f 14/1/8 15/2/9 16/1/9
f 9/2/12 18/1/11 17/1/10
f 18/1/11 9/2/12 10/2/13
f 20/5/15 4/2/14 19/5/14
f 4/2/14 20/5/15 21/2/16
f 14/1/17 2/1/17 22/1/17
f 2/1/17 14/1/17 1/1/17
f 1/1/17 14/1/17 16/1/17
f 1/1/17 16/1/17 17/1/17
f 1/1/17 17/1/17 18/1/17
f 13/2/7 22/1/19 21/2/18
f 22/1/19 13/2/7 14/1/8
f 1/1/20 10/2/13 3/2/20
f 10/2/13 1/1/20 18/1/11
f 9/2/12 16/1/9 15/2/9
f 16/1/9 9/2/12 17/1/10
f 10/2/4 23/5/21 3/2/21
f 23/5/21 10/2/4 12/5/6
f 24/5/22 9/2/3 15/2/22
f 9/2/3 24/5/22 11/5/5
f 21/2/18 2/1/23 4/2/23
f 2/1/23 21/2/18 22/1/19
f 25/5/25 15/2/22 13/2/24
f 15/2/22 25/5/25 24/5/22
f 25/5/25 21/2/16 20/5/15
f 21/2/16 25/5/25 13/2/24
f 28/1/26 27/1/17 26/1/17
f 27/1/17 28/1/26 29/1/26
f 32/7/27 31/6/27 30/6/27
f 33/8/27 31/6/27 32/7/27
f 33/8/27 32/7/27 34/9/27
f 33/8/27 34/9/27 35/9/27
f 36/6/27 31/6/27 33/8/27
f 37/10/27 31/6/27 36/6/27
f 37/10/27 26/1/27 31/6/27
f 26/1/27 37/10/27 28/1/27
f 32/7/28 39/6/29 38/7/28
f 39/6/29 32/7/28 30/6/29
f 40/10/30 27/1/30 29/1/30
f 27/1/30 40/10/30 41/6/30
f 41/6/30 40/10/30 42/6/30
f 41/6/30 42/6/30 43/8/30
f 41/6/30 43/8/30 39/6/30
f 39/6/30 43/8/30 38/7/30
f 38/7/30 43/8/30 44/9/30
f 44/9/30 43/8/30 45/9/30
f 44/9/31 32/7/28 38/7/28
f 32/7/28 44/9/31 34/9/31
f 45/9/32 34/9/31 44/9/31
f 34/9/31 45/9/32 35/9/32
f 43/8/33 35/9/32 45/9/32
f 35/9/32 43/8/33 33/8/33
f 36/6/34 43/8/33 42/6/34
f 43/8/33 36/6/34 33/8/33
f 37/10/35 42/6/34 40/10/35
f 42/6/34 37/10/35 36/6/34
f 28/1/26 40/10/35 29/1/26
f 40/10/35 28/1/26 37/10/35
f 48/1/36 47/1/17 46/1/17
f 47/1/17 48/1/36 49/1/36
f 52/7/2 51/6/2 50/6/2
f 53/8/2 51/6/2 52/7/2
f 53/8/2 52/7/2 54/9/2
f 53/8/2 54/9/2 55/9/2
f 56/6/2 51/6/2 53/8/2
f 57/10/2 51/6/2 56/6/2
f 57/10/2 46/1/2 51/6/2
f 46/1/2 57/10/2 48/1/2
f 52/7/37 59/6/38 58/7/37
f 59/6/38 52/7/37 50/6/38
f 60/10/39 47/1/39 49/1/39
f 47/1/39 60/10/39 61/6/39
f 61/6/39 60/10/39 62/6/39
f 61/6/39 62/6/39 63/8/39
f 61/6/39 63/8/39 59/6/39
f 59/6/39 63/8/39 58/7/39
f 58/7/39 63/8/39 64/9/39
f 64/9/39 63/8/39 65/9/39
f 64/9/40 52/7/37 58/7/37
f 52/7/37 64/9/40 54/9/40
f 65/9/41 54/9/40 64/9/40
f 54/9/40 65/9/41 55/9/41
f 63/8/42 55/9/41 65/9/41
f 55/9/41 63/8/42 53/8/42
f 56/6/43 63/8/42 62/6/43
f 63/8/42 56/6/43 53/8/42
f 57/10/44 62/6/43 60/10/44
f 62/6/43 57/10/44 56/6/43
f 48/1/36 60/10/44 49/1/36
f 60/10/44 48/1/36 57/10/44
f 68/1/45 67/9/46 66/1/45
f 67/9/46 68/1/45 69/9/46
f 67/9/46 71/9/47 70/9/47
f 71/9/47 67/9/46 69/9/46
f 71/9/47 72/1/48 70/9/47
f 72/1/48 71/9/47 73/1/48
f 73/1/49 69/9/49 68/1/49
f 69/9/49 73/1/49 71/9/49
f 67/9/50 72/1/50 66/1/50
f 72/1/50 67/9/50 70/9/50
f 76/1/45 75/9/46 74/1/45
f 75/9/46 76/1/45 77/9/46
f 75/9/46 79/9/47 78/9/47
f 79/9/47 75/9/46 77/9/46
f 79/9/47 80/1/48 78/9/47
f 80/1/48 79/9/47 81/1/48
f 81/1/49 77/9/49 76/1/49
f 77/9/49 81/1/49 79/9/49
f 75/9/50 80/1/50 74/1/50
f 80/1/50 75/9/50 78/9/50
f 23/12/39 4/11/39 3/11/39
f 4/11/39 23/12/39 19/12/39
f 19/12/39 23/12/39 82/13/39
f 82/13/39 23/12/39 83/14/39
f 82/13/39 83/14/39 84/15/39
f 84/15/39 83/14/39 85/14/39
f 86/13/39 19/12/39 82/13/39
f 19/12/39 86/13/39 87/14/39
f 87/14/39 86/13/39 88/15/39
f 87/14/39 88/15/39 89/14/39
f 92/14/51 91/13/52 90/13/51
f 91/13/52 92/14/51 93/14/52
f 93/14/52 94/13/39 91/13/52
f 94/13/39 93/14/52 95/14/39
f 95/14/39 96/13/53 94/13/39
f 96/13/53 95/14/39 97/14/53
f 96/13/53 99/14/54 98/13/54
f 99/14/54 96/13/53 97/14/53
f 102/15/2 101/13/2 100/13/2
f 101/13/2 102/15/2 103/14/2
f 103/14/2 102/15/2 104/14/2
f 107/14/2 106/13/2 105/13/2
f 106/13/2 107/14/2 108/15/2
f 108/15/2 107/14/2 109/14/2
f 84/15/55 104/14/56 102/15/55
f 104/14/56 84/15/55 85/14/56
f 102/15/55 82/13/38 84/15/55
f 82/13/38 102/15/55 100/13/38
f 86/13/58 108/15/57 88/15/57
f 108/15/57 86/13/58 106/13/58
f 89/14/59 108/15/57 109/14/59
f 108/15/57 89/14/59 88/15/57
f 110/14/60 24/12/2 25/12/60
f 24/12/2 110/14/60 111/14/2
f 112/14/61 25/12/60 20/12/61
f 25/12/60 112/14/61 110/14/60
f 111/14/2 11/12/62 24/12/2
f 11/12/62 111/14/2 113/14/62
f 98/13/58 107/14/58 105/13/58
f 107/14/58 98/13/58 99/14/58
f 92/14/38 101/13/38 103/14/38
f 101/13/38 92/14/38 90/13/38
f 112/14/61 19/12/38 87/14/38
f 19/12/38 112/14/61 20/12/61
f 113/14/62 12/12/63 11/12/62
f 12/12/63 113/14/62 114/14/63
f 12/12/63 83/14/58 23/12/58
f 83/14/58 12/12/63 114/14/63
f 107/14/64 89/14/64 109/14/64
f 107/14/64 87/14/64 89/14/64
f 87/14/64 107/14/64 99/14/64
f 99/14/64 112/14/64 87/14/64
f 112/14/64 99/14/64 110/14/64
f 110/14/64 99/14/64 97/14/64
f 110/14/64 97/14/64 111/14/64
f 111/14/64 97/14/64 95/14/64
f 111/14/64 95/14/64 113/14/64
f 113/14/64 95/14/64 93/14/64
f 113/14/64 93/14/64 92/14/64
f 113/14/64 92/14/64 114/14/64
f 114/14/64 92/14/64 103/14/64
f 103/14/64 83/14/64 114/14/64
f 103/14/64 85/14/64 83/14/64
f 85/14/64 103/14/64 104/14/64
f 117/14/64 116/14/64 115/14/64
f 116/14/64 117/14/64 118/14/64
f 118/14/64 117/14/64 119/14/64
f 119/14/64 117/14/64 120/14/64
f 120/14/64 117/14/64 121/14/64
f 5/16/64 123/16/64 122/16/64
f 123/16/64 5/16/64 6/16/64
f 124/17/38 6/16/38 8/17/38
f 6/16/38 124/17/38 123/16/38
f 124/17/39 122/16/39 123/16/39
f 122/16/39 124/17/39 125/17/39
f 122/16/58 7/17/58 5/16/58
f 7/17/58 122/16/58 125/17/58
f 127/18/38 5/19/38 126/18/38
f 5/19/38 127/18/38 128/20/38
f 5/19/38 128/20/38 129/19/38
f 129/19/38 128/20/38 130/20/38
f 129/19/38 130/20/38 131/21/38
f 131/21/65 132/19/2 129/19/2
f 132/19/2 131/21/65 133/21/65
f 136/18/58 135/20/58 134/18/58
f 6/19/58 135/20/58 136/18/58
f 135/20/58 6/19/58 132/19/58
f 135/20/58 132/19/58 137/20/58
f 137/20/58 132/19/58 133/21/58
f 135/20/64 130/20/66 128/20/64
f 130/20/66 135/20/64 137/20/66
f 136/18/64 127/18/67 126/18/64
f 127/18/67 136/18/64 134/18/67
f 127/18/67 135/20/68 128/20/68
f 135/20/68 127/18/67 134/18/67
f 137/20/66 131/21/65 130/20/66
f 131/21/65 137/20/66 133/21/65
f 136/18/39 5/19/39 6/19/39
f 5/19/39 136/18/39 126/18/39
f 13/2/17 4/2/17 21/2/17
f 4/2/17 13/2/17 3/2/17
f 3/2/17 13/2/17 15/2/17
f 3/2/17 15/2/17 9/2/17
f 3/2/17 9/2/17 10/2/17
f 82/22/64 100/22/64 86/22/64
f 8/22/64 86/22/64 100/22/64
f 8/22/64 100/22/64 101/22/64
f 8/22/64 106/22/64 86/22/64
f 7/22/64 106/22/64 8/22/64
f 8/22/64 101/22/64 124/22/64
f 7/22/64 105/22/64 106/22/64
f 124/22/64 101/22/64 90/22/64
f 91/22/64 124/22/64 90/22/64
f 94/22/64 124/22/64 91/22/64
f 96/22/64 124/22/64 94/22/64
f 105/22/64 7/22/64 125/22/64
f 96/22/64 125/22/64 124/22/64
f 96/22/64 105/22/64 125/22/64
f 105/22/64 96/22/64 98/22/64
f 139/23/70 121/24/69 138/23/69
f 139/23/70 120/24/71 121/24/69
f 118/24/73 140/23/72 116/24/72
f 141/23/74 140/23/72 118/24/73
f 119/24/75 139/23/70 142/23/75
f 120/24/71 139/23/70 119/24/75
f 118/24/73 142/23/75 141/23/74
f 119/24/75 142/23/75 118/24/73
f 117/24/39 144/23/39 143/23/39
f 144/23/39 117/24/39 115/24/39
f 138/23/76 117/24/76 143/23/76
f 117/24/76 138/23/76 121/24/76
f 116/24/77 144/23/77 115/24/77
f 144/23/77 116/24/77 140/23/77

