# Created by Kenney (www.kenney.nl)

mtllib boat-tug-c.mtl

g boat-tug-c

v -0.408 8.872369E-17 -1.235 1 1 1
v 0.408 8.872369E-17 -1.235 1 1 1
v -0.68 0.3 -1.435 1 1 1
v 0.68 0.3 -1.435 1 1 1
v -0.2232 9.023893E-17 0.521 1 1 1
v -0.408 9.023893E-17 0.365 1 1 1
v -0.372 0.3 0.985 1 1 1
v -0.68 0.3 0.725 1 1 1
v 0.372 0.3 0.985 1 1 1
v 4.677986E-13 0.3 1.085 1 1 1
v 0.48825 0.7 1.30375 1 1 1
v 5.94855E-13 0.7 1.435 1 1 1
v 0.2232 9.023893E-17 0.521 1 1 1
v 2.887646E-13 9.023893E-17 0.581 1 1 1
v -0.48825 0.7 1.30375 1 1 1
v -0.8925 0.7 0.9625 1 1 1
v 0.8925 0.7 -1.435 1 1 1
v 0.8925 0.7 0.9625 1 1 1
v 0.68 0.3 0.725 1 1 1
v 0.408 0 0.365 1 1 1
v -0.8925 0.7 -1.435 1 1 1
v 0.5925 0.8 -1.135 1 1 1
v 0.5925 1.5 -1.135 1 1 1
v -0.5925 0.8 -1.135 1 1 1
v -0.5925 1.5 -1.135 1 1 1
v -0.5925 0.8 0.1516867 1 1 1
v -0.5925 1.5 0.1516867 1 1 1
v 0.5925 1.5 0.1516867 1 1 1
v 0.5925 0.8 0.1516867 1 1 1
v 0.5339213 1.5 0.2931081 1 1 1
v 0.5339213 0.8 0.2931081 1 1 1
v 0.5339213 1.15 0.2931081 1 1 1
v -0.5339213 0.8 0.2931081 1 1 1
v -0.5339213 1.5 0.2931081 1 1 1
v -0.5339213 1.15 0.2931081 1 1 1
v -0.3925 0.8 0.3516867 1 1 1
v -0.3925 1.15 0.3516867 1 1 1
v 0.3925 0.8 0.3516867 1 1 1
v 0.3925 1.15 0.3516867 1 1 1
v -0.2 0.95 0.7516867 1 1 1
v -0.2 0.8 0.7516867 1 1 1
v -0.2 1 0.3516867 1 1 1
v -0.2 0.8 0.3516867 1 1 1
v 0.2 0.8 0.7516867 1 1 1
v 0.2 0.95 0.7516867 1 1 1
v 0.2 0.8 0.3516867 1 1 1
v 0.2 1 0.3516867 1 1 1
v -0.2925 0.8 -1.435 1 1 1
v -0.8925 1 -1.435 1 1 1
v -0.2925 0.9 -1.435 1 1 1
v -0.4925 1 -1.435 1 1 1
v 0.2925 0.8 -1.435 1 1 1
v 0.8925 1 -1.435 1 1 1
v 0.2925 0.9 -1.435 1 1 1
v 0.4925 1 -1.435 1 1 1
v 0.4925 1 -1.235 1 1 1
v 0.6925 1 -1.235 1 1 1
v 0.6925 1 0.8695986 1 1 1
v 0.8925 1 0.9625 1 1 1
v 0.48825 1 1.30375 1 1 1
v 0.3932931 1 1.122176 1 1 1
v 5.94855E-13 1 1.435 1 1 1
v 5.197762E-13 1 1.2279 1 1 1
v -0.48825 1 1.30375 1 1 1
v -0.3932931 1 1.122176 1 1 1
v -0.6925 1 0.8695986 1 1 1
v -0.8925 1 0.9625 1 1 1
v -0.6925 1 -1.235 1 1 1
v -0.4925 1 -1.235 1 1 1
v -0.6925 0.8 -1.235 1 1 1
v -0.6925 0.8 0.8695986 1 1 1
v -0.3932931 0.8 1.122176 1 1 1
v 5.197762E-13 0.8 1.2279 1 1 1
v 0.3932931 0.8 1.122176 1 1 1
v 0.6925 0.8 0.8695986 1 1 1
v 0.6925 0.8 -1.235 1 1 1
v -0.2925 0.8 -1.235 1 1 1
v -0.2925 0.9 -1.235 1 1 1
v 0.2925 0.8 -1.235 1 1 1
v 0.2925 0.9 -1.235 1 1 1
v 0.7925 1.5 0.1914692 1 1 1
v 0.7925 1.5 -1.235 1 1 1
v 0.6869947 1.5 0.4461815 1 1 1
v 0.6925 1.5 -1.335 1 1 1
v -0.6925 1.5 -1.335 1 1 1
v 0.4322825 1.5 0.5516868 1 1 1
v 0.3925 1.5 0.3516867 1 1 1
v -0.4322825 1.5 0.5516868 1 1 1
v -0.3925 1.5 0.3516867 1 1 1
v -0.6869947 1.5 0.4461815 1 1 1
v -0.7925 1.5 0.1914692 1 1 1
v -0.7925 1.5 -1.235 1 1 1
v 0.7925 1.7 -1.235 1 1 1
v 0.7925 1.7 0.1914692 1 1 1
v 0.6925 1.7 -1.335 1 1 1
v 0.6869947 1.7 0.4461815 1 1 1
v -0.6925 1.7 -1.335 1 1 1
v 0.4322825 1.7 0.5516868 1 1 1
v -0.4322825 1.7 0.5516868 1 1 1
v -0.6869947 1.7 0.4461815 1 1 1
v -0.7925 1.7 0.1914692 1 1 1
v -0.7925 1.7 -1.235 1 1 1
v -0.2 1.75 -0.04831326 1 1 1
v -0.2 1.7 -0.04831326 1 1 1
v -0.2 1.8 -0.4483133 1 1 1
v -0.2 1.7 -0.4483133 1 1 1
v 0.2 1.7 -0.04831326 1 1 1
v 0.2 1.75 -0.04831326 1 1 1
v 0.2 1.7 -0.4483133 1 1 1
v 0.2 1.8 -0.4483133 1 1 1
v 0.5339213 1.15 0.2931081 1 1 1
v 0.3925 1.15 0.3516867 1 1 1
v 0.5339213 1.5 0.2931081 1 1 1
v 0.3925 1.5 0.3516867 1 1 1
v -0.3925 1.15 0.3516867 1 1 1
v -0.5339213 1.15 0.2931081 1 1 1
v -0.3925 1.5 0.3516867 1 1 1
v -0.5339213 1.5 0.2931081 1 1 1

vn 0 -0.5547002 -0.8320503
vn -0.257795 -0.8469771 0.4649423
vn -0.6143689 -0.7689929 0.1766376
vn -0.2369471 -0.8487344 0.4727642
vn -0.5096893 -0.8100352 0.2899308
vn 0.3641753 -0.6428444 0.6738898
vn 0 -0.6585046 0.7525768
vn 0.3473968 -0.6440643 0.6815398
vn 0.2369471 -0.8487344 0.4727642
vn 0.257795 -0.8469771 0.4649423
vn 0 -0.8592929 0.5114838
vn -0.3641753 -0.6428444 0.6738898
vn -0.7693149 -0.5745607 0.2793468
vn -0.3473968 -0.6440643 0.6815398
vn -0.7069383 -0.5989277 0.3761966
vn 0.8831158 -0.4691553 0
vn 0.7069383 -0.5989277 0.3761966
vn 0.7693149 -0.5745607 0.2793468
vn 0.5096893 -0.8100352 0.2899308
vn 0.6143689 -0.7689929 0.1766376
vn -0.8831158 -0.4691553 0
vn 0.7408333 -0.6716889 0
vn -0.7408333 -0.6716889 0
vn 0 -1 0
vn 0 0 -1
vn -1 0 0
vn -0.9807853 0 0.1950903
vn 1 0 0
vn 0.9807853 0 0.1950903
vn 0.9238795 0 0.3826834
vn -0.9238795 0 0.3826834
vn -0.1950903 0 0.9807853
vn -0.3826834 0 0.9238795
vn 0.1950903 0 0.9807853
vn 0.3826834 0 0.9238795
vn -1 0 -2.889355E-14
vn -2.889355E-14 0 1
vn -2.166087E-14 0.6618025 0.7496782
vn 1 0 2.889355E-14
vn -3.583804E-15 0.9922779 0.1240347
vn 0 1 0
vn -0.9069322 0 0.4212766
vn -0.4634196 0 0.886139
vn 0 0 1
vn 0.4634196 0 0.886139
vn 0.9069322 0 0.4212766
vn 0.6450521 0 -0.7641386
vn 0.4634196 0 -0.886139
vn -0.4634196 0 -0.886139
vn -0.6450521 0 -0.7641386
vn 0.8506508 0.5257311 0
vn 0.4472136 0.8944272 0
vn -0.8506508 0.5257311 0
vn -0.4472136 0.8944272 0
vn -0.7071068 0 0.7071068
vn 0.7071068 0 0.7071068
vn 0.9238795 0 -0.3826834
vn -0.9238795 0 -0.3826834
vn -0.3826834 0 -0.9238795
vn 0.3826834 0 -0.9238795
vn 2.889355E-14 0 -1

vt 0.71875 0.025
vt 0.71875 0.085
vt 0.71875 0.165
vt 0.71875 0.1805556
vt 0.71875 0.1027778
vt 0.71875 0.175
vt 0.71875 0.225
vt 0.46875 0.335
vt 0.46875 0.415
vt 0.46875 0.435
vt 0.46875 0.475
vt 0.46875 0.455
vt 0.46875 0.4305556
vt 0.46875 0.375
vt 0.46875 0.275
vt 0.46875 0.185
vt 0.09375 0.025
vt 0.09375 0.225

usemtl colormap

f 3/2/1 2/1/1 1/1/1
f 2/1/1 3/2/1 4/2/1
f 7/2/4 6/1/3 5/1/2
f 6/1/3 7/2/4 8/2/5
f 11/3/8 10/2/7 9/2/6
f 10/2/7 11/3/8 12/3/7
f 10/2/11 13/1/10 9/2/9
f 13/1/10 10/2/11 14/1/11
f 15/3/14 8/2/13 7/2/12
f 8/2/13 15/3/14 16/3/15
f 18/3/17 4/2/16 17/3/16
f 4/2/16 18/3/17 19/2/18
f 9/2/9 20/1/20 19/2/19
f 20/1/20 9/2/9 13/1/10
f 7/2/4 14/1/11 10/2/11
f 14/1/11 7/2/4 5/1/2
f 11/3/8 19/2/18 18/3/17
f 19/2/18 11/3/8 9/2/6
f 8/2/13 21/3/21 3/2/21
f 21/3/21 8/2/13 16/3/15
f 19/2/19 2/1/22 4/2/22
f 2/1/22 19/2/19 20/1/20
f 1/1/23 8/2/5 3/2/23
f 8/2/5 1/1/23 6/1/3
f 13/1/24 2/1/24 20/1/24
f 2/1/24 13/1/24 1/1/24
f 1/1/24 13/1/24 14/1/24
f 1/1/24 14/1/24 5/1/24
f 1/1/24 5/1/24 6/1/24
f 12/3/7 7/2/12 10/2/7
f 7/2/12 12/3/7 15/3/14
f 24/1/25 23/4/25 22/1/25
f 23/4/25 24/1/25 25/4/25
f 26/1/27 25/4/26 24/1/26
f 25/4/26 26/1/27 27/4/27
f 28/4/29 22/1/28 23/4/28
f 22/1/28 28/4/29 29/1/29
f 30/4/30 29/1/29 28/4/29
f 29/1/29 30/4/30 31/1/30
f 31/1/30 30/4/30 32/5/30
f 33/1/31 27/4/27 26/1/27
f 27/4/27 33/1/31 34/4/31
f 34/4/31 33/1/31 35/5/31
f 37/5/32 33/1/33 36/1/32
f 33/1/33 37/5/32 35/5/33
f 39/5/34 36/1/32 38/1/34
f 36/1/32 39/5/34 37/5/32
f 32/5/35 38/1/34 31/1/35
f 38/1/34 32/5/35 39/5/34
f 42/7/36 41/1/36 40/6/36
f 41/1/36 42/7/36 43/1/36
f 45/6/38 41/1/37 44/1/37
f 41/1/37 45/6/38 40/6/38
f 46/1/39 45/6/39 44/1/39
f 45/6/39 46/1/39 47/7/39
f 45/6/38 42/7/40 40/6/38
f 42/7/40 45/6/38 47/7/40
f 9/2/24 4/2/24 19/2/24
f 4/2/24 9/2/24 3/2/24
f 3/2/24 9/2/24 10/2/24
f 3/2/24 10/2/24 7/2/24
f 3/2/24 7/2/24 8/2/24
f 21/9/25 4/8/25 3/8/25
f 4/8/25 21/9/25 17/9/25
f 17/9/25 21/9/25 48/10/25
f 48/10/25 21/9/25 49/11/25
f 48/10/25 49/11/25 50/12/25
f 50/12/25 49/11/25 51/11/25
f 52/10/25 17/9/25 48/10/25
f 17/9/25 52/10/25 53/11/25
f 53/11/25 52/10/25 54/12/25
f 53/11/25 54/12/25 55/11/25
f 57/11/41 55/11/41 56/11/41
f 57/11/41 53/11/41 55/11/41
f 53/11/41 57/11/41 58/11/41
f 58/11/41 59/11/41 53/11/41
f 59/11/41 58/11/41 60/11/41
f 60/11/41 58/11/41 61/11/41
f 60/11/41 61/11/41 62/11/41
f 62/11/41 61/11/41 63/11/41
f 62/11/41 63/11/41 64/11/41
f 64/11/41 63/11/41 65/11/41
f 64/11/41 65/11/41 66/11/41
f 64/11/41 66/11/41 67/11/41
f 67/11/41 66/11/41 68/11/41
f 68/11/41 49/11/41 67/11/41
f 68/11/41 51/11/41 49/11/41
f 51/11/41 68/11/41 69/11/41
f 16/9/42 49/11/26 21/9/26
f 49/11/26 16/9/42 67/11/42
f 64/11/43 16/9/42 15/9/43
f 16/9/42 64/11/43 67/11/42
f 62/11/44 15/9/43 12/9/44
f 15/9/43 62/11/44 64/11/43
f 60/11/45 12/9/44 11/9/45
f 12/9/44 60/11/45 62/11/44
f 59/11/46 11/9/45 18/9/46
f 11/9/45 59/11/46 60/11/45
f 59/11/46 17/9/28 53/11/28
f 17/9/28 59/11/46 18/9/46
f 66/11/28 70/10/28 68/11/28
f 70/10/28 66/11/28 71/10/28
f 66/11/47 72/10/48 71/10/47
f 72/10/48 66/11/47 65/11/48
f 65/11/48 73/10/25 72/10/48
f 73/10/25 65/11/48 63/11/25
f 63/11/25 74/10/49 73/10/25
f 74/10/49 63/11/25 61/11/49
f 74/10/49 58/11/50 75/10/50
f 58/11/50 74/10/49 61/11/49
f 75/10/26 57/11/26 76/10/26
f 57/11/26 75/10/26 58/11/26
f 78/12/44 70/10/44 77/10/44
f 70/10/44 78/12/44 68/11/44
f 68/11/44 78/12/44 69/11/44
f 57/11/44 79/10/44 76/10/44
f 79/10/44 57/11/44 80/12/44
f 80/12/44 57/11/44 56/11/44
f 50/12/51 69/11/52 78/12/51
f 69/11/52 50/12/51 51/11/52
f 78/12/51 48/10/28 50/12/51
f 48/10/28 78/12/51 77/10/28
f 52/10/26 80/12/53 54/12/53
f 80/12/53 52/10/26 79/10/26
f 55/11/54 80/12/53 56/11/54
f 80/12/53 55/11/54 54/12/53
f 83/13/24 82/13/24 81/13/24
f 82/13/24 83/13/24 84/13/24
f 84/13/24 83/13/24 23/13/24
f 84/13/24 23/13/24 85/13/24
f 23/13/24 83/13/24 28/13/24
f 86/13/24 28/13/24 83/13/24
f 28/13/24 86/13/24 30/13/24
f 30/13/24 86/13/24 87/13/24
f 87/13/24 86/13/24 88/13/24
f 87/13/24 88/13/24 89/13/24
f 89/13/24 88/13/24 34/13/24
f 34/13/24 88/13/24 90/13/24
f 34/13/24 90/13/24 27/13/24
f 27/13/24 90/13/24 25/13/24
f 85/13/24 23/13/24 25/13/24
f 85/13/24 25/13/24 90/13/24
f 85/13/24 90/13/24 91/13/24
f 85/13/24 91/13/24 92/13/24
f 95/11/41 94/11/41 93/11/41
f 94/11/41 95/11/41 96/11/41
f 96/11/41 95/11/41 97/11/41
f 96/11/41 97/11/41 98/11/41
f 98/11/41 97/11/41 99/11/41
f 99/11/41 97/11/41 100/11/41
f 100/11/41 97/11/41 101/11/41
f 101/11/41 97/11/41 102/11/41
f 99/11/32 90/13/55 88/13/32
f 90/13/55 99/11/32 100/11/55
f 98/11/34 88/13/32 86/13/34
f 88/13/32 98/11/34 99/11/32
f 96/11/56 86/13/34 83/13/56
f 86/13/34 96/11/56 98/11/34
f 96/11/56 81/13/29 94/11/29
f 81/13/29 96/11/56 83/13/56
f 94/11/29 82/13/57 93/11/57
f 82/13/57 94/11/29 81/13/29
f 90/13/55 101/11/27 91/13/27
f 101/11/27 90/13/55 100/11/55
f 91/13/27 102/11/58 92/13/58
f 102/11/58 91/13/27 101/11/27
f 97/11/59 84/13/60 85/13/59
f 84/13/60 97/11/59 95/11/60
f 92/13/58 97/11/59 85/13/59
f 97/11/59 92/13/58 102/11/58
f 93/11/57 84/13/60 95/11/60
f 84/13/60 93/11/57 82/13/57
f 105/11/36 104/15/36 103/14/36
f 104/15/36 105/11/36 106/15/36
f 108/14/38 104/15/37 107/15/37
f 104/15/37 108/14/38 103/14/38
f 109/15/39 108/14/39 107/15/39
f 108/14/39 109/15/39 110/11/39
f 105/11/61 109/15/61 106/15/61
f 109/15/61 105/11/61 110/11/61
f 108/14/38 105/11/40 103/14/38
f 105/11/40 108/14/38 110/11/40
f 76/16/41 74/16/41 75/16/41
f 74/16/41 76/16/41 79/16/41
f 74/16/41 79/16/41 73/16/41
f 73/16/41 79/16/41 52/16/41
f 73/16/41 52/16/41 48/16/41
f 73/16/41 48/16/41 77/16/41
f 77/16/41 72/16/41 73/16/41
f 72/16/41 77/16/41 70/16/41
f 72/16/41 70/16/41 71/16/41
f 113/18/35 112/17/34 111/17/35
f 112/17/34 113/18/35 114/18/34
f 117/18/32 116/17/33 115/17/32
f 116/17/33 117/18/32 118/18/33
f 114/18/34 115/17/32 112/17/34
f 115/17/32 114/18/34 117/18/32

g boat-tug-c




usemtl colormap

f 3/2/1 2/1/1 1/1/1
f 2/1/1 3/2/1 4/2/1
f 7/2/4 6/1/3 5/1/2
f 6/1/3 7/2/4 8/2/5
f 11/3/8 10/2/7 9/2/6
f 10/2/7 11/3/8 12/3/7
f 10/2/11 13/1/10 9/2/9
f 13/1/10 10/2/11 14/1/11
f 15/3/14 8/2/13 7/2/12
f 8/2/13 15/3/14 16/3/15
f 18/3/17 4/2/16 17/3/16
f 4/2/16 18/3/17 19/2/18
f 9/2/9 20/1/20 19/2/19
f 20/1/20 9/2/9 13/1/10
f 7/2/4 14/1/11 10/2/11
f 14/1/11 7/2/4 5/1/2
f 11/3/8 19/2/18 18/3/17
f 19/2/18 11/3/8 9/2/6
f 8/2/13 21/3/21 3/2/21
f 21/3/21 8/2/13 16/3/15
f 19/2/19 2/1/22 4/2/22
f 2/1/22 19/2/19 20/1/20
f 1/1/23 8/2/5 3/2/23
f 8/2/5 1/1/23 6/1/3
f 13/1/24 2/1/24 20/1/24
f 2/1/24 13/1/24 1/1/24
f 1/1/24 13/1/24 14/1/24
f 1/1/24 14/1/24 5/1/24
f 1/1/24 5/1/24 6/1/24
f 12/3/7 7/2/12 10/2/7
f 7/2/12 12/3/7 15/3/14
f 24/1/25 23/4/25 22/1/25
f 23/4/25 24/1/25 25/4/25
f 26/1/27 25/4/26 24/1/26
f 25/4/26 26/1/27 27/4/27
f 28/4/29 22/1/28 23/4/28
f 22/1/28 28/4/29 29/1/29
f 30/4/30 29/1/29 28/4/29
f 29/1/29 30/4/30 31/1/30
f 31/1/30 30/4/30 32/5/30
f 33/1/31 27/4/27 26/1/27
f 27/4/27 33/1/31 34/4/31
f 34/4/31 33/1/31 35/5/31
f 37/5/32 33/1/33 36/1/32
f 33/1/33 37/5/32 35/5/33
f 39/5/34 36/1/32 38/1/34
f 36/1/32 39/5/34 37/5/32
f 32/5/35 38/1/34 31/1/35
f 38/1/34 32/5/35 39/5/34
f 42/7/36 41/1/36 40/6/36
f 41/1/36 42/7/36 43/1/36
f 45/6/38 41/1/37 44/1/37
f 41/1/37 45/6/38 40/6/38
f 46/1/39 45/6/39 44/1/39
f 45/6/39 46/1/39 47/7/39
f 45/6/38 42/7/40 40/6/38
f 42/7/40 45/6/38 47/7/40
f 9/2/24 4/2/24 19/2/24
f 4/2/24 9/2/24 3/2/24
f 3/2/24 9/2/24 10/2/24
f 3/2/24 10/2/24 7/2/24
f 3/2/24 7/2/24 8/2/24
f 21/9/25 4/8/25 3/8/25
f 4/8/25 21/9/25 17/9/25
f 17/9/25 21/9/25 48/10/25
f 48/10/25 21/9/25 49/11/25
f 48/10/25 49/11/25 50/12/25
f 50/12/25 49/11/25 51/11/25
f 52/10/25 17/9/25 48/10/25
f 17/9/25 52/10/25 53/11/25
f 53/11/25 52/10/25 54/12/25
f 53/11/25 54/12/25 55/11/25
f 57/11/41 55/11/41 56/11/41
f 57/11/41 53/11/41 55/11/41
f 53/11/41 57/11/41 58/11/41
f 58/11/41 59/11/41 53/11/41
f 59/11/41 58/11/41 60/11/41
f 60/11/41 58/11/41 61/11/41
f 60/11/41 61/11/41 62/11/41
f 62/11/41 61/11/41 63/11/41
f 62/11/41 63/11/41 64/11/41
f 64/11/41 63/11/41 65/11/41
f 64/11/41 65/11/41 66/11/41
f 64/11/41 66/11/41 67/11/41
f 67/11/41 66/11/41 68/11/41
f 68/11/41 49/11/41 67/11/41
f 68/11/41 51/11/41 49/11/41
f 51/11/41 68/11/41 69/11/41
f 16/9/42 49/11/26 21/9/26
f 49/11/26 16/9/42 67/11/42
f 64/11/43 16/9/42 15/9/43
f 16/9/42 64/11/43 67/11/42
f 62/11/44 15/9/43 12/9/44
f 15/9/43 62/11/44 64/11/43
f 60/11/45 12/9/44 11/9/45
f 12/9/44 60/11/45 62/11/44
f 59/11/46 11/9/45 18/9/46
f 11/9/45 59/11/46 60/11/45
f 59/11/46 17/9/28 53/11/28
f 17/9/28 59/11/46 18/9/46
f 66/11/28 70/10/28 68/11/28
f 70/10/28 66/11/28 71/10/28
f 66/11/47 72/10/48 71/10/47
f 72/10/48 66/11/47 65/11/48
f 65/11/48 73/10/25 72/10/48
f 73/10/25 65/11/48 63/11/25
f 63/11/25 74/10/49 73/10/25
f 74/10/49 63/11/25 61/11/49
f 74/10/49 58/11/50 75/10/50
f 58/11/50 74/10/49 61/11/49
f 75/10/26 57/11/26 76/10/26
f 57/11/26 75/10/26 58/11/26
f 78/12/44 70/10/44 77/10/44
f 70/10/44 78/12/44 68/11/44
f 68/11/44 78/12/44 69/11/44
f 57/11/44 79/10/44 76/10/44
f 79/10/44 57/11/44 80/12/44
f 80/12/44 57/11/44 56/11/44
f 50/12/51 69/11/52 78/12/51
f 69/11/52 50/12/51 51/11/52
f 78/12/51 48/10/28 50/12/51
f 48/10/28 78/12/51 77/10/28
f 52/10/26 80/12/53 54/12/53
f 80/12/53 52/10/26 79/10/26
f 55/11/54 80/12/53 56/11/54
f 80/12/53 55/11/54 54/12/53
f 83/13/24 82/13/24 81/13/24
f 82/13/24 83/13/24 84/13/24
f 84/13/24 83/13/24 23/13/24
f 84/13/24 23/13/24 85/13/24
f 23/13/24 83/13/24 28/13/24
f 86/13/24 28/13/24 83/13/24
f 28/13/24 86/13/24 30/13/24
f 30/13/24 86/13/24 87/13/24
f 87/13/24 86/13/24 88/13/24
f 87/13/24 88/13/24 89/13/24
f 89/13/24 88/13/24 34/13/24
f 34/13/24 88/13/24 90/13/24
f 34/13/24 90/13/24 27/13/24
f 27/13/24 90/13/24 25/13/24
f 85/13/24 23/13/24 25/13/24
f 85/13/24 25/13/24 90/13/24
f 85/13/24 90/13/24 91/13/24
f 85/13/24 91/13/24 92/13/24
f 95/11/41 94/11/41 93/11/41
f 94/11/41 95/11/41 96/11/41
f 96/11/41 95/11/41 97/11/41
f 96/11/41 97/11/41 98/11/41
f 98/11/41 97/11/41 99/11/41
f 99/11/41 97/11/41 100/11/41
f 100/11/41 97/11/41 101/11/41
f 101/11/41 97/11/41 102/11/41
f 99/11/32 90/13/55 88/13/32
f 90/13/55 99/11/32 100/11/55
f 98/11/34 88/13/32 86/13/34
f 88/13/32 98/11/34 99/11/32
f 96/11/56 86/13/34 83/13/56
f 86/13/34 96/11/56 98/11/34
f 96/11/56 81/13/29 94/11/29
f 81/13/29 96/11/56 83/13/56
f 94/11/29 82/13/57 93/11/57
f 82/13/57 94/11/29 81/13/29
f 90/13/55 101/11/27 91/13/27
f 101/11/27 90/13/55 100/11/55
f 91/13/27 102/11/58 92/13/58
f 102/11/58 91/13/27 101/11/27
f 97/11/59 84/13/60 85/13/59
f 84/13/60 97/11/59 95/11/60
f 92/13/58 97/11/59 85/13/59
f 97/11/59 92/13/58 102/11/58
f 93/11/57 84/13/60 95/11/60
f 84/13/60 93/11/57 82/13/57
f 105/11/36 104/15/36 103/14/36
f 104/15/36 105/11/36 106/15/36
f 108/14/38 104/15/37 107/15/37
f 104/15/37 108/14/38 103/14/38
f 109/15/39 108/14/39 107/15/39
f 108/14/39 109/15/39 110/11/39
f 105/11/61 109/15/61 106/15/61
f 109/15/61 105/11/61 110/11/61
f 108/14/38 105/11/40 103/14/38
f 105/11/40 108/14/38 110/11/40
f 76/16/41 74/16/41 75/16/41
f 74/16/41 76/16/41 79/16/41
f 74/16/41 79/16/41 73/16/41
f 73/16/41 79/16/41 52/16/41
f 73/16/41 52/16/41 48/16/41
f 73/16/41 48/16/41 77/16/41
f 77/16/41 72/16/41 73/16/41
f 72/16/41 77/16/41 70/16/41
f 72/16/41 70/16/41 71/16/41
f 113/18/35 112/17/34 111/17/35
f 112/17/34 113/18/35 114/18/34
f 117/18/32 116/17/33 115/17/32
f 116/17/33 117/18/32 118/18/33
f 114/18/34 115/17/32 112/17/34
f 115/17/32 114/18/34 117/18/32

