# Created by Kenney (www.kenney.nl)

mtllib buoy-flag.mtl

g buoy-flag

v 0.4641 -0.2 -1.667615E-13 1 1 1
v 0.3281683 -0.2 -0.3281683 1 1 1
v 0.32487 -0.3 -1.162277E-13 1 1 1
v 0.2297178 -0.3 -0.2297178 1 1 1
v 1.674834E-13 -0.2 0.4641 1 1 1
v 1.126182E-13 -0.3 0.32487 1 1 1
v -0.3281683 -0.2 0.3281683 1 1 1
v -0.2297178 -0.3 0.2297178 1 1 1
v 0.3281683 -0.2 0.3281683 1 1 1
v 0.2297178 -0.3 0.2297178 1 1 1
v -0.32487 -0.3 1.169496E-13 1 1 1
v -0.4641 -0.2 1.674834E-13 1 1 1
v -0.2297178 -0.3 -0.2297178 1 1 1
v -0.3281683 -0.2 -0.3281683 1 1 1
v -1.155058E-13 -0.3 -0.32487 1 1 1
v -1.703711E-13 -0.2 -0.4641 1 1 1
v 0.1969009 1.5441 0.1969009 1 1 1
v -0.1969009 1.5441 0.1969009 1 1 1
v 0.1969009 1.5441 -0.1969009 1 1 1
v -0.1969009 1.5441 -0.1969009 1 1 1
v -0.2461262 1.3341 -0.2461262 1 1 1
v -0.2461262 1.3341 0.2461262 1 1 1
v 0.2461262 1.3341 0.2461262 1 1 1
v 0.2461262 1.3341 -0.2461262 1 1 1
v 0.07281534 2.417518 -0.07281534 1 1 1
v 0.07281534 2.417518 0.07281534 1 1 1
v -0.07281534 2.417518 -0.07281534 1 1 1
v -0.07281534 2.417518 0.07281534 1 1 1
v 0.07281534 1.5441 0.07281534 1 1 1
v 0.07281534 1.5441 -0.07281534 1 1 1
v -0.07281534 1.5441 0.07281534 1 1 1
v -0.07281534 1.5441 -0.07281534 1 1 1
v -0.3281683 0.1141 -0.3281683 1 1 1
v -1.703711E-13 0.1141 -0.4641 1 1 1
v 0.4641 0.1141 -1.667615E-13 1 1 1
v 0.3281683 0.1141 0.3281683 1 1 1
v -0.4641 0.1141 1.674834E-13 1 1 1
v 1.674834E-13 0.1141 0.4641 1 1 1
v 0.3281683 0.1141 -0.3281683 1 1 1
v -0.3281683 0.1141 0.3281683 1 1 1
v -0.1786231 0.1141 0.2969009 1 1 1
v -0.2969009 0.1141 0.2969009 1 1 1
v -0.07862312 1.0141 0.1969009 1 1 1
v -0.1969009 1.0141 0.1969009 1 1 1
v 0.07862312 1.0141 0.07862312 1 1 1
v 0.07862312 1.0141 0.1969009 1 1 1
v 0.1786231 0.1141 0.1786231 1 1 1
v 0.1786231 0.1141 0.2969009 1 1 1
v 0.1786231 0.1141 -0.2969009 1 1 1
v 0.2969009 0.1141 -0.2969009 1 1 1
v 0.07862312 1.0141 -0.1969009 1 1 1
v 0.1969009 1.0141 -0.1969009 1 1 1
v -0.2969009 0.1141 0.1786231 1 1 1
v -0.1786231 0.1141 0.1786231 1 1 1
v -0.1969009 1.0141 0.07862312 1 1 1
v -0.07862312 1.0141 0.07862312 1 1 1
v 0.1786231 0.1141 -0.1786231 1 1 1
v 0.07862312 1.0141 -0.07862312 1 1 1
v 0.1969009 1.0141 0.07862312 1 1 1
v 0.2969009 0.1141 0.1786231 1 1 1
v 0.1969009 1.0141 0.1969009 1 1 1
v 0.2969009 0.1141 0.2969009 1 1 1
v 0.2969009 0.1141 -0.1786231 1 1 1
v 0.1969009 1.0141 -0.07862312 1 1 1
v -0.1786231 0.1141 -0.2969009 1 1 1
v -0.1786231 0.1141 -0.1786231 1 1 1
v -0.07862312 1.0141 -0.1969009 1 1 1
v -0.07862312 1.0141 -0.07862312 1 1 1
v -0.2969009 0.1141 -0.2969009 1 1 1
v -0.1969009 1.0141 -0.1969009 1 1 1
v -0.2969009 0.1141 -0.1786231 1 1 1
v -0.1969009 1.0141 -0.07862312 1 1 1
v 0.0818769 1.6441 0.1228153 1 1 1
v -0.0818769 1.6441 0.1228153 1 1 1
v 0.0818769 1.784118 0.1228153 1 1 1
v -0.0818769 1.784118 0.1228153 1 1 1
v 0.1228153 1.6441 0.0818769 1 1 1
v 0.1228153 1.6441 -0.0818769 1 1 1
v 0.0818769 1.6441 -0.1228153 1 1 1
v -0.0818769 1.6441 -0.1228153 1 1 1
v -0.1228153 1.6441 0.0818769 1 1 1
v -0.1228153 1.6441 -0.0818769 1 1 1
v 0.1228153 1.784118 0.0818769 1 1 1
v 0.1228153 2.1775 0.0818769 1 1 1
v 0.1228153 2.1775 -0.0818769 1 1 1
v 0.0818769 2.1775 0.1228153 1 1 1
v 0.0818769 2.1775 -0.1228153 1 1 1
v -0.0818769 2.1775 0.1228153 1 1 1
v -0.0818769 2.1775 -0.1228153 1 1 1
v -0.1228153 2.1775 0.0818769 1 1 1
v -0.1228153 2.1775 -0.0818769 1 1 1
v 0.1228153 1.784118 -0.0818769 1 1 1
v 0.0818769 1.784118 -0.1228153 1 1 1
v -0.0818769 1.784118 -0.1228153 1 1 1
v -0.1228153 1.784118 -0.0818769 1 1 1
v -0.1228153 1.784118 0.0818769 1 1 1
v 0.1228153 2.317518 0.0818769 1 1 1
v 0.0818769 2.317518 0.1228153 1 1 1
v 0.1228153 2.317518 -0.0818769 1 1 1
v 0.0818769 2.317518 -0.1228153 1 1 1
v -0.0818769 2.317518 -0.1228153 1 1 1
v -0.0818769 2.317518 0.1228153 1 1 1
v -0.1228153 2.317518 -0.0818769 1 1 1
v -0.1228153 2.317518 0.0818769 1 1 1
v -0.0386085 2.31085 -0.7666129 1 1 1
v -0.0386085 1.6441 -0.7666129 1 1 1
v -0.0386085 2.31085 -0.6979967 1 1 1
v -0.0386085 1.6441 -0.6979967 1 1 1
v 0.04751816 2.31085 -0.567251 1 1 1
v 0.04751816 1.6441 -0.567251 1 1 1
v 0.04751816 2.31085 -0.4828002 1 1 1
v 0.04751816 1.6441 -0.4828002 1 1 1
v -0.06830735 2.31085 -0.3069697 1 1 1
v -0.06830735 1.6441 -0.3069697 1 1 1
v 0 2.31085 -0.8252231 1 1 1
v 0 1.6441 -0.8252231 1 1 1
v -0.06830735 2.31085 -0.1855718 1 1 1
v -0.06830735 1.6441 -0.1855718 1 1 1
v 0 2.31085 -0.0818769 1 1 1
v 0 1.6441 -0.0818769 1 1 1
v 0 2.31085 -0.6393865 1 1 1
v 0 1.6441 -0.6393865 1 1 1

vn 0.5833607 -0.8122131 0
vn 0.4124984 -0.8122131 -0.4124984
vn 0 -0.8122131 0.5833607
vn -0.4124984 -0.8122131 0.4124984
vn 0.4124984 -0.8122131 0.4124984
vn -0.5833607 -0.8122131 0
vn -0.4124984 -0.8122131 -0.4124984
vn 0 -0.8122131 -0.5833607
vn 0 -1 0
vn 0 1 0
vn -0.9736096 0.2282198 0
vn 0 0.2282198 0.9736096
vn 0.9736096 0.2282198 0
vn 0 0.2282198 -0.9736096
vn 0 0 -1
vn -1 0 0
vn 0 0 1
vn 1 0 0
vn -0.7071068 0 -0.7071068
vn 0.7071068 0 0.7071068
vn -0.7071068 0 0.7071068
vn 0.7071068 0 -0.7071068
vn 0 0.1104315 0.9938837
vn -0.9938837 -0.1104315 0
vn 0 0.1104315 -0.9938837
vn 0 -0.1104315 -0.9938837
vn 0.9938837 0.1104315 0
vn 0.9938837 -0.1104315 0
vn 0 -0.1104315 0.9938837
vn -0.9938837 0.1104315 0
vn 0 -0.1520405 0.9883742
vn 0 -0.1520405 -0.9883742
vn -0.9883742 -0.1520405 0
vn 0.9883742 -0.1520405 0
vn 0.3826834 0 0.9238795
vn -0.3826834 0 0.9238795
vn 0.9238795 0 0.3826834
vn -0.9238795 0 -0.3826834
vn -0.9238795 0 0.3826834
vn 0.3826834 0 -0.9238795
vn 0.9238795 0 -0.3826834
vn -0.3826834 0 -0.9238795
vn 0.9578871 0 0.2871453
vn 0.9578871 0 -0.2871453
vn -0.9578871 0 0.2871453
vn -0.9578871 0 -0.2871453
vn 0.8350952 0 0.5501054
vn -0.8350952 0 -0.5501054
vn 0.8350952 0 -0.5501054
vn -0.8350952 0 0.5501054

vt 0.59375 0.025
vt 0.59375 0.225
vt 0.59375 0.1956294
vt 0.71875 0.275
vt 0.71875 0.475
vt 0.71875 0.4008741
vt 0.71875 0.4456294
vt 0.71875 0.3165842
vt 0.71875 0.4334158

usemtl colormap

f 3/1/1 2/1/2 1/1/1
f 2/1/2 3/1/1 4/1/2
f 7/1/4 6/1/3 5/1/3
f 6/1/3 7/1/4 8/1/4
f 9/1/5 3/1/1 1/1/1
f 3/1/1 9/1/5 10/1/5
f 7/1/4 11/1/6 8/1/4
f 11/1/6 7/1/4 12/1/6
f 11/1/6 14/1/7 13/1/7
f 14/1/7 11/1/6 12/1/6
f 13/1/7 16/1/8 15/1/8
f 16/1/8 13/1/7 14/1/7
f 4/1/2 16/1/8 2/1/2
f 16/1/8 4/1/2 15/1/8
f 5/1/3 10/1/5 9/1/5
f 10/1/5 5/1/3 6/1/3
f 10/1/9 4/1/9 3/1/9
f 4/1/9 10/1/9 6/1/9
f 4/1/9 6/1/9 15/1/9
f 15/1/9 6/1/9 8/1/9
f 15/1/9 8/1/9 13/1/9
f 13/1/9 8/1/9 11/1/9
f 19/2/10 18/2/10 17/2/10
f 18/2/10 19/2/10 20/2/10
f 22/3/11 20/2/11 21/3/11
f 20/2/11 22/3/11 18/2/11
f 17/2/12 22/3/12 23/3/12
f 22/3/12 17/2/12 18/2/12
f 19/2/13 23/3/13 24/3/13
f 23/3/13 19/2/13 17/2/13
f 20/2/14 24/3/14 21/3/14
f 24/3/14 20/2/14 19/2/14
f 27/2/10 26/2/10 25/2/10
f 26/2/10 27/2/10 28/2/10
f 31/1/9 30/1/9 29/1/9
f 30/1/9 31/1/9 32/1/9
f 27/2/15 30/1/15 32/1/15
f 30/1/15 27/2/15 25/2/15
f 31/1/16 27/2/16 32/1/16
f 27/2/16 31/1/16 28/2/16
f 26/2/17 31/1/17 29/1/17
f 31/1/17 26/2/17 28/2/17
f 26/2/18 30/1/18 25/2/18
f 30/1/18 26/2/18 29/1/18
f 9/4/9 2/4/9 1/4/9
f 2/4/9 9/4/9 5/4/9
f 2/4/9 5/4/9 16/4/9
f 16/4/9 5/4/9 7/4/9
f 16/4/9 7/4/9 14/4/9
f 14/4/9 7/4/9 12/4/9
f 33/5/19 16/4/15 14/4/19
f 16/4/15 33/5/19 34/5/15
f 36/5/20 1/4/18 35/5/18
f 1/4/18 36/5/20 9/4/20
f 12/4/16 33/5/19 14/4/19
f 33/5/19 12/4/16 37/5/16
f 36/5/20 5/4/17 9/4/20
f 5/4/17 36/5/20 38/5/17
f 39/5/10 36/5/10 35/5/10
f 36/5/10 39/5/10 38/5/10
f 38/5/10 39/5/10 34/5/10
f 38/5/10 34/5/10 40/5/10
f 40/5/10 34/5/10 33/5/10
f 40/5/10 33/5/10 37/5/10
f 7/4/21 37/5/16 12/4/16
f 37/5/16 7/4/21 40/5/21
f 34/5/15 2/4/22 16/4/15
f 2/4/22 34/5/15 39/5/22
f 35/5/18 2/4/22 39/5/22
f 2/4/22 35/5/18 1/4/18
f 38/5/17 7/4/21 5/4/17
f 7/4/21 38/5/17 40/5/21
f 43/6/23 42/4/23 41/4/23
f 42/4/23 43/6/23 44/6/23
f 47/4/24 46/6/24 45/6/24
f 46/6/24 47/4/24 48/4/24
f 51/6/25 50/4/25 49/4/25
f 50/4/25 51/6/25 52/6/25
f 55/6/26 54/4/26 53/4/26
f 54/4/26 55/6/26 56/6/26
f 57/4/24 51/6/24 49/4/24
f 51/6/24 57/4/24 58/6/24
f 61/6/27 60/4/27 59/6/27
f 60/4/27 61/6/27 62/4/27
f 52/6/27 63/4/27 50/4/27
f 63/4/27 52/6/27 64/6/27
f 67/6/28 66/4/28 65/4/28
f 66/4/28 67/6/28 68/6/28
f 70/6/25 65/4/25 69/4/25
f 65/4/25 70/6/25 67/6/25
f 43/6/28 54/4/28 56/6/28
f 54/4/28 43/6/28 41/4/28
f 68/6/29 71/4/29 66/4/29
f 71/4/29 68/6/29 72/6/29
f 45/6/26 60/4/26 47/4/26
f 60/4/26 45/6/26 59/6/26
f 61/6/23 48/4/23 62/4/23
f 48/4/23 61/6/23 46/6/23
f 64/6/29 57/4/29 63/4/29
f 57/4/29 64/6/29 58/6/29
f 68/6/9 55/6/9 72/6/9
f 55/6/9 68/6/9 56/6/9
f 67/6/9 56/6/9 68/6/9
f 51/6/9 56/6/9 67/6/9
f 51/6/9 43/6/9 56/6/9
f 58/6/9 43/6/9 51/6/9
f 45/6/9 43/6/9 58/6/9
f 43/6/9 45/6/9 46/6/9
f 64/6/9 45/6/9 58/6/9
f 45/6/9 64/6/9 59/6/9
f 71/4/30 70/6/30 69/4/30
f 70/6/30 71/4/30 72/6/30
f 53/4/30 44/6/30 55/6/30
f 44/6/30 53/4/30 42/4/30
f 23/7/31 46/6/31 61/6/31
f 46/6/31 23/7/31 44/6/31
f 44/6/31 23/7/31 22/7/31
f 44/6/31 43/6/31 46/6/31
f 21/7/32 67/6/32 70/6/32
f 67/6/32 21/7/32 51/6/32
f 24/7/32 51/6/32 21/7/32
f 51/6/32 24/7/32 52/6/32
f 70/6/33 22/7/33 21/7/33
f 22/7/33 70/6/33 72/6/33
f 22/7/33 72/6/33 55/6/33
f 22/7/33 55/6/33 44/6/33
f 23/7/34 52/6/34 24/7/34
f 52/6/34 23/7/34 64/6/34
f 64/6/34 23/7/34 59/6/34
f 59/6/34 23/7/34 61/6/34
f 75/8/35 74/4/36 73/4/35
f 74/4/36 75/8/35 76/8/36
f 73/4/9 78/4/9 77/4/9
f 78/4/9 73/4/9 79/4/9
f 79/4/9 73/4/9 74/4/9
f 79/4/9 74/4/9 80/4/9
f 80/4/9 74/4/9 81/4/9
f 80/4/9 81/4/9 82/4/9
f 75/8/35 77/4/37 83/8/37
f 77/4/37 75/8/35 73/4/35
f 86/9/9 85/9/9 84/9/9
f 85/9/9 86/9/9 87/9/9
f 87/9/9 86/9/9 88/9/9
f 87/9/9 88/9/9 89/9/9
f 89/9/9 88/9/9 90/9/9
f 89/9/9 90/9/9 91/9/9
f 93/8/10 83/8/10 92/8/10
f 83/8/10 93/8/10 75/8/10
f 75/8/10 93/8/10 94/8/10
f 75/8/10 94/8/10 76/8/10
f 76/8/10 94/8/10 95/8/10
f 76/8/10 95/8/10 96/8/10
f 81/4/39 95/8/38 82/4/38
f 95/8/38 81/4/39 96/8/39
f 98/5/35 84/9/37 97/5/37
f 84/9/37 98/5/35 86/9/35
f 92/8/41 79/4/40 93/8/40
f 79/4/40 92/8/41 78/4/41
f 100/5/10 97/5/10 99/5/10
f 97/5/10 100/5/10 98/5/10
f 98/5/10 100/5/10 101/5/10
f 98/5/10 101/5/10 102/5/10
f 102/5/10 101/5/10 103/5/10
f 102/5/10 103/5/10 104/5/10
f 94/8/42 79/4/40 80/4/42
f 79/4/40 94/8/42 93/8/40
f 97/5/37 85/9/41 99/5/41
f 85/9/41 97/5/37 84/9/37
f 98/5/35 88/9/36 86/9/35
f 88/9/36 98/5/35 102/5/36
f 101/5/42 87/9/40 89/9/42
f 87/9/40 101/5/42 100/5/40
f 99/5/41 87/9/40 100/5/40
f 87/9/40 99/5/41 85/9/41
f 83/8/37 78/4/41 92/8/41
f 78/4/41 83/8/37 77/4/37
f 76/8/36 81/4/39 74/4/36
f 81/4/39 76/8/36 96/8/39
f 102/5/36 90/9/39 88/9/36
f 90/9/39 102/5/36 104/5/39
f 90/9/39 103/5/38 91/9/38
f 103/5/38 90/9/39 104/5/39
f 103/5/38 89/9/42 91/9/38
f 89/9/42 103/5/38 101/5/42
f 95/8/38 80/4/42 82/4/38
f 80/4/42 95/8/38 94/8/42
f 107/5/44 106/4/43 105/5/43
f 106/4/43 107/5/44 108/4/44
f 105/5/46 106/4/46 107/5/45
f 108/4/45 107/5/45 106/4/46
f 111/5/43 110/4/44 109/5/44
f 110/4/44 111/5/43 112/4/43
f 109/5/45 110/4/45 111/5/46
f 112/4/46 111/5/46 110/4/45
f 113/5/43 112/4/43 111/5/43
f 112/4/43 113/5/43 114/4/43
f 111/5/46 112/4/46 113/5/46
f 114/4/46 113/5/46 112/4/46
f 105/5/43 116/4/47 115/5/47
f 116/4/47 105/5/43 106/4/43
f 115/5/48 116/4/48 105/5/46
f 106/4/46 105/5/46 116/4/48
f 117/5/44 114/4/43 113/5/43
f 114/4/43 117/5/44 118/4/44
f 113/5/46 114/4/46 117/5/45
f 118/4/45 117/5/45 114/4/46
f 119/5/49 118/4/44 117/5/44
f 118/4/44 119/5/49 120/4/49
f 117/5/45 118/4/45 119/5/50
f 120/4/50 119/5/50 118/4/45
f 121/5/49 108/4/44 107/5/44
f 108/4/44 121/5/49 122/4/49
f 122/4/49 121/5/49 109/5/44
f 122/4/49 109/5/44 110/4/44
f 107/5/45 108/4/45 121/5/50
f 122/4/50 121/5/50 108/4/45
f 109/5/45 121/5/50 122/4/50
f 110/4/45 109/5/45 122/4/50

g buoy-flag




usemtl colormap

f 3/1/1 2/1/2 1/1/1
f 2/1/2 3/1/1 4/1/2
f 7/1/4 6/1/3 5/1/3
f 6/1/3 7/1/4 8/1/4
f 9/1/5 3/1/1 1/1/1
f 3/1/1 9/1/5 10/1/5
f 7/1/4 11/1/6 8/1/4
f 11/1/6 7/1/4 12/1/6
f 11/1/6 14/1/7 13/1/7
f 14/1/7 11/1/6 12/1/6
f 13/1/7 16/1/8 15/1/8
f 16/1/8 13/1/7 14/1/7
f 4/1/2 16/1/8 2/1/2
f 16/1/8 4/1/2 15/1/8
f 5/1/3 10/1/5 9/1/5
f 10/1/5 5/1/3 6/1/3
f 10/1/9 4/1/9 3/1/9
f 4/1/9 10/1/9 6/1/9
f 4/1/9 6/1/9 15/1/9
f 15/1/9 6/1/9 8/1/9
f 15/1/9 8/1/9 13/1/9
f 13/1/9 8/1/9 11/1/9
f 19/2/10 18/2/10 17/2/10
f 18/2/10 19/2/10 20/2/10
f 22/3/11 20/2/11 21/3/11
f 20/2/11 22/3/11 18/2/11
f 17/2/12 22/3/12 23/3/12
f 22/3/12 17/2/12 18/2/12
f 19/2/13 23/3/13 24/3/13
f 23/3/13 19/2/13 17/2/13
f 20/2/14 24/3/14 21/3/14
f 24/3/14 20/2/14 19/2/14
f 27/2/10 26/2/10 25/2/10
f 26/2/10 27/2/10 28/2/10
f 31/1/9 30/1/9 29/1/9
f 30/1/9 31/1/9 32/1/9
f 27/2/15 30/1/15 32/1/15
f 30/1/15 27/2/15 25/2/15
f 31/1/16 27/2/16 32/1/16
f 27/2/16 31/1/16 28/2/16
f 26/2/17 31/1/17 29/1/17
f 31/1/17 26/2/17 28/2/17
f 26/2/18 30/1/18 25/2/18
f 30/1/18 26/2/18 29/1/18
f 9/4/9 2/4/9 1/4/9
f 2/4/9 9/4/9 5/4/9
f 2/4/9 5/4/9 16/4/9
f 16/4/9 5/4/9 7/4/9
f 16/4/9 7/4/9 14/4/9
f 14/4/9 7/4/9 12/4/9
f 33/5/19 16/4/15 14/4/19
f 16/4/15 33/5/19 34/5/15
f 36/5/20 1/4/18 35/5/18
f 1/4/18 36/5/20 9/4/20
f 12/4/16 33/5/19 14/4/19
f 33/5/19 12/4/16 37/5/16
f 36/5/20 5/4/17 9/4/20
f 5/4/17 36/5/20 38/5/17
f 39/5/10 36/5/10 35/5/10
f 36/5/10 39/5/10 38/5/10
f 38/5/10 39/5/10 34/5/10
f 38/5/10 34/5/10 40/5/10
f 40/5/10 34/5/10 33/5/10
f 40/5/10 33/5/10 37/5/10
f 7/4/21 37/5/16 12/4/16
f 37/5/16 7/4/21 40/5/21
f 34/5/15 2/4/22 16/4/15
f 2/4/22 34/5/15 39/5/22
f 35/5/18 2/4/22 39/5/22
f 2/4/22 35/5/18 1/4/18
f 38/5/17 7/4/21 5/4/17
f 7/4/21 38/5/17 40/5/21
f 43/6/23 42/4/23 41/4/23
f 42/4/23 43/6/23 44/6/23
f 47/4/24 46/6/24 45/6/24
f 46/6/24 47/4/24 48/4/24
f 51/6/25 50/4/25 49/4/25
f 50/4/25 51/6/25 52/6/25
f 55/6/26 54/4/26 53/4/26
f 54/4/26 55/6/26 56/6/26
f 57/4/24 51/6/24 49/4/24
f 51/6/24 57/4/24 58/6/24
f 61/6/27 60/4/27 59/6/27
f 60/4/27 61/6/27 62/4/27
f 52/6/27 63/4/27 50/4/27
f 63/4/27 52/6/27 64/6/27
f 67/6/28 66/4/28 65/4/28
f 66/4/28 67/6/28 68/6/28
f 70/6/25 65/4/25 69/4/25
f 65/4/25 70/6/25 67/6/25
f 43/6/28 54/4/28 56/6/28
f 54/4/28 43/6/28 41/4/28
f 68/6/29 71/4/29 66/4/29
f 71/4/29 68/6/29 72/6/29
f 45/6/26 60/4/26 47/4/26
f 60/4/26 45/6/26 59/6/26
f 61/6/23 48/4/23 62/4/23
f 48/4/23 61/6/23 46/6/23
f 64/6/29 57/4/29 63/4/29
f 57/4/29 64/6/29 58/6/29
f 68/6/9 55/6/9 72/6/9
f 55/6/9 68/6/9 56/6/9
f 67/6/9 56/6/9 68/6/9
f 51/6/9 56/6/9 67/6/9
f 51/6/9 43/6/9 56/6/9
f 58/6/9 43/6/9 51/6/9
f 45/6/9 43/6/9 58/6/9
f 43/6/9 45/6/9 46/6/9
f 64/6/9 45/6/9 58/6/9
f 45/6/9 64/6/9 59/6/9
f 71/4/30 70/6/30 69/4/30
f 70/6/30 71/4/30 72/6/30
f 53/4/30 44/6/30 55/6/30
f 44/6/30 53/4/30 42/4/30
f 23/7/31 46/6/31 61/6/31
f 46/6/31 23/7/31 44/6/31
f 44/6/31 23/7/31 22/7/31
f 44/6/31 43/6/31 46/6/31
f 21/7/32 67/6/32 70/6/32
f 67/6/32 21/7/32 51/6/32
f 24/7/32 51/6/32 21/7/32
f 51/6/32 24/7/32 52/6/32
f 70/6/33 22/7/33 21/7/33
f 22/7/33 70/6/33 72/6/33
f 22/7/33 72/6/33 55/6/33
f 22/7/33 55/6/33 44/6/33
f 23/7/34 52/6/34 24/7/34
f 52/6/34 23/7/34 64/6/34
f 64/6/34 23/7/34 59/6/34
f 59/6/34 23/7/34 61/6/34
f 75/8/35 74/4/36 73/4/35
f 74/4/36 75/8/35 76/8/36
f 73/4/9 78/4/9 77/4/9
f 78/4/9 73/4/9 79/4/9
f 79/4/9 73/4/9 74/4/9
f 79/4/9 74/4/9 80/4/9
f 80/4/9 74/4/9 81/4/9
f 80/4/9 81/4/9 82/4/9
f 75/8/35 77/4/37 83/8/37
f 77/4/37 75/8/35 73/4/35
f 86/9/9 85/9/9 84/9/9
f 85/9/9 86/9/9 87/9/9
f 87/9/9 86/9/9 88/9/9
f 87/9/9 88/9/9 89/9/9
f 89/9/9 88/9/9 90/9/9
f 89/9/9 90/9/9 91/9/9
f 93/8/10 83/8/10 92/8/10
f 83/8/10 93/8/10 75/8/10
f 75/8/10 93/8/10 94/8/10
f 75/8/10 94/8/10 76/8/10
f 76/8/10 94/8/10 95/8/10
f 76/8/10 95/8/10 96/8/10
f 81/4/39 95/8/38 82/4/38
f 95/8/38 81/4/39 96/8/39
f 98/5/35 84/9/37 97/5/37
f 84/9/37 98/5/35 86/9/35
f 92/8/41 79/4/40 93/8/40
f 79/4/40 92/8/41 78/4/41
f 100/5/10 97/5/10 99/5/10
f 97/5/10 100/5/10 98/5/10
f 98/5/10 100/5/10 101/5/10
f 98/5/10 101/5/10 102/5/10
f 102/5/10 101/5/10 103/5/10
f 102/5/10 103/5/10 104/5/10
f 94/8/42 79/4/40 80/4/42
f 79/4/40 94/8/42 93/8/40
f 97/5/37 85/9/41 99/5/41
f 85/9/41 97/5/37 84/9/37
f 98/5/35 88/9/36 86/9/35
f 88/9/36 98/5/35 102/5/36
f 101/5/42 87/9/40 89/9/42
f 87/9/40 101/5/42 100/5/40
f 99/5/41 87/9/40 100/5/40
f 87/9/40 99/5/41 85/9/41
f 83/8/37 78/4/41 92/8/41
f 78/4/41 83/8/37 77/4/37
f 76/8/36 81/4/39 74/4/36
f 81/4/39 76/8/36 96/8/39
f 102/5/36 90/9/39 88/9/36
f 90/9/39 102/5/36 104/5/39
f 90/9/39 103/5/38 91/9/38
f 103/5/38 90/9/39 104/5/39
f 103/5/38 89/9/42 91/9/38
f 89/9/42 103/5/38 101/5/42
f 95/8/38 80/4/42 82/4/38
f 80/4/42 95/8/38 94/8/42
f 107/5/44 106/4/43 105/5/43
f 106/4/43 107/5/44 108/4/44
f 105/5/46 106/4/46 107/5/45
f 108/4/45 107/5/45 106/4/46
f 111/5/43 110/4/44 109/5/44
f 110/4/44 111/5/43 112/4/43
f 109/5/45 110/4/45 111/5/46
f 112/4/46 111/5/46 110/4/45
f 113/5/43 112/4/43 111/5/43
f 112/4/43 113/5/43 114/4/43
f 111/5/46 112/4/46 113/5/46
f 114/4/46 113/5/46 112/4/46
f 105/5/43 116/4/47 115/5/47
f 116/4/47 105/5/43 106/4/43
f 115/5/48 116/4/48 105/5/46
f 106/4/46 105/5/46 116/4/48
f 117/5/44 114/4/43 113/5/43
f 114/4/43 117/5/44 118/4/44
f 113/5/46 114/4/46 117/5/45
f 118/4/45 117/5/45 114/4/46
f 119/5/49 118/4/44 117/5/44
f 118/4/44 119/5/49 120/4/49
f 117/5/45 118/4/45 119/5/50
f 120/4/50 119/5/50 118/4/45
f 121/5/49 108/4/44 107/5/44
f 108/4/44 121/5/49 122/4/49
f 122/4/49 121/5/49 109/5/44
f 122/4/49 109/5/44 110/4/44
f 107/5/45 108/4/45 121/5/50
f 122/4/50 121/5/50 108/4/45
f 109/5/45 121/5/50 122/4/50
f 110/4/45 109/5/45 122/4/50

