# Created by Kenney (www.kenney.nl)

mtllib cargo-pile-a.mtl

g cargo-pile-a

v -0.9797322 0 -0.01123028 1 1 1
v -0.6575496 0 0.7665871 1 1 1
v -0.6575496 0 -0.7890477 1 1 1
v 0.1202678 0 -1.11123 1 1 1
v 0.1202678 0 1.08877 1 1 1
v 0.8980852 0 -0.7890477 1 1 1
v 0.8980852 0 0.7665871 1 1 1
v 1.220268 0 -0.01123028 1 1 1
v -1.269988 1.443823E-15 -0.6391926 1 1 1
v -1.054126 1.443823E-15 -0.1180549 1 1 1
v -1.054126 1.443823E-15 -1.16033 1 1 1
v -0.5329878 1.443823E-15 -1.376193 1 1 1
v -0.5329878 1.443823E-15 0.09780747 1 1 1
v -0.01185012 1.443823E-15 -1.16033 1 1 1
v -0.01185012 1.443823E-15 -0.1180549 1 1 1
v 0.2040122 1.443823E-15 -0.6391926 1 1 1
v 0.1202677 0 -0.6860903 1 1 1
v 0.2886404 0 -0.2796029 1 1 1
v 0.2886404 0 -1.092578 1 1 1
v 0.6951278 0 -1.26095 1 1 1
v 0.6951278 0 -0.1112303 1 1 1
v 1.101615 0 -1.092578 1 1 1
v 1.101615 0 -0.2796029 1 1 1
v 1.269988 0 -0.6860903 1 1 1
v -0.2284451 1.082867E-15 0.7202626 1 1 1
v -0.03632757 1.082867E-15 1.184075 1 1 1
v -0.03632757 1.082867E-15 0.2564501 1 1 1
v 0.427485 1.082867E-15 0.06433254 1 1 1
v 0.427485 1.082867E-15 1.376193 1 1 1
v 0.8912975 1.082867E-15 0.2564501 1 1 1
v 0.8912975 1.082867E-15 1.184075 1 1 1
v 1.083415 1.082867E-15 0.7202626 1 1 1
v 0.7658563 0.8 0.6343582 1 1 1
v 0.5140768 1.2 0.3825787 1 1 1
v 1.033268 0.8 -0.01123028 1 1 1
v 0.6771978 1.2 -0.01123028 1 1 1
v -0.4366622 1.2 -0.01123028 1 1 1
v -0.2735412 1.2 -0.4050393 1 1 1
v -0.2735412 1.2 0.3825787 1 1 1
v 0.1202678 1.2 0.5456997 1 1 1
v 0.1202678 1.2 -0.5681603 1 1 1
v 0.5140768 1.2 -0.4050393 1 1 1
v 0.1202678 0.8 0.9017697 1 1 1
v -0.5253207 0.8 0.6343582 1 1 1
v 0.1202678 0.8 -0.9242303 1 1 1
v 0.7658563 0.8 -0.6568188 1 1 1
v -0.7927322 0.8 -0.01123028 1 1 1
v -0.5253207 0.8 -0.6568188 1 1 1
v -0.1004435 0.536 -0.2066483 1 1 1
v -0.2691358 0.8040001 -0.3753406 1 1 1
v 0.07872218 0.536 -0.6391926 1 1 1
v -0.1598447 0.8040001 -0.6391926 1 1 1
v -0.9061309 0.8040001 -0.6391926 1 1 1
v -0.7968398 0.8040001 -0.9030446 1 1 1
v -0.7968398 0.8040001 -0.3753406 1 1 1
v -0.5329878 0.8040001 -0.2660495 1 1 1
v -0.5329878 0.8040001 -1.012336 1 1 1
v -0.2691358 0.8040001 -0.9030446 1 1 1
v -0.5329878 0.536 -0.02748257 1 1 1
v -0.9655322 0.536 -0.2066483 1 1 1
v -0.5329878 0.536 -1.250903 1 1 1
v -0.1004435 0.536 -1.071737 1 1 1
v -1.144698 0.536 -0.6391926 1 1 1
v -0.9655322 0.536 -1.071737 1 1 1
v 1.032512 0.41808 -0.3487057 1 1 1
v 0.9009324 0.62712 -0.4802857 1 1 1
v 1.172262 0.41808 -0.6860903 1 1 1
v 0.9861794 0.62712 -0.6860903 1 1 1
v 0.4040762 0.62712 -0.6860903 1 1 1
v 0.4893232 0.62712 -0.8918949 1 1 1
v 0.4893232 0.62712 -0.4802857 1 1 1
v 0.6951278 0.62712 -0.3950387 1 1 1
v 0.6951278 0.62712 -0.9771419 1 1 1
v 0.9009324 0.62712 -0.8918949 1 1 1
v 0.6951278 0.41808 -0.2089565 1 1 1
v 0.3577432 0.41808 -0.3487057 1 1 1
v 0.6951278 0.41808 -1.163224 1 1 1
v 1.032512 0.41808 -1.023475 1 1 1
v 0.217994 0.41808 -0.6860903 1 1 1
v 0.3577432 0.41808 -1.023475 1 1 1
v 0.8124494 0.47704 1.105227 1 1 1
v 0.6623133 0.71556 0.9550909 1 1 1
v 0.9719069 0.47704 0.7202626 1 1 1
v 0.7595823 0.71556 0.7202626 1 1 1
v 0.09538761 0.71556 0.7202626 1 1 1
v 0.1926567 0.71556 0.4854343 1 1 1
v 0.1926567 0.71556 0.9550909 1 1 1
v 0.427485 0.71556 1.05236 1 1 1
v 0.427485 0.71556 0.3881652 1 1 1
v 0.6623133 0.71556 0.4854343 1 1 1
v 0.427485 0.47704 1.264684 1 1 1
v 0.04252052 0.47704 1.105227 1 1 1
v 0.427485 0.47704 0.1758407 1 1 1
v 0.8124494 0.47704 0.3352982 1 1 1
v -0.116937 0.47704 0.7202626 1 1 1
v 0.04252052 0.47704 0.3352982 1 1 1

vn 0 -1 0
vn 0.5281608 0.6649004 0.5281608
vn 0.7469322 0.6649003 3.964906E-14
vn 0 1 0
vn 0.6885461 0.2276143 0.6885461
vn 0.9737514 0.2276144 5.168919E-14
vn -5.168919E-14 0.2276144 0.9737514
vn -0.6885461 0.2276143 0.6885461
vn 5.168919E-14 0.2276144 -0.9737514
vn 0.6885461 0.2276143 -0.6885461
vn -3.964906E-14 0.6649003 0.7469322
vn -0.5281608 0.6649004 0.5281608
vn -0.7469322 0.6649003 -3.964906E-14
vn 3.964906E-14 0.6649003 -0.7469322
vn 0.5281608 0.6649004 -0.5281608
vn -0.9737514 0.2276144 -5.168919E-14
vn -0.6885461 0.2276143 -0.6885461
vn -0.5281608 0.6649004 -0.5281608
vn 0.9737514 0.2276144 5.168919E-14
vn -5.168919E-14 0.2276144 0.9737514
vn 5.168919E-14 0.2276144 -0.9737514
vn -0.9737514 0.2276144 -5.168919E-14

vt 0.71875 0.025
vt 0.84375 0.1583333
vt 0.84375 0.225
vt 0.84375 0.025

usemtl colormap

f 3/1/1 2/1/1 1/1/1
f 2/1/1 3/1/1 4/1/1
f 2/1/1 4/1/1 5/1/1
f 5/1/1 4/1/1 6/1/1
f 5/1/1 6/1/1 7/1/1
f 7/1/1 6/1/1 8/1/1
f 11/1/1 10/1/1 9/1/1
f 10/1/1 11/1/1 12/1/1
f 10/1/1 12/1/1 13/1/1
f 13/1/1 12/1/1 14/1/1
f 13/1/1 14/1/1 15/1/1
f 15/1/1 14/1/1 16/1/1
f 19/1/1 18/1/1 17/1/1
f 18/1/1 19/1/1 20/1/1
f 18/1/1 20/1/1 21/1/1
f 21/1/1 20/1/1 22/1/1
f 21/1/1 22/1/1 23/1/1
f 23/1/1 22/1/1 24/1/1
f 27/1/1 26/1/1 25/1/1
f 26/1/1 27/1/1 28/1/1
f 26/1/1 28/1/1 29/1/1
f 29/1/1 28/1/1 30/1/1
f 29/1/1 30/1/1 31/1/1
f 31/1/1 30/1/1 32/1/1
f 35/2/3 34/3/2 33/2/2
f 34/3/2 35/2/3 36/3/3
f 39/3/4 38/3/4 37/3/4
f 38/3/4 39/3/4 40/3/4
f 38/3/4 40/3/4 41/3/4
f 41/3/4 40/3/4 34/3/4
f 41/3/4 34/3/4 42/3/4
f 42/3/4 34/3/4 36/3/4
f 8/4/6 33/2/5 7/4/5
f 33/2/5 8/4/6 35/2/6
f 43/2/7 2/4/8 5/4/7
f 2/4/8 43/2/7 44/2/8
f 45/2/9 6/4/10 4/4/9
f 6/4/10 45/2/9 46/2/10
f 34/3/2 43/2/11 33/2/2
f 43/2/11 34/3/2 40/3/11
f 39/3/12 47/2/13 44/2/12
f 47/2/13 39/3/12 37/3/13
f 40/3/11 44/2/12 43/2/11
f 44/2/12 40/3/11 39/3/12
f 41/3/14 46/2/15 45/2/14
f 46/2/15 41/3/14 42/3/15
f 35/2/3 42/3/15 36/3/3
f 42/3/15 35/2/3 46/2/15
f 44/2/8 1/4/16 2/4/8
f 1/4/16 44/2/8 47/2/16
f 33/2/5 5/4/7 7/4/5
f 5/4/7 33/2/5 43/2/7
f 48/2/17 4/4/9 3/4/17
f 4/4/9 48/2/17 45/2/9
f 48/2/17 1/4/16 47/2/16
f 1/4/16 48/2/17 3/4/17
f 8/4/6 46/2/10 35/2/6
f 46/2/10 8/4/6 6/4/10
f 38/3/18 47/2/13 37/3/13
f 47/2/13 38/3/18 48/2/18
f 38/3/18 45/2/14 48/2/18
f 45/2/14 38/3/18 41/3/14
f 51/2/3 50/3/2 49/2/2
f 50/3/2 51/2/3 52/3/3
f 55/3/4 54/3/4 53/3/4
f 54/3/4 55/3/4 56/3/4
f 54/3/4 56/3/4 57/3/4
f 57/3/4 56/3/4 50/3/4
f 57/3/4 50/3/4 58/3/4
f 58/3/4 50/3/4 52/3/4
f 16/4/19 49/2/5 15/4/5
f 49/2/5 16/4/19 51/2/19
f 59/2/20 10/4/8 13/4/20
f 10/4/8 59/2/20 60/2/8
f 61/2/21 14/4/10 12/4/21
f 14/4/10 61/2/21 62/2/10
f 50/3/2 59/2/11 49/2/2
f 59/2/11 50/3/2 56/3/11
f 55/3/12 63/2/13 60/2/12
f 63/2/13 55/3/12 53/3/13
f 56/3/11 60/2/12 59/2/11
f 60/2/12 56/3/11 55/3/12
f 57/3/14 62/2/15 61/2/14
f 62/2/15 57/3/14 58/3/15
f 51/2/3 58/3/15 52/3/3
f 58/3/15 51/2/3 62/2/15
f 60/2/8 9/4/22 10/4/8
f 9/4/22 60/2/8 63/2/22
f 49/2/5 13/4/20 15/4/5
f 13/4/20 49/2/5 59/2/20
f 64/2/17 12/4/21 11/4/17
f 12/4/21 64/2/17 61/2/21
f 64/2/17 9/4/22 63/2/22
f 9/4/22 64/2/17 11/4/17
f 16/4/19 62/2/10 51/2/19
f 62/2/10 16/4/19 14/4/10
f 54/3/18 63/2/13 53/3/13
f 63/2/13 54/3/18 64/2/18
f 54/3/18 61/2/14 64/2/18
f 61/2/14 54/3/18 57/3/14
f 67/2/3 66/3/2 65/2/2
f 66/3/2 67/2/3 68/3/3
f 71/3/4 70/3/4 69/3/4
f 70/3/4 71/3/4 72/3/4
f 70/3/4 72/3/4 73/3/4
f 73/3/4 72/3/4 66/3/4
f 73/3/4 66/3/4 74/3/4
f 74/3/4 66/3/4 68/3/4
f 24/4/6 65/2/5 23/4/5
f 65/2/5 24/4/6 67/2/6
f 75/2/7 18/4/8 21/4/7
f 18/4/8 75/2/7 76/2/8
f 77/2/9 22/4/10 20/4/9
f 22/4/10 77/2/9 78/2/10
f 66/3/2 75/2/11 65/2/2
f 75/2/11 66/3/2 72/3/11
f 71/3/12 79/2/13 76/2/12
f 79/2/13 71/3/12 69/3/13
f 72/3/11 76/2/12 75/2/11
f 76/2/12 72/3/11 71/3/12
f 73/3/14 78/2/15 77/2/14
f 78/2/15 73/3/14 74/3/15
f 67/2/3 74/3/15 68/3/3
f 74/3/15 67/2/3 78/2/15
f 76/2/8 17/4/16 18/4/8
f 17/4/16 76/2/8 79/2/16
f 65/2/5 21/4/7 23/4/5
f 21/4/7 65/2/5 75/2/7
f 80/2/17 20/4/9 19/4/17
f 20/4/9 80/2/17 77/2/9
f 80/2/17 17/4/16 79/2/16
f 17/4/16 80/2/17 19/4/17
f 24/4/6 78/2/10 67/2/6
f 78/2/10 24/4/6 22/4/10
f 70/3/18 79/2/13 69/3/13
f 79/2/13 70/3/18 80/2/18
f 70/3/18 77/2/14 80/2/18
f 77/2/14 70/3/18 73/3/14
f 83/2/3 82/3/2 81/2/2
f 82/3/2 83/2/3 84/3/3
f 87/3/4 86/3/4 85/3/4
f 86/3/4 87/3/4 88/3/4
f 86/3/4 88/3/4 89/3/4
f 89/3/4 88/3/4 82/3/4
f 89/3/4 82/3/4 90/3/4
f 90/3/4 82/3/4 84/3/4
f 32/4/19 81/2/5 31/4/5
f 81/2/5 32/4/19 83/2/19
f 91/2/20 26/4/8 29/4/20
f 26/4/8 91/2/20 92/2/8
f 93/2/21 30/4/10 28/4/21
f 30/4/10 93/2/21 94/2/10
f 82/3/2 91/2/11 81/2/2
f 91/2/11 82/3/2 88/3/11
f 87/3/12 95/2/13 92/2/12
f 95/2/13 87/3/12 85/3/13
f 88/3/11 92/2/12 91/2/11
f 92/2/12 88/3/11 87/3/12
f 89/3/14 94/2/15 93/2/14
f 94/2/15 89/3/14 90/3/15
f 83/2/3 90/3/15 84/3/3
f 90/3/15 83/2/3 94/2/15
f 92/2/8 25/4/22 26/4/8
f 25/4/22 92/2/8 95/2/22
f 81/2/5 29/4/20 31/4/5
f 29/4/20 81/2/5 91/2/20
f 96/2/17 28/4/21 27/4/17
f 28/4/21 96/2/17 93/2/21
f 96/2/17 25/4/22 95/2/22
f 25/4/22 96/2/17 27/4/17
f 32/4/19 94/2/10 83/2/19
f 94/2/10 32/4/19 30/4/10
f 86/3/18 95/2/13 85/3/13
f 95/2/13 86/3/18 96/2/18
f 86/3/18 93/2/14 96/2/18
f 93/2/14 86/3/18 89/3/14

g cargo-pile-a




usemtl colormap

f 3/1/1 2/1/1 1/1/1
f 2/1/1 3/1/1 4/1/1
f 2/1/1 4/1/1 5/1/1
f 5/1/1 4/1/1 6/1/1
f 5/1/1 6/1/1 7/1/1
f 7/1/1 6/1/1 8/1/1
f 11/1/1 10/1/1 9/1/1
f 10/1/1 11/1/1 12/1/1
f 10/1/1 12/1/1 13/1/1
f 13/1/1 12/1/1 14/1/1
f 13/1/1 14/1/1 15/1/1
f 15/1/1 14/1/1 16/1/1
f 19/1/1 18/1/1 17/1/1
f 18/1/1 19/1/1 20/1/1
f 18/1/1 20/1/1 21/1/1
f 21/1/1 20/1/1 22/1/1
f 21/1/1 22/1/1 23/1/1
f 23/1/1 22/1/1 24/1/1
f 27/1/1 26/1/1 25/1/1
f 26/1/1 27/1/1 28/1/1
f 26/1/1 28/1/1 29/1/1
f 29/1/1 28/1/1 30/1/1
f 29/1/1 30/1/1 31/1/1
f 31/1/1 30/1/1 32/1/1
f 35/2/3 34/3/2 33/2/2
f 34/3/2 35/2/3 36/3/3
f 39/3/4 38/3/4 37/3/4
f 38/3/4 39/3/4 40/3/4
f 38/3/4 40/3/4 41/3/4
f 41/3/4 40/3/4 34/3/4
f 41/3/4 34/3/4 42/3/4
f 42/3/4 34/3/4 36/3/4
f 8/4/6 33/2/5 7/4/5
f 33/2/5 8/4/6 35/2/6
f 43/2/7 2/4/8 5/4/7
f 2/4/8 43/2/7 44/2/8
f 45/2/9 6/4/10 4/4/9
f 6/4/10 45/2/9 46/2/10
f 34/3/2 43/2/11 33/2/2
f 43/2/11 34/3/2 40/3/11
f 39/3/12 47/2/13 44/2/12
f 47/2/13 39/3/12 37/3/13
f 40/3/11 44/2/12 43/2/11
f 44/2/12 40/3/11 39/3/12
f 41/3/14 46/2/15 45/2/14
f 46/2/15 41/3/14 42/3/15
f 35/2/3 42/3/15 36/3/3
f 42/3/15 35/2/3 46/2/15
f 44/2/8 1/4/16 2/4/8
f 1/4/16 44/2/8 47/2/16
f 33/2/5 5/4/7 7/4/5
f 5/4/7 33/2/5 43/2/7
f 48/2/17 4/4/9 3/4/17
f 4/4/9 48/2/17 45/2/9
f 48/2/17 1/4/16 47/2/16
f 1/4/16 48/2/17 3/4/17
f 8/4/6 46/2/10 35/2/6
f 46/2/10 8/4/6 6/4/10
f 38/3/18 47/2/13 37/3/13
f 47/2/13 38/3/18 48/2/18
f 38/3/18 45/2/14 48/2/18
f 45/2/14 38/3/18 41/3/14
f 51/2/3 50/3/2 49/2/2
f 50/3/2 51/2/3 52/3/3
f 55/3/4 54/3/4 53/3/4
f 54/3/4 55/3/4 56/3/4
f 54/3/4 56/3/4 57/3/4
f 57/3/4 56/3/4 50/3/4
f 57/3/4 50/3/4 58/3/4
f 58/3/4 50/3/4 52/3/4
f 16/4/19 49/2/5 15/4/5
f 49/2/5 16/4/19 51/2/19
f 59/2/20 10/4/8 13/4/20
f 10/4/8 59/2/20 60/2/8
f 61/2/21 14/4/10 12/4/21
f 14/4/10 61/2/21 62/2/10
f 50/3/2 59/2/11 49/2/2
f 59/2/11 50/3/2 56/3/11
f 55/3/12 63/2/13 60/2/12
f 63/2/13 55/3/12 53/3/13
f 56/3/11 60/2/12 59/2/11
f 60/2/12 56/3/11 55/3/12
f 57/3/14 62/2/15 61/2/14
f 62/2/15 57/3/14 58/3/15
f 51/2/3 58/3/15 52/3/3
f 58/3/15 51/2/3 62/2/15
f 60/2/8 9/4/22 10/4/8
f 9/4/22 60/2/8 63/2/22
f 49/2/5 13/4/20 15/4/5
f 13/4/20 49/2/5 59/2/20
f 64/2/17 12/4/21 11/4/17
f 12/4/21 64/2/17 61/2/21
f 64/2/17 9/4/22 63/2/22
f 9/4/22 64/2/17 11/4/17
f 16/4/19 62/2/10 51/2/19
f 62/2/10 16/4/19 14/4/10
f 54/3/18 63/2/13 53/3/13
f 63/2/13 54/3/18 64/2/18
f 54/3/18 61/2/14 64/2/18
f 61/2/14 54/3/18 57/3/14
f 67/2/3 66/3/2 65/2/2
f 66/3/2 67/2/3 68/3/3
f 71/3/4 70/3/4 69/3/4
f 70/3/4 71/3/4 72/3/4
f 70/3/4 72/3/4 73/3/4
f 73/3/4 72/3/4 66/3/4
f 73/3/4 66/3/4 74/3/4
f 74/3/4 66/3/4 68/3/4
f 24/4/6 65/2/5 23/4/5
f 65/2/5 24/4/6 67/2/6
f 75/2/7 18/4/8 21/4/7
f 18/4/8 75/2/7 76/2/8
f 77/2/9 22/4/10 20/4/9
f 22/4/10 77/2/9 78/2/10
f 66/3/2 75/2/11 65/2/2
f 75/2/11 66/3/2 72/3/11
f 71/3/12 79/2/13 76/2/12
f 79/2/13 71/3/12 69/3/13
f 72/3/11 76/2/12 75/2/11
f 76/2/12 72/3/11 71/3/12
f 73/3/14 78/2/15 77/2/14
f 78/2/15 73/3/14 74/3/15
f 67/2/3 74/3/15 68/3/3
f 74/3/15 67/2/3 78/2/15
f 76/2/8 17/4/16 18/4/8
f 17/4/16 76/2/8 79/2/16
f 65/2/5 21/4/7 23/4/5
f 21/4/7 65/2/5 75/2/7
f 80/2/17 20/4/9 19/4/17
f 20/4/9 80/2/17 77/2/9
f 80/2/17 17/4/16 79/2/16
f 17/4/16 80/2/17 19/4/17
f 24/4/6 78/2/10 67/2/6
f 78/2/10 24/4/6 22/4/10
f 70/3/18 79/2/13 69/3/13
f 79/2/13 70/3/18 80/2/18
f 70/3/18 77/2/14 80/2/18
f 77/2/14 70/3/18 73/3/14
f 83/2/3 82/3/2 81/2/2
f 82/3/2 83/2/3 84/3/3
f 87/3/4 86/3/4 85/3/4
f 86/3/4 87/3/4 88/3/4
f 86/3/4 88/3/4 89/3/4
f 89/3/4 88/3/4 82/3/4
f 89/3/4 82/3/4 90/3/4
f 90/3/4 82/3/4 84/3/4
f 32/4/19 81/2/5 31/4/5
f 81/2/5 32/4/19 83/2/19
f 91/2/20 26/4/8 29/4/20
f 26/4/8 91/2/20 92/2/8
f 93/2/21 30/4/10 28/4/21
f 30/4/10 93/2/21 94/2/10
f 82/3/2 91/2/11 81/2/2
f 91/2/11 82/3/2 88/3/11
f 87/3/12 95/2/13 92/2/12
f 95/2/13 87/3/12 85/3/13
f 88/3/11 92/2/12 91/2/11
f 92/2/12 88/3/11 87/3/12
f 89/3/14 94/2/15 93/2/14
f 94/2/15 89/3/14 90/3/15
f 83/2/3 90/3/15 84/3/3
f 90/3/15 83/2/3 94/2/15
f 92/2/8 25/4/22 26/4/8
f 25/4/22 92/2/8 95/2/22
f 81/2/5 29/4/20 31/4/5
f 29/4/20 81/2/5 91/2/20
f 96/2/17 28/4/21 27/4/17
f 28/4/21 96/2/17 93/2/21
f 96/2/17 25/4/22 95/2/22
f 25/4/22 96/2/17 27/4/17
f 32/4/19 94/2/10 83/2/19
f 94/2/10 32/4/19 30/4/10
f 86/3/18 95/2/13 85/3/13
f 95/2/13 86/3/18 96/2/18
f 86/3/18 93/2/14 96/2/18
f 93/2/14 86/3/18 89/3/14

