# Created by Kenney (www.kenney.nl)

mtllib cargo-container-a.mtl

g cargo-container-a

v -0.6399999 0.2 0.8112835 1 1 1
v -0.6399999 0.904 0.8112835 1 1 1
v -0.5899999 0.2 0.8538941 1 1 1
v -0.5899999 0.904 0.8538941 1 1 1
v -0.64 0.904 0.5703988 1 1 1
v -0.64 0.2 0.5703988 1 1 1
v -0.59 0.904 0.5277882 1 1 1
v -0.59 0.2 0.5277882 1 1 1
v 0.64 0.2 -0.1204424 1 1 1
v 0.64 0.904 -0.1204424 1 1 1
v 0.59 0.2 -0.163053 1 1 1
v 0.59 0.904 -0.163053 1 1 1
v 0.64 0.904 0.1204423 1 1 1
v 0.64 0.2 0.1204423 1 1 1
v 0.59 0.904 0.1630529 1 1 1
v 0.59 0.2 0.1630529 1 1 1
v -0.64 0.2 -0.5703988 1 1 1
v -0.64 0.904 -0.5703988 1 1 1
v -0.59 0.2 -0.5277882 1 1 1
v -0.59 0.904 -0.5277882 1 1 1
v -0.64 0.2 -0.8112835 1 1 1
v -0.64 0.904 -0.8112835 1 1 1
v -0.59 0.904 -0.8538941 1 1 1
v -0.59 0.2 -0.8538941 1 1 1
v -0.5900002 0.2 1.18 1 1 1
v -0.5899999 0.2 -1.18 1 1 1
v -0.5900002 0.9039999 1.18 1 1 1
v -0.5899999 0.9039999 -1.18 1 1 1
v 0.4899999 0.9039999 1.28 1 1 1
v 0.4899999 0.2 1.28 1 1 1
v -0.4900002 0.9039999 1.28 1 1 1
v -0.4900002 0.2 1.28 1 1 1
v 0.4899999 0.2 1.38 1 1 1
v 0.4899999 0.9039999 1.38 1 1 1
v -0.4900002 0.9039999 1.38 1 1 1
v -0.4900002 0.2 1.38 1 1 1
v 0.5900002 0.2 -1.18 1 1 1
v 0.5899999 0.2 1.18 1 1 1
v 0.5900002 0.9039999 -1.18 1 1 1
v 0.5899999 0.9039999 1.18 1 1 1
v 0.6899999 0.9039999 1.18 1 1 1
v 0.6900002 0.9039999 -1.18 1 1 1
v 0.6899999 0.2 1.18 1 1 1
v 0.6900002 0.2 -1.18 1 1 1
v 0.4900002 0.2 -1.28 1 1 1
v 0.4900002 0.9039999 -1.28 1 1 1
v -0.4899999 0.2 -1.28 1 1 1
v -0.4899999 0.9039999 -1.28 1 1 1
v -0.4899999 0.2 -1.38 1 1 1
v -0.4899999 0.9039999 -1.38 1 1 1
v 0.4900002 0.2 -1.38 1 1 1
v 0.4900002 0.9039999 -1.38 1 1 1
v 0.6899999 1.104 1.38 1 1 1
v -0.6900002 1.104 1.38 1 1 1
v 0.6900002 1.104 -1.38 1 1 1
v -0.6899999 1.104 -1.38 1 1 1
v -0.6899999 0.9039999 -1.18 1 1 1
v -0.6899999 0.2 -1.18 1 1 1
v -0.6900002 0.9039999 1.18 1 1 1
v -0.6900002 0.2 1.18 1 1 1
v 0.6899999 0 1.38 1 1 1
v 0.6900002 0 -1.38 1 1 1
v -0.6900002 0 1.38 1 1 1
v -0.6899999 0 -1.38 1 1 1
v -0.6399999 0.2 0.1204424 1 1 1
v -0.6399999 0.904 0.1204424 1 1 1
v -0.5899999 0.2 0.163053 1 1 1
v -0.5899999 0.904 0.163053 1 1 1
v -0.64 0.904 -0.1204423 1 1 1
v -0.64 0.2 -0.1204423 1 1 1
v -0.59 0.904 -0.1630529 1 1 1
v -0.59 0.2 -0.1630529 1 1 1
v 0.64 0.2 -0.8112835 1 1 1
v 0.64 0.904 -0.8112835 1 1 1
v 0.59 0.2 -0.8538941 1 1 1
v 0.59 0.904 -0.8538941 1 1 1
v 0.64 0.904 -0.5703988 1 1 1
v 0.64 0.2 -0.5703988 1 1 1
v 0.59 0.904 -0.5277882 1 1 1
v 0.59 0.2 -0.5277882 1 1 1
v 0.6400001 0.2 0.5703988 1 1 1
v 0.6400001 0.904 0.5703988 1 1 1
v 0.5900001 0.2 0.5277882 1 1 1
v 0.5900001 0.904 0.5277882 1 1 1
v 0.64 0.2 0.8112835 1 1 1
v 0.64 0.904 0.8112835 1 1 1
v 0.59 0.904 0.8538941 1 1 1
v 0.59 0.2 0.8538941 1 1 1
v -0.19 0.904 -1.28 1 1 1
v -0.2900001 0.904 -1.28 1 1 1
v -0.19 0.904 -1.38 1 1 1
v -0.2900001 0.904 -1.38 1 1 1
v -0.19 0.2 -1.38 1 1 1
v -0.2900001 0.2 -1.38 1 1 1
v -0.19 0.2 -1.28 1 1 1
v -0.2900001 0.2 -1.28 1 1 1
v 0.29 0.904 -1.28 1 1 1
v 0.19 0.904 -1.28 1 1 1
v 0.29 0.904 -1.38 1 1 1
v 0.19 0.904 -1.38 1 1 1
v 0.19 0.2 -1.28 1 1 1
v 0.19 0.2 -1.38 1 1 1
v 0.29 0.2 -1.38 1 1 1
v 0.29 0.2 -1.28 1 1 1
v -0.19 0.904 1.38 1 1 1
v -0.29 0.904 1.38 1 1 1
v -0.19 0.904 1.28 1 1 1
v -0.29 0.904 1.28 1 1 1
v -0.19 0.2 1.28 1 1 1
v -0.29 0.2 1.28 1 1 1
v -0.19 0.2 1.38 1 1 1
v -0.29 0.2 1.38 1 1 1
v 0.2900001 0.904 1.38 1 1 1
v 0.19 0.904 1.38 1 1 1
v 0.2900001 0.904 1.28 1 1 1
v 0.19 0.904 1.28 1 1 1
v 0.19 0.2 1.38 1 1 1
v 0.19 0.2 1.28 1 1 1
v 0.2900001 0.2 1.28 1 1 1
v 0.2900001 0.2 1.38 1 1 1

vn -0.9079166 0 0.419151
vn -0.6486251 0 0.7611082
vn -0.9079167 0 -0.4191507
vn -0.6486254 0 -0.761108
vn 0.9079167 0 -0.4191507
vn 0.6486254 0 -0.761108
vn 0.9079166 0 0.419151
vn 0.6486251 0 0.7611082
vn -1 0 -1.192093E-07
vn -1.192093E-07 0 1
vn -0.7071068 0.7071068 -8.42937E-08
vn -0.7071068 -0.7071068 -8.42937E-08
vn 0.7071068 -0.7071068 8.42937E-08
vn 0.7071068 0.7071068 8.42937E-08
vn 1 0 1.192093E-07
vn 8.42937E-08 -0.7071068 -0.7071068
vn -8.42937E-08 -0.7071068 0.7071068
vn 8.42937E-08 0.7071068 -0.7071068
vn -8.42937E-08 0.7071068 0.7071068
vn 1.192093E-07 0 -1
vn 0 1 0
vn 0 -1 0
vn 0.7071069 0 -0.7071068
vn -0.7071068 0 -0.7071069
vn 0.7071068 0 0.7071069
vn -0.7071069 0 0.7071068

vt 0.71875 0.275
vt 0.71875 0.475
vt 0.71875 0.3112319
vt 0.71875 0.4387681
vt 0.59375 0.225
vt 0.59375 0.025

usemtl colormap

f 3/1/2 2/2/1 1/1/1
f 2/2/1 3/1/2 4/2/2
f 7/2/4 6/1/3 5/2/3
f 6/1/3 7/2/4 8/1/4
f 2/2/1 6/1/3 1/1/1
f 6/1/3 2/2/1 5/2/3
f 11/1/6 10/2/5 9/1/5
f 10/2/5 11/1/6 12/2/6
f 15/2/8 14/1/7 13/2/7
f 14/1/7 15/2/8 16/1/8
f 10/2/5 14/1/7 9/1/5
f 14/1/7 10/2/5 13/2/7
f 19/1/2 18/2/1 17/1/1
f 18/2/1 19/1/2 20/2/2
f 18/2/1 21/1/3 17/1/1
f 21/1/3 18/2/1 22/2/3
f 23/2/4 21/1/3 22/2/3
f 21/1/3 23/2/4 24/1/4
f 27/4/9 26/3/9 25/3/9
f 26/3/9 27/4/9 28/4/9
f 31/4/10 30/3/10 29/4/10
f 30/3/10 31/4/10 32/3/10
f 34/4/12 30/3/11 33/3/11
f 30/3/11 34/4/12 29/4/12
f 31/4/13 34/4/12 35/4/13
f 34/4/12 31/4/13 29/4/12
f 31/4/13 36/3/14 32/3/14
f 36/3/14 31/4/13 35/4/13
f 33/3/11 32/3/14 36/3/14
f 32/3/14 33/3/11 30/3/11
f 39/4/15 38/3/15 37/3/15
f 38/3/15 39/4/15 40/4/15
f 39/4/17 41/4/16 40/4/16
f 41/4/16 39/4/17 42/4/17
f 38/3/18 41/4/16 43/3/18
f 41/4/16 38/3/18 40/4/16
f 39/4/17 44/3/19 42/4/17
f 44/3/19 39/4/17 37/3/19
f 44/3/19 38/3/18 43/3/18
f 38/3/18 44/3/19 37/3/19
f 47/3/20 46/4/20 45/3/20
f 46/4/20 47/3/20 48/4/20
f 50/4/13 47/3/14 49/3/14
f 47/3/14 50/4/13 48/4/13
f 46/4/12 51/3/11 45/3/11
f 51/3/11 46/4/12 52/4/12
f 51/3/11 47/3/14 45/3/11
f 47/3/14 51/3/11 49/3/14
f 50/4/13 46/4/12 48/4/13
f 46/4/12 50/4/13 52/4/12
f 55/2/21 54/2/21 53/2/21
f 54/2/21 55/2/21 56/2/21
f 57/4/17 26/3/19 28/4/17
f 26/3/19 57/4/17 58/3/19
f 57/4/17 27/4/16 59/4/16
f 27/4/16 57/4/17 28/4/17
f 26/3/19 60/3/18 25/3/18
f 60/3/18 26/3/19 58/3/19
f 60/3/18 27/4/16 25/3/18
f 27/4/16 60/3/18 59/4/16
f 63/1/22 62/1/22 61/1/22
f 62/1/22 63/1/22 64/1/22
f 51/3/20 64/1/20 49/3/20
f 49/3/20 64/1/20 50/4/20
f 51/3/20 62/1/20 64/1/20
f 56/2/20 50/4/20 64/1/20
f 62/1/20 51/3/20 55/2/20
f 56/2/20 52/4/20 50/4/20
f 55/2/20 52/4/20 56/2/20
f 52/4/20 55/2/20 51/3/20
f 44/3/15 55/2/15 42/4/15
f 42/4/15 55/2/15 41/4/15
f 44/3/15 62/1/15 55/2/15
f 53/2/15 41/4/15 55/2/15
f 62/1/15 44/3/15 61/1/15
f 53/2/15 43/3/15 41/4/15
f 61/1/15 43/3/15 53/2/15
f 43/3/15 61/1/15 44/3/15
f 63/1/9 60/3/9 64/1/9
f 60/3/9 63/1/9 54/2/9
f 58/3/9 64/1/9 60/3/9
f 60/3/9 54/2/9 59/4/9
f 64/1/9 58/3/9 56/2/9
f 59/4/9 54/2/9 57/4/9
f 56/2/9 58/3/9 57/4/9
f 56/2/9 57/4/9 54/2/9
f 34/4/10 54/2/10 35/4/10
f 35/4/10 54/2/10 36/3/10
f 34/4/10 53/2/10 54/2/10
f 63/1/10 36/3/10 54/2/10
f 53/2/10 34/4/10 61/1/10
f 63/1/10 33/3/10 36/3/10
f 61/1/10 33/3/10 63/1/10
f 33/3/10 61/1/10 34/4/10
f 67/1/2 66/2/1 65/1/1
f 66/2/1 67/1/2 68/2/2
f 71/2/4 70/1/3 69/2/3
f 70/1/3 71/2/4 72/1/4
f 66/2/1 70/1/3 65/1/1
f 70/1/3 66/2/1 69/2/3
f 75/1/6 74/2/5 73/1/5
f 74/2/5 75/1/6 76/2/6
f 79/2/8 78/1/7 77/2/7
f 78/1/7 79/2/8 80/1/8
f 74/2/5 78/1/7 73/1/5
f 78/1/7 74/2/5 77/2/7
f 83/1/6 82/2/5 81/1/5
f 82/2/5 83/1/6 84/2/6
f 82/2/5 85/1/7 81/1/5
f 85/1/7 82/2/5 86/2/7
f 87/2/8 85/1/7 86/2/7
f 85/1/7 87/2/8 88/1/8
f 91/5/21 90/5/21 89/5/21
f 90/5/21 91/5/21 92/5/21
f 94/6/24 91/5/23 93/6/23
f 91/5/23 94/6/24 92/5/24
f 90/5/26 95/6/25 89/5/25
f 95/6/25 90/5/26 96/6/26
f 91/5/23 95/6/25 93/6/23
f 95/6/25 91/5/23 89/5/25
f 94/6/22 95/6/22 96/6/22
f 95/6/22 94/6/22 93/6/22
f 90/5/26 94/6/24 96/6/26
f 94/6/24 90/5/26 92/5/24
f 99/5/21 98/5/21 97/5/21
f 98/5/21 99/5/21 100/5/21
f 98/5/26 102/6/24 101/6/26
f 102/6/24 98/5/26 100/5/24
f 102/6/24 99/5/23 103/6/23
f 99/5/23 102/6/24 100/5/24
f 102/6/22 104/6/22 101/6/22
f 104/6/22 102/6/22 103/6/22
f 98/5/26 104/6/25 97/5/25
f 104/6/25 98/5/26 101/6/26
f 99/5/23 104/6/25 103/6/23
f 104/6/25 99/5/23 97/5/25
f 107/5/21 106/5/21 105/5/21
f 106/5/21 107/5/21 108/5/21
f 110/6/24 107/5/23 109/6/23
f 107/5/23 110/6/24 108/5/24
f 106/5/26 111/6/25 105/5/25
f 111/6/25 106/5/26 112/6/26
f 107/5/23 111/6/25 109/6/23
f 111/6/25 107/5/23 105/5/25
f 110/6/22 111/6/22 112/6/22
f 111/6/22 110/6/22 109/6/22
f 106/5/26 110/6/24 112/6/26
f 110/6/24 106/5/26 108/5/24
f 115/5/21 114/5/21 113/5/21
f 114/5/21 115/5/21 116/5/21
f 114/5/26 118/6/24 117/6/26
f 118/6/24 114/5/26 116/5/24
f 118/6/24 115/5/23 119/6/23
f 115/5/23 118/6/24 116/5/24
f 118/6/22 120/6/22 117/6/22
f 120/6/22 118/6/22 119/6/22
f 114/5/26 120/6/25 113/5/25
f 120/6/25 114/5/26 117/6/26
f 115/5/23 120/6/25 119/6/23
f 120/6/25 115/5/23 113/5/25

g cargo-container-a




usemtl colormap

f 3/1/2 2/2/1 1/1/1
f 2/2/1 3/1/2 4/2/2
f 7/2/4 6/1/3 5/2/3
f 6/1/3 7/2/4 8/1/4
f 2/2/1 6/1/3 1/1/1
f 6/1/3 2/2/1 5/2/3
f 11/1/6 10/2/5 9/1/5
f 10/2/5 11/1/6 12/2/6
f 15/2/8 14/1/7 13/2/7
f 14/1/7 15/2/8 16/1/8
f 10/2/5 14/1/7 9/1/5
f 14/1/7 10/2/5 13/2/7
f 19/1/2 18/2/1 17/1/1
f 18/2/1 19/1/2 20/2/2
f 18/2/1 21/1/3 17/1/1
f 21/1/3 18/2/1 22/2/3
f 23/2/4 21/1/3 22/2/3
f 21/1/3 23/2/4 24/1/4
f 27/4/9 26/3/9 25/3/9
f 26/3/9 27/4/9 28/4/9
f 31/4/10 30/3/10 29/4/10
f 30/3/10 31/4/10 32/3/10
f 34/4/12 30/3/11 33/3/11
f 30/3/11 34/4/12 29/4/12
f 31/4/13 34/4/12 35/4/13
f 34/4/12 31/4/13 29/4/12
f 31/4/13 36/3/14 32/3/14
f 36/3/14 31/4/13 35/4/13
f 33/3/11 32/3/14 36/3/14
f 32/3/14 33/3/11 30/3/11
f 39/4/15 38/3/15 37/3/15
f 38/3/15 39/4/15 40/4/15
f 39/4/17 41/4/16 40/4/16
f 41/4/16 39/4/17 42/4/17
f 38/3/18 41/4/16 43/3/18
f 41/4/16 38/3/18 40/4/16
f 39/4/17 44/3/19 42/4/17
f 44/3/19 39/4/17 37/3/19
f 44/3/19 38/3/18 43/3/18
f 38/3/18 44/3/19 37/3/19
f 47/3/20 46/4/20 45/3/20
f 46/4/20 47/3/20 48/4/20
f 50/4/13 47/3/14 49/3/14
f 47/3/14 50/4/13 48/4/13
f 46/4/12 51/3/11 45/3/11
f 51/3/11 46/4/12 52/4/12
f 51/3/11 47/3/14 45/3/11
f 47/3/14 51/3/11 49/3/14
f 50/4/13 46/4/12 48/4/13
f 46/4/12 50/4/13 52/4/12
f 55/2/21 54/2/21 53/2/21
f 54/2/21 55/2/21 56/2/21
f 57/4/17 26/3/19 28/4/17
f 26/3/19 57/4/17 58/3/19
f 57/4/17 27/4/16 59/4/16
f 27/4/16 57/4/17 28/4/17
f 26/3/19 60/3/18 25/3/18
f 60/3/18 26/3/19 58/3/19
f 60/3/18 27/4/16 25/3/18
f 27/4/16 60/3/18 59/4/16
f 63/1/22 62/1/22 61/1/22
f 62/1/22 63/1/22 64/1/22
f 51/3/20 64/1/20 49/3/20
f 49/3/20 64/1/20 50/4/20
f 51/3/20 62/1/20 64/1/20
f 56/2/20 50/4/20 64/1/20
f 62/1/20 51/3/20 55/2/20
f 56/2/20 52/4/20 50/4/20
f 55/2/20 52/4/20 56/2/20
f 52/4/20 55/2/20 51/3/20
f 44/3/15 55/2/15 42/4/15
f 42/4/15 55/2/15 41/4/15
f 44/3/15 62/1/15 55/2/15
f 53/2/15 41/4/15 55/2/15
f 62/1/15 44/3/15 61/1/15
f 53/2/15 43/3/15 41/4/15
f 61/1/15 43/3/15 53/2/15
f 43/3/15 61/1/15 44/3/15
f 63/1/9 60/3/9 64/1/9
f 60/3/9 63/1/9 54/2/9
f 58/3/9 64/1/9 60/3/9
f 60/3/9 54/2/9 59/4/9
f 64/1/9 58/3/9 56/2/9
f 59/4/9 54/2/9 57/4/9
f 56/2/9 58/3/9 57/4/9
f 56/2/9 57/4/9 54/2/9
f 34/4/10 54/2/10 35/4/10
f 35/4/10 54/2/10 36/3/10
f 34/4/10 53/2/10 54/2/10
f 63/1/10 36/3/10 54/2/10
f 53/2/10 34/4/10 61/1/10
f 63/1/10 33/3/10 36/3/10
f 61/1/10 33/3/10 63/1/10
f 33/3/10 61/1/10 34/4/10
f 67/1/2 66/2/1 65/1/1
f 66/2/1 67/1/2 68/2/2
f 71/2/4 70/1/3 69/2/3
f 70/1/3 71/2/4 72/1/4
f 66/2/1 70/1/3 65/1/1
f 70/1/3 66/2/1 69/2/3
f 75/1/6 74/2/5 73/1/5
f 74/2/5 75/1/6 76/2/6
f 79/2/8 78/1/7 77/2/7
f 78/1/7 79/2/8 80/1/8
f 74/2/5 78/1/7 73/1/5
f 78/1/7 74/2/5 77/2/7
f 83/1/6 82/2/5 81/1/5
f 82/2/5 83/1/6 84/2/6
f 82/2/5 85/1/7 81/1/5
f 85/1/7 82/2/5 86/2/7
f 87/2/8 85/1/7 86/2/7
f 85/1/7 87/2/8 88/1/8
f 91/5/21 90/5/21 89/5/21
f 90/5/21 91/5/21 92/5/21
f 94/6/24 91/5/23 93/6/23
f 91/5/23 94/6/24 92/5/24
f 90/5/26 95/6/25 89/5/25
f 95/6/25 90/5/26 96/6/26
f 91/5/23 95/6/25 93/6/23
f 95/6/25 91/5/23 89/5/25
f 94/6/22 95/6/22 96/6/22
f 95/6/22 94/6/22 93/6/22
f 90/5/26 94/6/24 96/6/26
f 94/6/24 90/5/26 92/5/24
f 99/5/21 98/5/21 97/5/21
f 98/5/21 99/5/21 100/5/21
f 98/5/26 102/6/24 101/6/26
f 102/6/24 98/5/26 100/5/24
f 102/6/24 99/5/23 103/6/23
f 99/5/23 102/6/24 100/5/24
f 102/6/22 104/6/22 101/6/22
f 104/6/22 102/6/22 103/6/22
f 98/5/26 104/6/25 97/5/25
f 104/6/25 98/5/26 101/6/26
f 99/5/23 104/6/25 103/6/23
f 104/6/25 99/5/23 97/5/25
f 107/5/21 106/5/21 105/5/21
f 106/5/21 107/5/21 108/5/21
f 110/6/24 107/5/23 109/6/23
f 107/5/23 110/6/24 108/5/24
f 106/5/26 111/6/25 105/5/25
f 111/6/25 106/5/26 112/6/26
f 107/5/23 111/6/25 109/6/23
f 111/6/25 107/5/23 105/5/25
f 110/6/22 111/6/22 112/6/22
f 111/6/22 110/6/22 109/6/22
f 106/5/26 110/6/24 112/6/26
f 110/6/24 106/5/26 108/5/24
f 115/5/21 114/5/21 113/5/21
f 114/5/21 115/5/21 116/5/21
f 114/5/26 118/6/24 117/6/26
f 118/6/24 114/5/26 116/5/24
f 118/6/24 115/5/23 119/6/23
f 115/5/23 118/6/24 116/5/24
f 118/6/22 120/6/22 117/6/22
f 120/6/22 118/6/22 119/6/22
f 114/5/26 120/6/25 113/5/25
f 120/6/25 114/5/26 117/6/26
f 115/5/23 120/6/25 119/6/23
f 120/6/25 115/5/23 113/5/25

