# Created by Kenney (www.kenney.nl)

mtllib cargo-container-b.mtl

g cargo-container-b

v -0.6399999 0.2 0.1204424 1 1 1
v -0.6399999 0.904 0.1204424 1 1 1
v -0.5899999 0.2 0.163053 1 1 1
v -0.5899999 0.904 0.163053 1 1 1
v -0.64 0.904 -0.1204424 1 1 1
v -0.64 0.2 -0.1204424 1 1 1
v -0.59 0.904 -0.1630529 1 1 1
v -0.59 0.2 -0.1630529 1 1 1
v 0.64 0.2 -0.8112835 1 1 1
v 0.64 0.904 -0.8112835 1 1 1
v 0.59 0.2 -0.8538941 1 1 1
v 0.59 0.904 -0.8538941 1 1 1
v 0.64 0.904 -0.5703988 1 1 1
v 0.64 0.2 -0.5703988 1 1 1
v 0.59 0.904 -0.5277882 1 1 1
v 0.59 0.2 -0.5277882 1 1 1
v 0.64 0.2 -0.1204424 1 1 1
v 0.64 0.904 -0.1204424 1 1 1
v 0.59 0.2 -0.163053 1 1 1
v 0.59 0.904 -0.163053 1 1 1
v 0.64 0.904 0.1204424 1 1 1
v 0.64 0.2 0.1204424 1 1 1
v 0.59 0.904 0.1630529 1 1 1
v 0.59 0.2 0.1630529 1 1 1
v -0.6399999 0.2 0.8112835 1 1 1
v -0.6399999 0.904 0.8112835 1 1 1
v -0.5899999 0.2 0.8538941 1 1 1
v -0.5899999 0.904 0.8538941 1 1 1
v -0.64 0.904 0.5703988 1 1 1
v -0.64 0.2 0.5703988 1 1 1
v -0.59 0.904 0.5277882 1 1 1
v -0.59 0.2 0.5277882 1 1 1
v -0.5900002 0.2 1.18 1 1 1
v -0.5899999 0.2 -1.18 1 1 1
v -0.5900002 0.9039999 1.18 1 1 1
v -0.5899999 0.9039999 -1.18 1 1 1
v -0.6900002 0 1.38 1 1 1
v 0.6899999 0 1.38 1 1 1
v -0.6899999 0 -1.38 1 1 1
v 0.6900002 0 -1.38 1 1 1
v -0.6899999 0.9039999 -1.18 1 1 1
v -0.6899999 0.2 -1.18 1 1 1
v 0.6899999 1.104 1.38 1 1 1
v -0.6900002 1.104 1.38 1 1 1
v 0.6900002 1.104 -1.38 1 1 1
v -0.6899999 1.104 -1.38 1 1 1
v -0.6900002 0.2 1.18 1 1 1
v -0.6900002 0.9039999 1.18 1 1 1
v 0.4899999 0.9039999 1.28 1 1 1
v 0.4899999 0.2 1.28 1 1 1
v -0.4900002 0.9039999 1.28 1 1 1
v -0.4900002 0.2 1.28 1 1 1
v 0.4899999 0.2 1.38 1 1 1
v 0.4899999 0.9039999 1.38 1 1 1
v -0.4900002 0.9039999 1.38 1 1 1
v -0.4900002 0.2 1.38 1 1 1
v 0.5900002 0.2 -1.18 1 1 1
v 0.5899999 0.2 1.18 1 1 1
v 0.5900002 0.9039999 -1.18 1 1 1
v 0.5899999 0.9039999 1.18 1 1 1
v 0.6899999 0.9039999 1.18 1 1 1
v 0.6900002 0.9039999 -1.18 1 1 1
v 0.6899999 0.2 1.18 1 1 1
v 0.6900002 0.2 -1.18 1 1 1
v 0.4900002 0.2 -1.28 1 1 1
v 0.4900002 0.9039999 -1.28 1 1 1
v -0.4899999 0.2 -1.28 1 1 1
v -0.4899999 0.9039999 -1.28 1 1 1
v -0.4899999 0.2 -1.38 1 1 1
v -0.4899999 0.9039999 -1.38 1 1 1
v 0.4900002 0.2 -1.38 1 1 1
v 0.4900002 0.9039999 -1.38 1 1 1
v -0.6399999 0.2 -0.5703988 1 1 1
v -0.6399999 0.904 -0.5703988 1 1 1
v -0.5899999 0.2 -0.5277882 1 1 1
v -0.5899999 0.904 -0.5277882 1 1 1
v -0.64 0.2 -0.8112835 1 1 1
v -0.64 0.904 -0.8112835 1 1 1
v -0.59 0.904 -0.8538941 1 1 1
v -0.59 0.2 -0.8538941 1 1 1
v 0.64 0.2 0.5703988 1 1 1
v 0.64 0.904 0.5703988 1 1 1
v 0.59 0.2 0.5277882 1 1 1
v 0.59 0.904 0.5277882 1 1 1
v 0.64 0.2 0.8112835 1 1 1
v 0.64 0.904 0.8112835 1 1 1
v 0.59 0.904 0.8538941 1 1 1
v 0.59 0.2 0.8538941 1 1 1
v -0.19 0.904 1.38 1 1 1
v -0.29 0.904 1.38 1 1 1
v -0.19 0.904 1.28 1 1 1
v -0.29 0.904 1.28 1 1 1
v -0.19 0.2 1.28 1 1 1
v -0.29 0.2 1.28 1 1 1
v -0.19 0.2 1.38 1 1 1
v -0.29 0.2 1.38 1 1 1
v 0.29 0.904 1.38 1 1 1
v 0.19 0.904 1.38 1 1 1
v 0.29 0.904 1.28 1 1 1
v 0.19 0.904 1.28 1 1 1
v 0.19 0.2 1.38 1 1 1
v 0.19 0.2 1.28 1 1 1
v 0.29 0.2 1.28 1 1 1
v 0.29 0.2 1.38 1 1 1
v -0.19 0.904 -1.28 1 1 1
v -0.29 0.904 -1.28 1 1 1
v -0.19 0.904 -1.38 1 1 1
v -0.29 0.904 -1.38 1 1 1
v -0.19 0.2 -1.38 1 1 1
v -0.29 0.2 -1.38 1 1 1
v -0.19 0.2 -1.28 1 1 1
v -0.29 0.2 -1.28 1 1 1
v 0.29 0.904 -1.28 1 1 1
v 0.19 0.904 -1.28 1 1 1
v 0.29 0.904 -1.38 1 1 1
v 0.19 0.904 -1.38 1 1 1
v 0.19 0.2 -1.28 1 1 1
v 0.19 0.2 -1.38 1 1 1
v 0.29 0.2 -1.38 1 1 1
v 0.29 0.2 -1.28 1 1 1

vn -0.9079166 0 0.419151
vn -0.6486251 0 0.7611082
vn -0.9079167 0 -0.4191507
vn -0.6486254 0 -0.761108
vn 0.9079167 0 -0.4191507
vn 0.6486254 0 -0.761108
vn 0.9079166 0 0.419151
vn 0.6486251 0 0.7611082
vn -1 0 -1.192093E-07
vn 0 -1 0
vn -8.42937E-08 -0.7071068 0.7071068
vn -8.42937E-08 0.7071068 0.7071068
vn 0 1 0
vn 8.42937E-08 0.7071068 -0.7071068
vn 8.42937E-08 -0.7071068 -0.7071068
vn -1.192093E-07 0 1
vn -0.7071068 0.7071068 -8.42937E-08
vn -0.7071068 -0.7071068 -8.42937E-08
vn 0.7071068 -0.7071068 8.42937E-08
vn 0.7071068 0.7071068 8.42937E-08
vn 1 0 1.192093E-07
vn 1.192093E-07 0 -1
vn 0.7071069 0 -0.7071068
vn -0.7071068 0 -0.7071069
vn 0.7071068 0 0.7071069
vn -0.7071069 0 0.7071068

vt 0.84375 0.275
vt 0.84375 0.475
vt 0.84375 0.3112319
vt 0.84375 0.4387681
vt 0.59375 0.225
vt 0.59375 0.025

usemtl colormap

f 3/1/2 2/2/1 1/1/1
f 2/2/1 3/1/2 4/2/2
f 7/2/4 6/1/3 5/2/3
f 6/1/3 7/2/4 8/1/4
f 2/2/1 6/1/3 1/1/1
f 6/1/3 2/2/1 5/2/3
f 11/1/6 10/2/5 9/1/5
f 10/2/5 11/1/6 12/2/6
f 15/2/8 14/1/7 13/2/7
f 14/1/7 15/2/8 16/1/8
f 10/2/5 14/1/7 9/1/5
f 14/1/7 10/2/5 13/2/7
f 19/1/6 18/2/5 17/1/5
f 18/2/5 19/1/6 20/2/6
f 23/2/8 22/1/7 21/2/7
f 22/1/7 23/2/8 24/1/8
f 18/2/5 22/1/7 17/1/5
f 22/1/7 18/2/5 21/2/7
f 27/1/2 26/2/1 25/1/1
f 26/2/1 27/1/2 28/2/2
f 31/2/4 30/1/3 29/2/3
f 30/1/3 31/2/4 32/1/4
f 26/2/1 30/1/3 25/1/1
f 30/1/3 26/2/1 29/2/3
f 35/4/9 34/3/9 33/3/9
f 34/3/9 35/4/9 36/4/9
f 39/1/10 38/1/10 37/1/10
f 38/1/10 39/1/10 40/1/10
f 41/4/11 34/3/12 36/4/11
f 34/3/12 41/4/11 42/3/12
f 45/2/13 44/2/13 43/2/13
f 44/2/13 45/2/13 46/2/13
f 34/3/12 47/3/14 33/3/14
f 47/3/14 34/3/12 42/3/12
f 47/3/14 35/4/15 33/3/14
f 35/4/15 47/3/14 48/4/15
f 41/4/11 35/4/15 48/4/15
f 35/4/15 41/4/11 36/4/11
f 51/4/16 50/3/16 49/4/16
f 50/3/16 51/4/16 52/3/16
f 54/4/18 50/3/17 53/3/17
f 50/3/17 54/4/18 49/4/18
f 51/4/19 54/4/18 55/4/19
f 54/4/18 51/4/19 49/4/18
f 51/4/19 56/3/20 52/3/20
f 56/3/20 51/4/19 55/4/19
f 50/3/17 56/3/20 53/3/17
f 56/3/20 50/3/17 52/3/20
f 59/4/21 58/3/21 57/3/21
f 58/3/21 59/4/21 60/4/21
f 59/4/11 61/4/15 60/4/15
f 61/4/15 59/4/11 62/4/11
f 58/3/14 61/4/15 63/3/14
f 61/4/15 58/3/14 60/4/15
f 59/4/11 64/3/12 62/4/11
f 64/3/12 59/4/11 57/3/12
f 64/3/12 58/3/14 63/3/14
f 58/3/14 64/3/12 57/3/12
f 67/3/22 66/4/22 65/3/22
f 66/4/22 67/3/22 68/4/22
f 70/4/19 67/3/20 69/3/20
f 67/3/20 70/4/19 68/4/19
f 66/4/18 71/3/17 65/3/17
f 71/3/17 66/4/18 72/4/18
f 71/3/17 67/3/20 65/3/17
f 67/3/20 71/3/17 69/3/20
f 70/4/19 66/4/18 68/4/19
f 66/4/18 70/4/19 72/4/18
f 40/1/21 64/3/21 38/1/21
f 64/3/21 40/1/21 45/2/21
f 63/3/21 38/1/21 64/3/21
f 64/3/21 45/2/21 62/4/21
f 38/1/21 63/3/21 43/2/21
f 62/4/21 45/2/21 61/4/21
f 43/2/21 63/3/21 61/4/21
f 43/2/21 61/4/21 45/2/21
f 43/2/16 54/4/16 38/1/16
f 54/4/16 43/2/16 44/2/16
f 53/3/16 38/1/16 54/4/16
f 54/4/16 44/2/16 55/4/16
f 38/1/16 53/3/16 37/1/16
f 55/4/16 44/2/16 56/3/16
f 37/1/16 53/3/16 56/3/16
f 37/1/16 56/3/16 44/2/16
f 47/3/9 44/2/9 48/4/9
f 48/4/9 44/2/9 41/4/9
f 47/3/9 37/1/9 44/2/9
f 46/2/9 41/4/9 44/2/9
f 37/1/9 47/3/9 39/1/9
f 46/2/9 42/3/9 41/4/9
f 39/1/9 42/3/9 46/2/9
f 42/3/9 39/1/9 47/3/9
f 40/1/22 71/3/22 45/2/22
f 71/3/22 40/1/22 39/1/22
f 72/4/22 45/2/22 71/3/22
f 71/3/22 39/1/22 69/3/22
f 45/2/22 72/4/22 46/2/22
f 69/3/22 39/1/22 70/4/22
f 46/2/22 72/4/22 70/4/22
f 46/2/22 70/4/22 39/1/22
f 75/1/2 74/2/1 73/1/1
f 74/2/1 75/1/2 76/2/2
f 74/2/1 77/1/3 73/1/1
f 77/1/3 74/2/1 78/2/3
f 79/2/4 77/1/3 78/2/3
f 77/1/3 79/2/4 80/1/4
f 83/1/6 82/2/5 81/1/5
f 82/2/5 83/1/6 84/2/6
f 82/2/5 85/1/7 81/1/5
f 85/1/7 82/2/5 86/2/7
f 87/2/8 85/1/7 86/2/7
f 85/1/7 87/2/8 88/1/8
f 91/5/13 90/5/13 89/5/13
f 90/5/13 91/5/13 92/5/13
f 94/6/24 91/5/23 93/6/23
f 91/5/23 94/6/24 92/5/24
f 90/5/26 95/6/25 89/5/25
f 95/6/25 90/5/26 96/6/26
f 91/5/23 95/6/25 93/6/23
f 95/6/25 91/5/23 89/5/25
f 94/6/10 95/6/10 96/6/10
f 95/6/10 94/6/10 93/6/10
f 90/5/26 94/6/24 96/6/26
f 94/6/24 90/5/26 92/5/24
f 99/5/13 98/5/13 97/5/13
f 98/5/13 99/5/13 100/5/13
f 98/5/26 102/6/24 101/6/26
f 102/6/24 98/5/26 100/5/24
f 102/6/24 99/5/23 103/6/23
f 99/5/23 102/6/24 100/5/24
f 102/6/10 104/6/10 101/6/10
f 104/6/10 102/6/10 103/6/10
f 98/5/26 104/6/25 97/5/25
f 104/6/25 98/5/26 101/6/26
f 99/5/23 104/6/25 103/6/23
f 104/6/25 99/5/23 97/5/25
f 107/5/13 106/5/13 105/5/13
f 106/5/13 107/5/13 108/5/13
f 110/6/24 107/5/23 109/6/23
f 107/5/23 110/6/24 108/5/24
f 106/5/26 111/6/25 105/5/25
f 111/6/25 106/5/26 112/6/26
f 107/5/23 111/6/25 109/6/23
f 111/6/25 107/5/23 105/5/25
f 110/6/10 111/6/10 112/6/10
f 111/6/10 110/6/10 109/6/10
f 106/5/26 110/6/24 112/6/26
f 110/6/24 106/5/26 108/5/24
f 115/5/13 114/5/13 113/5/13
f 114/5/13 115/5/13 116/5/13
f 114/5/26 118/6/24 117/6/26
f 118/6/24 114/5/26 116/5/24
f 118/6/24 115/5/23 119/6/23
f 115/5/23 118/6/24 116/5/24
f 118/6/10 120/6/10 117/6/10
f 120/6/10 118/6/10 119/6/10
f 114/5/26 120/6/25 113/5/25
f 120/6/25 114/5/26 117/6/26
f 115/5/23 120/6/25 119/6/23
f 120/6/25 115/5/23 113/5/25

g cargo-container-b




usemtl colormap

f 3/1/2 2/2/1 1/1/1
f 2/2/1 3/1/2 4/2/2
f 7/2/4 6/1/3 5/2/3
f 6/1/3 7/2/4 8/1/4
f 2/2/1 6/1/3 1/1/1
f 6/1/3 2/2/1 5/2/3
f 11/1/6 10/2/5 9/1/5
f 10/2/5 11/1/6 12/2/6
f 15/2/8 14/1/7 13/2/7
f 14/1/7 15/2/8 16/1/8
f 10/2/5 14/1/7 9/1/5
f 14/1/7 10/2/5 13/2/7
f 19/1/6 18/2/5 17/1/5
f 18/2/5 19/1/6 20/2/6
f 23/2/8 22/1/7 21/2/7
f 22/1/7 23/2/8 24/1/8
f 18/2/5 22/1/7 17/1/5
f 22/1/7 18/2/5 21/2/7
f 27/1/2 26/2/1 25/1/1
f 26/2/1 27/1/2 28/2/2
f 31/2/4 30/1/3 29/2/3
f 30/1/3 31/2/4 32/1/4
f 26/2/1 30/1/3 25/1/1
f 30/1/3 26/2/1 29/2/3
f 35/4/9 34/3/9 33/3/9
f 34/3/9 35/4/9 36/4/9
f 39/1/10 38/1/10 37/1/10
f 38/1/10 39/1/10 40/1/10
f 41/4/11 34/3/12 36/4/11
f 34/3/12 41/4/11 42/3/12
f 45/2/13 44/2/13 43/2/13
f 44/2/13 45/2/13 46/2/13
f 34/3/12 47/3/14 33/3/14
f 47/3/14 34/3/12 42/3/12
f 47/3/14 35/4/15 33/3/14
f 35/4/15 47/3/14 48/4/15
f 41/4/11 35/4/15 48/4/15
f 35/4/15 41/4/11 36/4/11
f 51/4/16 50/3/16 49/4/16
f 50/3/16 51/4/16 52/3/16
f 54/4/18 50/3/17 53/3/17
f 50/3/17 54/4/18 49/4/18
f 51/4/19 54/4/18 55/4/19
f 54/4/18 51/4/19 49/4/18
f 51/4/19 56/3/20 52/3/20
f 56/3/20 51/4/19 55/4/19
f 50/3/17 56/3/20 53/3/17
f 56/3/20 50/3/17 52/3/20
f 59/4/21 58/3/21 57/3/21
f 58/3/21 59/4/21 60/4/21
f 59/4/11 61/4/15 60/4/15
f 61/4/15 59/4/11 62/4/11
f 58/3/14 61/4/15 63/3/14
f 61/4/15 58/3/14 60/4/15
f 59/4/11 64/3/12 62/4/11
f 64/3/12 59/4/11 57/3/12
f 64/3/12 58/3/14 63/3/14
f 58/3/14 64/3/12 57/3/12
f 67/3/22 66/4/22 65/3/22
f 66/4/22 67/3/22 68/4/22
f 70/4/19 67/3/20 69/3/20
f 67/3/20 70/4/19 68/4/19
f 66/4/18 71/3/17 65/3/17
f 71/3/17 66/4/18 72/4/18
f 71/3/17 67/3/20 65/3/17
f 67/3/20 71/3/17 69/3/20
f 70/4/19 66/4/18 68/4/19
f 66/4/18 70/4/19 72/4/18
f 40/1/21 64/3/21 38/1/21
f 64/3/21 40/1/21 45/2/21
f 63/3/21 38/1/21 64/3/21
f 64/3/21 45/2/21 62/4/21
f 38/1/21 63/3/21 43/2/21
f 62/4/21 45/2/21 61/4/21
f 43/2/21 63/3/21 61/4/21
f 43/2/21 61/4/21 45/2/21
f 43/2/16 54/4/16 38/1/16
f 54/4/16 43/2/16 44/2/16
f 53/3/16 38/1/16 54/4/16
f 54/4/16 44/2/16 55/4/16
f 38/1/16 53/3/16 37/1/16
f 55/4/16 44/2/16 56/3/16
f 37/1/16 53/3/16 56/3/16
f 37/1/16 56/3/16 44/2/16
f 47/3/9 44/2/9 48/4/9
f 48/4/9 44/2/9 41/4/9
f 47/3/9 37/1/9 44/2/9
f 46/2/9 41/4/9 44/2/9
f 37/1/9 47/3/9 39/1/9
f 46/2/9 42/3/9 41/4/9
f 39/1/9 42/3/9 46/2/9
f 42/3/9 39/1/9 47/3/9
f 40/1/22 71/3/22 45/2/22
f 71/3/22 40/1/22 39/1/22
f 72/4/22 45/2/22 71/3/22
f 71/3/22 39/1/22 69/3/22
f 45/2/22 72/4/22 46/2/22
f 69/3/22 39/1/22 70/4/22
f 46/2/22 72/4/22 70/4/22
f 46/2/22 70/4/22 39/1/22
f 75/1/2 74/2/1 73/1/1
f 74/2/1 75/1/2 76/2/2
f 74/2/1 77/1/3 73/1/1
f 77/1/3 74/2/1 78/2/3
f 79/2/4 77/1/3 78/2/3
f 77/1/3 79/2/4 80/1/4
f 83/1/6 82/2/5 81/1/5
f 82/2/5 83/1/6 84/2/6
f 82/2/5 85/1/7 81/1/5
f 85/1/7 82/2/5 86/2/7
f 87/2/8 85/1/7 86/2/7
f 85/1/7 87/2/8 88/1/8
f 91/5/13 90/5/13 89/5/13
f 90/5/13 91/5/13 92/5/13
f 94/6/24 91/5/23 93/6/23
f 91/5/23 94/6/24 92/5/24
f 90/5/26 95/6/25 89/5/25
f 95/6/25 90/5/26 96/6/26
f 91/5/23 95/6/25 93/6/23
f 95/6/25 91/5/23 89/5/25
f 94/6/10 95/6/10 96/6/10
f 95/6/10 94/6/10 93/6/10
f 90/5/26 94/6/24 96/6/26
f 94/6/24 90/5/26 92/5/24
f 99/5/13 98/5/13 97/5/13
f 98/5/13 99/5/13 100/5/13
f 98/5/26 102/6/24 101/6/26
f 102/6/24 98/5/26 100/5/24
f 102/6/24 99/5/23 103/6/23
f 99/5/23 102/6/24 100/5/24
f 102/6/10 104/6/10 101/6/10
f 104/6/10 102/6/10 103/6/10
f 98/5/26 104/6/25 97/5/25
f 104/6/25 98/5/26 101/6/26
f 99/5/23 104/6/25 103/6/23
f 104/6/25 99/5/23 97/5/25
f 107/5/13 106/5/13 105/5/13
f 106/5/13 107/5/13 108/5/13
f 110/6/24 107/5/23 109/6/23
f 107/5/23 110/6/24 108/5/24
f 106/5/26 111/6/25 105/5/25
f 111/6/25 106/5/26 112/6/26
f 107/5/23 111/6/25 109/6/23
f 111/6/25 107/5/23 105/5/25
f 110/6/10 111/6/10 112/6/10
f 111/6/10 110/6/10 109/6/10
f 106/5/26 110/6/24 112/6/26
f 110/6/24 106/5/26 108/5/24
f 115/5/13 114/5/13 113/5/13
f 114/5/13 115/5/13 116/5/13
f 114/5/26 118/6/24 117/6/26
f 118/6/24 114/5/26 116/5/24
f 118/6/24 115/5/23 119/6/23
f 115/5/23 118/6/24 116/5/24
f 118/6/10 120/6/10 117/6/10
f 120/6/10 118/6/10 119/6/10
f 114/5/26 120/6/25 113/5/25
f 120/6/25 114/5/26 117/6/26
f 115/5/23 120/6/25 119/6/23
f 120/6/25 115/5/23 113/5/25

