# Created by Kenney (www.kenney.nl)

mtllib gate.mtl

g gate

v 2.684679 2.524086E-14 0.2 1 1 1
v 2.684679 1.271067E-14 -0.2 1 1 1
v 2.270568 3.774546E-14 0.6 1 1 1
v 2.270568 0 -0.6 1 1 1
v 1.830817 3.777106E-14 0.6 1 1 1
v 1.830817 1.804779E-16 -0.6 1 1 1
v -1.830817 3.777106E-14 0.6 1 1 1
v -1.830817 1.804779E-16 -0.6 1 1 1
v -2.270568 3.774546E-14 0.6 1 1 1
v -2.270568 0 -0.6 1 1 1
v -2.684679 2.524086E-14 0.2 1 1 1
v -2.684679 1.271067E-14 -0.2 1 1 1
v 2.246139 1.55 0.6 1 1 1
v 2.246139 1.55 -0.6 1 1 1
v 1.945213 2.673069 0.6 1 1 1
v 1.945213 2.673069 -0.6 1 1 1
v 1.123069 3.495213 0.6 1 1 1
v 1.123069 3.495213 -0.6 1 1 1
v 0 3.796139 0.6 1 1 1
v 0 3.796139 -0.6 1 1 1
v -1.123069 3.495213 0.6 1 1 1
v -1.123069 3.495213 -0.6 1 1 1
v -1.945213 2.673069 0.6 1 1 1
v -1.945213 2.673069 -0.6 1 1 1
v -2.246139 1.55 -0.6 1 1 1
v -2.246139 1.55 0.6 1 1 1
v -1.55 4.234679 -0.2 1 1 1
v -1.55 4.234679 0.2 1 1 1
v -2.684679 3.1 -0.2 1 1 1
v -2.684679 3.1 0.2 1 1 1
v -2.685889 1.55 -0.6 1 1 1
v -3.1 1.55 -0.2 1 1 1
v -2.326049 2.892945 -0.6 1 1 1
v -1.342945 3.876049 0.6 1 1 1
v 0 4.235889 0.6 1 1 1
v 0 4.65 0.2 1 1 1
v 2.684679 3.1 -0.2 1 1 1
v 3.1 1.55 -0.2 1 1 1
v 2.684679 3.1 0.2 1 1 1
v 3.1 1.55 0.2 1 1 1
v 1.55 4.234679 -0.2 1 1 1
v 1.55 4.234679 0.2 1 1 1
v -3.1 1.55 0.2 1 1 1
v 2.685889 1.55 0.6 1 1 1
v 2.326049 2.892945 0.6 1 1 1
v 1.342945 3.876049 0.6 1 1 1
v -2.326049 2.892945 0.6 1 1 1
v -2.685889 1.55 0.6 1 1 1
v 2.685889 1.55 -0.6 1 1 1
v -1.342945 3.876049 -0.6 1 1 1
v 0 4.235889 -0.6 1 1 1
v 0 4.65 -0.2 1 1 1
v 2.326049 2.892945 -0.6 1 1 1
v 1.342945 3.876049 -0.6 1 1 1

vn 0 -1 0
vn -0.9659258 0.258819 0
vn -1 0 0
vn -0.8660254 -0.5 0
vn -0.5 -0.8660254 0
vn 0.5 -0.8660254 0
vn 0.8660254 -0.5 0
vn 1 0 0
vn 0.9659258 0.258819 0
vn -0.4646657 0.8048245 -0.3692469
vn -0.4646657 0.8048245 0.3692469
vn -0.8048245 0.4646657 -0.3692469
vn -0.8048245 0.4646657 0.3692469
vn -0.3175024 -0.08507451 -0.9444335
vn -0.4257298 0 -0.9048504
vn -0.8835467 -0.2367456 -0.4040999
vn -0.9293313 0 -0.3692469
vn -0.3686928 0.2128649 -0.9048504
vn -0.2128649 0.3686928 0.9048504
vn 0 0.4257298 0.9048504
vn 0 0.9293313 0.3692469
vn 0.8048245 0.4646657 -0.3692469
vn 0.9293313 0 -0.3692469
vn 0.8048245 0.4646657 0.3692469
vn 0.9293313 0 0.3692469
vn 0.4646657 0.8048245 -0.3692469
vn 0.4646657 0.8048245 0.3692469
vn -0.9293313 0 0.3692469
vn -0.8835467 -0.2367456 0.4040999
vn 0.3175024 -0.08507451 0.9444335
vn 0 0 1
vn 0.4257298 0 0.9048504
vn 0.3686928 0.2128649 0.9048504
vn 0.2128649 0.3686928 0.9048504
vn -0.3686928 0.2128649 0.9048504
vn -0.4257298 0 0.9048504
vn -0.3175024 -0.08507451 0.9444335
vn 0.8835467 -0.2367456 0.4040999
vn 0.3175024 -0.08507451 -0.9444335
vn 0.8835467 -0.2367456 -0.4040999
vn 0.4257298 0 -0.9048504
vn -0.2128649 0.3686928 -0.9048504
vn 0 0.4257298 -0.9048504
vn 0 0.9293313 -0.3692469
vn 0.3686928 0.2128649 -0.9048504
vn 0.2128649 0.3686928 -0.9048504
vn 0 0 -1

vt 0.71875 0.025
vt 0.71875 0.09166668
vt 0.71875 0.1399707
vt 0.71875 0.1753318
vt 0.71875 0.1882748
vt 0.46875 0.4571368
vt 0.46875 0.4083334
vt 0.46875 0.275
vt 0.46875 0.3416667
vt 0.46875 0.3994277
vt 0.46875 0.4417118
vt 0.46875 0.4571888
vt 0.46875 0.475
vt 0.46875 0.3899707
vt 0.46875 0.4253318
vt 0.46875 0.4382748

usemtl colormap

f 3/1/1 2/1/1 1/1/1
f 2/1/1 3/1/1 4/1/1
f 4/1/1 3/1/1 5/1/1
f 4/1/1 5/1/1 6/1/1
f 9/1/1 8/1/1 7/1/1
f 8/1/1 9/1/1 10/1/1
f 10/1/1 9/1/1 11/1/1
f 10/1/1 11/1/1 12/1/1
f 13/2/3 6/1/2 5/1/2
f 6/1/2 13/2/3 14/2/3
f 15/3/4 14/2/3 13/2/3
f 14/2/3 15/3/4 16/3/4
f 17/4/5 16/3/4 15/3/4
f 16/3/4 17/4/5 18/4/5
f 19/5/1 18/4/5 17/4/5
f 18/4/5 19/5/1 20/5/1
f 21/4/6 20/5/1 19/5/1
f 20/5/1 21/4/6 22/4/6
f 23/3/7 22/4/6 21/4/6
f 22/4/6 23/3/7 24/3/7
f 23/3/7 25/2/8 24/3/7
f 25/2/8 23/3/7 26/2/8
f 26/2/8 8/1/9 25/2/8
f 8/1/9 26/2/8 7/1/9
f 29/7/12 28/6/11 27/6/10
f 28/6/11 29/7/12 30/7/13
f 12/8/16 31/9/15 10/8/14
f 31/9/15 12/8/16 32/9/17
f 32/9/17 33/10/18 31/9/15
f 33/10/18 32/9/17 29/7/12
f 35/12/20 28/6/11 34/11/19
f 28/6/11 35/12/20 36/13/21
f 39/7/24 38/9/23 37/7/22
f 38/9/23 39/7/24 40/9/25
f 41/6/26 39/7/24 37/7/22
f 39/7/24 41/6/26 42/6/27
f 12/8/16 43/9/28 32/9/17
f 43/9/28 12/8/16 11/8/29
f 44/9/32 5/8/31 3/8/30
f 5/8/31 44/9/32 13/9/31
f 13/9/31 44/9/32 45/10/33
f 13/9/31 45/10/33 15/14/31
f 15/14/31 45/10/33 17/15/31
f 17/15/31 45/10/33 46/11/34
f 17/15/31 46/11/34 19/16/31
f 34/11/19 19/16/31 46/11/34
f 34/11/19 46/11/34 35/12/20
f 34/11/19 21/15/31 19/16/31
f 47/10/35 21/15/31 34/11/19
f 47/10/35 23/14/31 21/15/31
f 48/9/36 23/14/31 47/10/35
f 48/9/36 26/9/31 23/14/31
f 48/9/36 7/8/31 26/9/31
f 7/8/31 48/9/36 9/8/37
f 9/8/37 43/9/28 11/8/29
f 43/9/28 9/8/37 48/9/36
f 40/9/25 3/8/30 1/8/38
f 3/8/30 40/9/25 44/9/32
f 49/9/41 2/8/40 4/8/39
f 2/8/40 49/9/41 38/9/23
f 27/6/10 51/12/43 50/11/42
f 51/12/43 27/6/10 52/13/44
f 53/10/45 38/9/23 49/9/41
f 38/9/23 53/10/45 37/7/22
f 34/11/19 30/7/13 47/10/35
f 30/7/13 34/11/19 28/6/11
f 39/7/24 44/9/32 40/9/25
f 44/9/32 39/7/24 45/10/33
f 32/9/17 30/7/13 29/7/12
f 30/7/13 32/9/17 43/9/28
f 29/7/12 50/11/42 33/10/18
f 50/11/42 29/7/12 27/6/10
f 51/12/43 41/6/26 54/11/46
f 41/6/26 51/12/43 52/13/44
f 27/6/10 36/13/21 52/13/44
f 36/13/21 27/6/10 28/6/11
f 52/13/44 42/6/27 41/6/26
f 42/6/27 52/13/44 36/13/21
f 42/6/27 35/12/20 46/11/34
f 35/12/20 42/6/27 36/13/21
f 40/9/25 2/8/40 38/9/23
f 2/8/40 40/9/25 1/8/38
f 39/7/24 46/11/34 45/10/33
f 46/11/34 39/7/24 42/6/27
f 48/9/36 30/7/13 43/9/28
f 30/7/13 48/9/36 47/10/35
f 31/9/15 8/8/47 10/8/14
f 8/8/47 31/9/15 25/9/47
f 25/9/47 31/9/15 33/10/18
f 25/9/47 33/10/18 24/14/47
f 24/14/47 33/10/18 22/15/47
f 22/15/47 33/10/18 50/11/42
f 22/15/47 50/11/42 20/16/47
f 54/11/46 20/16/47 50/11/42
f 54/11/46 50/11/42 51/12/43
f 54/11/46 18/15/47 20/16/47
f 53/10/45 18/15/47 54/11/46
f 53/10/45 16/14/47 18/15/47
f 53/10/45 14/9/47 16/14/47
f 49/9/41 14/9/47 53/10/45
f 49/9/41 6/8/47 14/9/47
f 6/8/47 49/9/41 4/8/39
f 54/11/46 37/7/22 53/10/45
f 37/7/22 54/11/46 41/6/26

g gate




usemtl colormap

f 3/1/1 2/1/1 1/1/1
f 2/1/1 3/1/1 4/1/1
f 4/1/1 3/1/1 5/1/1
f 4/1/1 5/1/1 6/1/1
f 9/1/1 8/1/1 7/1/1
f 8/1/1 9/1/1 10/1/1
f 10/1/1 9/1/1 11/1/1
f 10/1/1 11/1/1 12/1/1
f 13/2/3 6/1/2 5/1/2
f 6/1/2 13/2/3 14/2/3
f 15/3/4 14/2/3 13/2/3
f 14/2/3 15/3/4 16/3/4
f 17/4/5 16/3/4 15/3/4
f 16/3/4 17/4/5 18/4/5
f 19/5/1 18/4/5 17/4/5
f 18/4/5 19/5/1 20/5/1
f 21/4/6 20/5/1 19/5/1
f 20/5/1 21/4/6 22/4/6
f 23/3/7 22/4/6 21/4/6
f 22/4/6 23/3/7 24/3/7
f 23/3/7 25/2/8 24/3/7
f 25/2/8 23/3/7 26/2/8
f 26/2/8 8/1/9 25/2/8
f 8/1/9 26/2/8 7/1/9
f 29/7/12 28/6/11 27/6/10
f 28/6/11 29/7/12 30/7/13
f 12/8/16 31/9/15 10/8/14
f 31/9/15 12/8/16 32/9/17
f 32/9/17 33/10/18 31/9/15
f 33/10/18 32/9/17 29/7/12
f 35/12/20 28/6/11 34/11/19
f 28/6/11 35/12/20 36/13/21
f 39/7/24 38/9/23 37/7/22
f 38/9/23 39/7/24 40/9/25
f 41/6/26 39/7/24 37/7/22
f 39/7/24 41/6/26 42/6/27
f 12/8/16 43/9/28 32/9/17
f 43/9/28 12/8/16 11/8/29
f 44/9/32 5/8/31 3/8/30
f 5/8/31 44/9/32 13/9/31
f 13/9/31 44/9/32 45/10/33
f 13/9/31 45/10/33 15/14/31
f 15/14/31 45/10/33 17/15/31
f 17/15/31 45/10/33 46/11/34
f 17/15/31 46/11/34 19/16/31
f 34/11/19 19/16/31 46/11/34
f 34/11/19 46/11/34 35/12/20
f 34/11/19 21/15/31 19/16/31
f 47/10/35 21/15/31 34/11/19
f 47/10/35 23/14/31 21/15/31
f 48/9/36 23/14/31 47/10/35
f 48/9/36 26/9/31 23/14/31
f 48/9/36 7/8/31 26/9/31
f 7/8/31 48/9/36 9/8/37
f 9/8/37 43/9/28 11/8/29
f 43/9/28 9/8/37 48/9/36
f 40/9/25 3/8/30 1/8/38
f 3/8/30 40/9/25 44/9/32
f 49/9/41 2/8/40 4/8/39
f 2/8/40 49/9/41 38/9/23
f 27/6/10 51/12/43 50/11/42
f 51/12/43 27/6/10 52/13/44
f 53/10/45 38/9/23 49/9/41
f 38/9/23 53/10/45 37/7/22
f 34/11/19 30/7/13 47/10/35
f 30/7/13 34/11/19 28/6/11
f 39/7/24 44/9/32 40/9/25
f 44/9/32 39/7/24 45/10/33
f 32/9/17 30/7/13 29/7/12
f 30/7/13 32/9/17 43/9/28
f 29/7/12 50/11/42 33/10/18
f 50/11/42 29/7/12 27/6/10
f 51/12/43 41/6/26 54/11/46
f 41/6/26 51/12/43 52/13/44
f 27/6/10 36/13/21 52/13/44
f 36/13/21 27/6/10 28/6/11
f 52/13/44 42/6/27 41/6/26
f 42/6/27 52/13/44 36/13/21
f 42/6/27 35/12/20 46/11/34
f 35/12/20 42/6/27 36/13/21
f 40/9/25 2/8/40 38/9/23
f 2/8/40 40/9/25 1/8/38
f 39/7/24 46/11/34 45/10/33
f 46/11/34 39/7/24 42/6/27
f 48/9/36 30/7/13 43/9/28
f 30/7/13 48/9/36 47/10/35
f 31/9/15 8/8/47 10/8/14
f 8/8/47 31/9/15 25/9/47
f 25/9/47 31/9/15 33/10/18
f 25/9/47 33/10/18 24/14/47
f 24/14/47 33/10/18 22/15/47
f 22/15/47 33/10/18 50/11/42
f 22/15/47 50/11/42 20/16/47
f 54/11/46 20/16/47 50/11/42
f 54/11/46 50/11/42 51/12/43
f 54/11/46 18/15/47 20/16/47
f 53/10/45 18/15/47 54/11/46
f 53/10/45 16/14/47 18/15/47
f 53/10/45 14/9/47 16/14/47
f 49/9/41 14/9/47 53/10/45
f 49/9/41 6/8/47 14/9/47
f 6/8/47 49/9/41 4/8/39
f 54/11/46 37/7/22 53/10/45
f 37/7/22 54/11/46 41/6/26

