# Created by Kenney (www.kenney.nl)

mtllib ramp-wide.mtl

g ramp-wide

v 2.127075 1.798406E-14 0.8523563 1 1 1
v 2.127075 0.7505752 0.8523563 1 1 1
v 1.927075 4.209646E-14 0.8523563 1 1 1
v 1.927075 0.7505752 0.8523563 1 1 1
v 2.127075 0.7505752 1.252356 1 1 1
v 2.127075 1.798406E-14 1.252356 1 1 1
v 1.927075 4.209646E-14 1.252356 1 1 1
v 1.927075 0.7505752 1.252356 1 1 1
v -1.902925 0 0.8523563 1 1 1
v -1.902925 0.7505752 0.8523563 1 1 1
v -2.102925 2.41124E-14 0.8523563 1 1 1
v -2.102925 0.7505752 0.8523563 1 1 1
v -1.902925 0.7505752 1.252356 1 1 1
v -1.902925 0 1.252356 1 1 1
v -2.102925 2.41124E-14 1.252356 1 1 1
v -2.102925 0.7505752 1.252356 1 1 1
v -1.902925 0.2 0.9523562 1 1 1
v 1.927075 0.2 0.9523562 1 1 1
v -1.902925 0.6 0.9523562 1 1 1
v 1.927075 0.6 0.9523562 1 1 1
v 1.927075 0.2 1.152356 1 1 1
v -1.902925 0.2 1.152356 1 1 1
v 1.927075 0.6 1.152356 1 1 1
v -1.902925 0.6 1.152356 1 1 1
v 2.427075 0.8143508 0.9176289 1 1 1
v 2.427075 0.7108232 0.5312586 1 1 1
v -2.571975 0.8143508 0.9176289 1 1 1
v -2.571975 0.7108232 0.5312586 1 1 1
v 2.427075 0.9040083 0.4794948 1 1 1
v 2.427075 1.007536 0.8658651 1 1 1
v -2.571975 0.8074158 0.5053767 1 1 1
v -2.571975 0.9109434 0.891747 1 1 1
v 2.427075 0.2967127 -1.014222 1 1 1
v 2.427075 0.1931851 -1.400592 1 1 1
v -2.402925 0.2967127 -1.014222 1 1 1
v -2.402925 0.1931851 -1.400592 1 1 1
v 2.427075 0.3933053 -1.040104 1 1 1
v -2.402925 0.3933053 -1.040104 1 1 1
v -2.402925 0.2414814 -1.413533 1 1 1
v 2.427075 0.2414814 -1.413533 1 1 1
v 2.427075 0.9437604 1.400592 1 1 1
v 2.427075 0.8402327 1.014222 1 1 1
v -2.402925 0.9437604 1.400592 1 1 1
v -2.402925 0.8402327 1.014222 1 1 1
v 2.427075 1.033418 0.9624583 1 1 1
v 2.427075 1.136945 1.348829 1 1 1
v -2.402925 1.033418 0.9624583 1 1 1
v -2.402925 1.136945 1.348829 1 1 1
v 2.427075 0.4261223 -0.5312599 1 1 1
v 2.427075 0.3225946 -0.9176302 1 1 1
v -2.402925 0.4261223 -0.5312599 1 1 1
v -2.402925 0.3225946 -0.9176302 1 1 1
v 2.427075 0.4191872 -0.9435121 1 1 1
v 2.427075 0.5227149 -0.5571418 1 1 1
v -2.402925 0.4191872 -0.9435121 1 1 1
v -2.402925 0.5227149 -0.5571418 1 1 1
v 2.427075 0.6849413 0.4346672 1 1 1
v 2.427075 0.5814137 0.04829691 1 1 1
v -2.402925 0.6849413 0.4346672 1 1 1
v -2.402925 0.5814137 0.04829691 1 1 1
v 2.427075 0.6780063 0.022415 1 1 1
v 2.427075 0.7815339 0.4087853 1 1 1
v -2.402925 0.6780063 0.022415 1 1 1
v -2.402925 0.7815339 0.4087853 1 1 1
v 2.571975 0.5555318 -0.04829635 1 1 1
v 2.571975 0.4520042 -0.4346667 1 1 1
v -2.402925 0.5555318 -0.04829635 1 1 1
v -2.402925 0.4520042 -0.4346667 1 1 1
v 2.571975 0.5485967 -0.4605485 1 1 1
v 2.571975 0.6521243 -0.07417826 1 1 1
v -2.402925 0.6451893 -0.4864305 1 1 1
v -2.402925 0.748717 -0.1000602 1 1 1
v -2.202925 0.7205523 1.340309 1 1 1
v -1.802925 0.7205523 1.340309 1 1 1
v -2.202925 0.028822 -1.241264 1 1 1
v -1.802925 0.028822 -1.241264 1 1 1
v -1.802925 0.9137374 1.288545 1 1 1
v -2.202925 0.9137374 1.288545 1 1 1
v -1.802925 0.2220072 -1.293027 1 1 1
v -2.202925 0.2220072 -1.293027 1 1 1
v 1.827075 0.7205523 1.340309 1 1 1
v 2.227075 0.7205523 1.340309 1 1 1
v 1.827075 0.028822 -1.241264 1 1 1
v 2.227075 0.028822 -1.241264 1 1 1
v 2.227075 0.9137374 1.288545 1 1 1
v 1.827075 0.9137374 1.288545 1 1 1
v 2.227075 0.2220072 -1.293027 1 1 1
v 1.827075 0.2220072 -1.293027 1 1 1

vn 0 0 -1
vn 1 0 0
vn 0 -1 0
vn 0 0 1
vn 0 1 0
vn -1 0 0
vn 0 -0.9659258 0.258819
vn -0.01999979 0.9657326 -0.2587673
vn 0 0.2588191 0.9659258
vn 0 -0.2588191 -0.9659258
vn 0 -0.9659258 0.258819
vn 0 0.258819 0.9659258
vn 0 -0.258819 -0.9659258
vn 0 0.9263642 -0.3766288
vn 0 0.9659258 -0.258819
vn 0 0.9659258 -0.258819
vn 0.02009685 0.9657308 -0.2587668
vn 0 -0.9659258 0.2588191
vn 0 0.9659258 -0.2588191
vn -1.192093E-07 0.258819 0.9659259
vn -1 -3.085363E-08 -1.151473E-07
vn 1.192093E-07 -0.258819 -0.9659259
vn 1 3.085363E-08 1.151473E-07

vt 0.84375 0.225
vt 0.84375 0.025
vt 0.84375 0.075
vt 0.84375 0.175
vt 0.84375 0.125

usemtl colormap

f 3/1/1 2/2/1 1/1/1
f 2/2/1 3/1/1 4/2/1
f 5/2/2 1/1/2 2/2/2
f 1/1/2 5/2/2 6/1/2
f 7/1/3 1/1/3 6/1/3
f 1/1/3 7/1/3 3/1/3
f 5/2/4 7/1/4 6/1/4
f 7/1/4 5/2/4 8/2/4
f 4/2/5 5/2/5 2/2/5
f 5/2/5 4/2/5 8/2/5
f 7/1/6 4/2/6 3/1/6
f 4/2/6 7/1/6 8/2/6
f 11/1/1 10/2/1 9/1/1
f 10/2/1 11/1/1 12/2/1
f 13/2/2 9/1/2 10/2/2
f 9/1/2 13/2/2 14/1/2
f 15/1/3 9/1/3 14/1/3
f 9/1/3 15/1/3 11/1/3
f 13/2/4 15/1/4 14/1/4
f 15/1/4 13/2/4 16/2/4
f 12/2/5 13/2/5 10/2/5
f 13/2/5 12/2/5 16/2/5
f 15/1/6 12/2/6 11/1/6
f 12/2/6 15/1/6 16/2/6
f 19/4/1 18/3/1 17/3/1
f 18/3/1 19/4/1 20/4/1
f 21/3/3 17/3/3 18/3/3
f 17/3/3 21/3/3 22/3/3
f 23/4/4 22/3/4 21/3/4
f 22/3/4 23/4/4 24/4/4
f 19/4/5 23/4/5 20/4/5
f 23/4/5 19/4/5 24/4/5
f 27/2/7 26/2/7 25/2/7
f 26/2/7 27/2/7 28/2/7
f 31/5/8 30/1/8 29/1/8
f 30/1/8 31/5/8 32/5/8
f 29/1/2 25/2/2 26/2/2
f 25/2/2 29/1/2 30/1/2
f 30/1/9 27/2/9 25/2/9
f 27/2/9 30/1/9 32/5/9
f 27/2/6 31/5/6 28/2/6
f 31/5/6 27/2/6 32/5/6
f 31/5/10 26/2/10 28/2/10
f 26/2/10 31/5/10 29/1/10
f 35/2/11 34/2/11 33/2/11
f 34/2/11 35/2/11 36/2/11
f 37/1/12 35/2/12 33/2/12
f 35/2/12 37/1/12 38/1/12
f 35/2/6 39/5/6 36/2/6
f 39/5/6 35/2/6 38/1/6
f 39/5/13 34/2/13 36/2/13
f 34/2/13 39/5/13 40/5/13
f 40/5/2 33/2/2 34/2/2
f 33/2/2 40/5/2 37/1/2
f 39/5/14 37/1/14 40/5/14
f 37/1/14 39/5/14 38/1/14
f 43/2/11 42/2/11 41/2/11
f 42/2/11 43/2/11 44/2/11
f 47/1/15 46/1/15 45/1/15
f 46/1/15 47/1/15 48/1/15
f 46/1/2 42/2/2 45/1/2
f 42/2/2 46/1/2 41/2/2
f 46/1/12 43/2/12 41/2/12
f 43/2/12 46/1/12 48/1/12
f 43/2/6 47/1/6 44/2/6
f 47/1/6 43/2/6 48/1/6
f 47/1/13 42/2/13 44/2/13
f 42/2/13 47/1/13 45/1/13
f 51/2/7 50/2/7 49/2/7
f 50/2/7 51/2/7 52/2/7
f 55/1/16 54/1/16 53/1/16
f 54/1/16 55/1/16 56/1/16
f 54/1/2 50/2/2 53/1/2
f 50/2/2 54/1/2 49/2/2
f 54/1/9 51/2/9 49/2/9
f 51/2/9 54/1/9 56/1/9
f 51/2/6 55/1/6 52/2/6
f 55/1/6 51/2/6 56/1/6
f 55/1/10 50/2/10 52/2/10
f 50/2/10 55/1/10 53/1/10
f 59/2/7 58/2/7 57/2/7
f 58/2/7 59/2/7 60/2/7
f 63/1/16 62/1/16 61/1/16
f 62/1/16 63/1/16 64/1/16
f 61/1/2 57/2/2 58/2/2
f 57/2/2 61/1/2 62/1/2
f 62/1/9 59/2/9 57/2/9
f 59/2/9 62/1/9 64/1/9
f 59/2/6 63/1/6 60/2/6
f 63/1/6 59/2/6 64/1/6
f 63/1/10 58/2/10 60/2/10
f 58/2/10 63/1/10 61/1/10
f 67/2/7 66/2/7 65/2/7
f 66/2/7 67/2/7 68/2/7
f 71/1/17 70/5/17 69/5/17
f 70/5/17 71/1/17 72/1/17
f 70/5/2 66/2/2 69/5/2
f 66/2/2 70/5/2 65/2/2
f 70/5/9 67/2/9 65/2/9
f 67/2/9 70/5/9 72/1/9
f 68/2/6 72/1/6 71/1/6
f 72/1/6 68/2/6 67/2/6
f 71/1/10 66/2/10 68/2/10
f 66/2/10 71/1/10 69/5/10
f 75/2/18 74/2/18 73/2/18
f 74/2/18 75/2/18 76/2/18
f 79/1/19 78/1/19 77/1/19
f 78/1/19 79/1/19 80/1/19
f 78/1/20 74/2/20 77/1/20
f 74/2/20 78/1/20 73/2/20
f 78/1/21 75/2/21 73/2/21
f 75/2/21 78/1/21 80/1/21
f 75/2/22 79/1/22 76/2/22
f 79/1/22 75/2/22 80/1/22
f 79/1/23 74/2/23 76/2/23
f 74/2/23 79/1/23 77/1/23
f 83/2/18 82/2/18 81/2/18
f 82/2/18 83/2/18 84/2/18
f 87/1/19 86/1/19 85/1/19
f 86/1/19 87/1/19 88/1/19
f 86/1/20 82/2/20 85/1/20
f 82/2/20 86/1/20 81/2/20
f 86/1/21 83/2/21 81/2/21
f 83/2/21 86/1/21 88/1/21
f 83/2/22 87/1/22 84/2/22
f 87/1/22 83/2/22 88/1/22
f 87/1/23 82/2/23 84/2/23
f 82/2/23 87/1/23 85/1/23

g ramp-wide




usemtl colormap

f 3/1/1 2/2/1 1/1/1
f 2/2/1 3/1/1 4/2/1
f 5/2/2 1/1/2 2/2/2
f 1/1/2 5/2/2 6/1/2
f 7/1/3 1/1/3 6/1/3
f 1/1/3 7/1/3 3/1/3
f 5/2/4 7/1/4 6/1/4
f 7/1/4 5/2/4 8/2/4
f 4/2/5 5/2/5 2/2/5
f 5/2/5 4/2/5 8/2/5
f 7/1/6 4/2/6 3/1/6
f 4/2/6 7/1/6 8/2/6
f 11/1/1 10/2/1 9/1/1
f 10/2/1 11/1/1 12/2/1
f 13/2/2 9/1/2 10/2/2
f 9/1/2 13/2/2 14/1/2
f 15/1/3 9/1/3 14/1/3
f 9/1/3 15/1/3 11/1/3
f 13/2/4 15/1/4 14/1/4
f 15/1/4 13/2/4 16/2/4
f 12/2/5 13/2/5 10/2/5
f 13/2/5 12/2/5 16/2/5
f 15/1/6 12/2/6 11/1/6
f 12/2/6 15/1/6 16/2/6
f 19/4/1 18/3/1 17/3/1
f 18/3/1 19/4/1 20/4/1
f 21/3/3 17/3/3 18/3/3
f 17/3/3 21/3/3 22/3/3
f 23/4/4 22/3/4 21/3/4
f 22/3/4 23/4/4 24/4/4
f 19/4/5 23/4/5 20/4/5
f 23/4/5 19/4/5 24/4/5
f 27/2/7 26/2/7 25/2/7
f 26/2/7 27/2/7 28/2/7
f 31/5/8 30/1/8 29/1/8
f 30/1/8 31/5/8 32/5/8
f 29/1/2 25/2/2 26/2/2
f 25/2/2 29/1/2 30/1/2
f 30/1/9 27/2/9 25/2/9
f 27/2/9 30/1/9 32/5/9
f 27/2/6 31/5/6 28/2/6
f 31/5/6 27/2/6 32/5/6
f 31/5/10 26/2/10 28/2/10
f 26/2/10 31/5/10 29/1/10
f 35/2/11 34/2/11 33/2/11
f 34/2/11 35/2/11 36/2/11
f 37/1/12 35/2/12 33/2/12
f 35/2/12 37/1/12 38/1/12
f 35/2/6 39/5/6 36/2/6
f 39/5/6 35/2/6 38/1/6
f 39/5/13 34/2/13 36/2/13
f 34/2/13 39/5/13 40/5/13
f 40/5/2 33/2/2 34/2/2
f 33/2/2 40/5/2 37/1/2
f 39/5/14 37/1/14 40/5/14
f 37/1/14 39/5/14 38/1/14
f 43/2/11 42/2/11 41/2/11
f 42/2/11 43/2/11 44/2/11
f 47/1/15 46/1/15 45/1/15
f 46/1/15 47/1/15 48/1/15
f 46/1/2 42/2/2 45/1/2
f 42/2/2 46/1/2 41/2/2
f 46/1/12 43/2/12 41/2/12
f 43/2/12 46/1/12 48/1/12
f 43/2/6 47/1/6 44/2/6
f 47/1/6 43/2/6 48/1/6
f 47/1/13 42/2/13 44/2/13
f 42/2/13 47/1/13 45/1/13
f 51/2/7 50/2/7 49/2/7
f 50/2/7 51/2/7 52/2/7
f 55/1/16 54/1/16 53/1/16
f 54/1/16 55/1/16 56/1/16
f 54/1/2 50/2/2 53/1/2
f 50/2/2 54/1/2 49/2/2
f 54/1/9 51/2/9 49/2/9
f 51/2/9 54/1/9 56/1/9
f 51/2/6 55/1/6 52/2/6
f 55/1/6 51/2/6 56/1/6
f 55/1/10 50/2/10 52/2/10
f 50/2/10 55/1/10 53/1/10
f 59/2/7 58/2/7 57/2/7
f 58/2/7 59/2/7 60/2/7
f 63/1/16 62/1/16 61/1/16
f 62/1/16 63/1/16 64/1/16
f 61/1/2 57/2/2 58/2/2
f 57/2/2 61/1/2 62/1/2
f 62/1/9 59/2/9 57/2/9
f 59/2/9 62/1/9 64/1/9
f 59/2/6 63/1/6 60/2/6
f 63/1/6 59/2/6 64/1/6
f 63/1/10 58/2/10 60/2/10
f 58/2/10 63/1/10 61/1/10
f 67/2/7 66/2/7 65/2/7
f 66/2/7 67/2/7 68/2/7
f 71/1/17 70/5/17 69/5/17
f 70/5/17 71/1/17 72/1/17
f 70/5/2 66/2/2 69/5/2
f 66/2/2 70/5/2 65/2/2
f 70/5/9 67/2/9 65/2/9
f 67/2/9 70/5/9 72/1/9
f 68/2/6 72/1/6 71/1/6
f 72/1/6 68/2/6 67/2/6
f 71/1/10 66/2/10 68/2/10
f 66/2/10 71/1/10 69/5/10
f 75/2/18 74/2/18 73/2/18
f 74/2/18 75/2/18 76/2/18
f 79/1/19 78/1/19 77/1/19
f 78/1/19 79/1/19 80/1/19
f 78/1/20 74/2/20 77/1/20
f 74/2/20 78/1/20 73/2/20
f 78/1/21 75/2/21 73/2/21
f 75/2/21 78/1/21 80/1/21
f 75/2/22 79/1/22 76/2/22
f 79/1/22 75/2/22 80/1/22
f 79/1/23 74/2/23 76/2/23
f 74/2/23 79/1/23 77/1/23
f 83/2/18 82/2/18 81/2/18
f 82/2/18 83/2/18 84/2/18
f 87/1/19 86/1/19 85/1/19
f 86/1/19 87/1/19 88/1/19
f 86/1/20 82/2/20 85/1/20
f 82/2/20 86/1/20 81/2/20
f 86/1/21 83/2/21 81/2/21
f 83/2/21 86/1/21 88/1/21
f 83/2/22 87/1/22 84/2/22
f 87/1/22 83/2/22 88/1/22
f 87/1/23 82/2/23 84/2/23
f 82/2/23 87/1/23 85/1/23

